<svg xmlns="http://www.w3.org/2000/svg" viewBox="0 0 576.86 534.36"><defs><style>.cls-1{fill:#eaf2ff;}.cls-2{fill:#fff;}.cls-3{fill:#8ced60;}.cls-4{fill:#9eb6d8;}.cls-5{fill:#dce6f4;}.cls-6{fill:#486f98;}.cls-7{fill:#ff7a13;}.cls-8{fill:#c93b0b;}.cls-9{fill:#feaca2;}.cls-10{fill:#3f3563;}.cls-11,.cls-12,.cls-17,.cls-18,.cls-19,.cls-20{fill:none;stroke-linecap:round;stroke-linejoin:round;}.cls-11{stroke:#9a93ba;opacity:0.15;}.cls-11,.cls-12,.cls-17,.cls-18,.cls-19{stroke-width:1.57px;}.cls-12{stroke:#1b1738;}.cls-13{fill:#6e42e8;}.cls-14{fill:#7c5ded;}.cls-15{fill:#51005b;}.cls-16{fill:#e06a7e;}.cls-17{stroke:#e06a7e;}.cls-18{stroke:#51005b;}.cls-19{stroke:#442aa0;}.cls-20{stroke:#fff;stroke-width:1.62px;}.cls-21{fill:#ffb013;}.cls-22{fill:#5e548e;}.cls-23{fill:#cad8ed;}.cls-24{fill:#4ac2c0;}</style></defs><g id="Layer_2" data-name="Layer 2"><g id="Layer_2-2" data-name="Layer 2"><rect class="cls-1" x="126.13" y="18.11" width="189.98" height="400.52"/><rect class="cls-2" x="140.13" y="32.11" width="161.97" height="372.52"/><rect class="cls-1" x="351.33" y="18.11" width="189.98" height="400.52"/><rect class="cls-2" x="365.33" y="32.11" width="161.97" height="372.52"/><path class="cls-3" d="M510,474.88c.06.61.1,1,.11,1.22A11.21,11.21,0,0,1,510,474.88Z"/><path class="cls-4" d="M346.12,187.87h122c2.92,0,4.8,2.42,4.21,5.42L454.5,283.62a6.85,6.85,0,0,1-6.35,5.43H326.2c-2.92,0-4.81-2.43-4.22-5.43l17.79-90.33A6.83,6.83,0,0,1,346.12,187.87Z"/><path class="cls-5" d="M341.4,187.87h122a4.19,4.19,0,0,1,4.21,5.28l-17.79,88a6.8,6.8,0,0,1-6.35,5.28H321.48a4.19,4.19,0,0,1-4.21-5.28l17.79-88A6.78,6.78,0,0,1,341.4,187.87Z"/><path class="cls-2" d="M460.38,194.62l-15.81,78.26H325.82l15.83-78.25H460.38Z"/><rect class="cls-4" x="230.97" y="276.8" width="217.95" height="12.24" rx="6.12"/><circle class="cls-6" cx="439.24" cy="283.58" r="2.19"/><circle class="cls-6" cx="429.95" cy="283.58" r="2.19"/><rect class="cls-6" x="414.78" y="281.9" width="9.55" height="3.35" rx="1.68"/><polygon class="cls-5" points="263.88 532.73 276.52 532.73 307 310.52 294.37 310.52 263.88 532.73"/><polygon class="cls-5" points="126.25 532.73 138.89 532.73 169.37 310.52 156.74 310.52 126.25 532.73"/><rect class="cls-7" x="366.88" y="289.05" width="198.11" height="21.47" rx="6.1"/><rect class="cls-8" x="132.12" y="289.05" width="286.97" height="21.47" rx="6.1"/><polygon class="cls-5" points="439.24 532.73 426.61 532.73 401.44 349.31 396.12 310.52 408.75 310.52 414.07 349.31 439.24 532.73"/><polygon class="cls-5" points="576.86 532.73 564.23 532.73 539.07 349.31 533.75 310.52 546.37 310.52 551.7 349.31 576.86 532.73"/><path class="cls-9" d="M194.33,169.13l10.45,14.51-28.16,39.94v61.17a6.12,6.12,0,0,0,6.12,6.12h0a6.14,6.14,0,0,0,5.95-4.68L197,251.77l48.55-51.91a28.86,28.86,0,0,0,2.27-36.7l-20.24-27.84Z"/><path class="cls-10" d="M60.69,221.82,45.18,490.49A4.68,4.68,0,0,0,49.8,496h53.82l16.69-212.52,12,212.52h55.21l-2.28-279.71L129.18,203Z"/><line class="cls-11" x1="132.81" y1="279.88" x2="146.07" y2="488.35"/><line class="cls-12" x1="120.31" y1="283.47" x2="140.38" y2="277.7"/><path class="cls-13" d="M194.33,169.13,184,157l1.09,20,.58,10.84.53,9.71.59,10.84.64,11.82a3.18,3.18,0,0,1-3.16,3.34H62.09a3.16,3.16,0,0,1-3.15-3.49l1.19-11.67,1.1-10.84,1-9.71L63.31,177l3.28-32.29,53.53-72,44,4.77a43.27,43.27,0,0,1,28.76,15.55l34.73,42.26Z"/><polygon class="cls-14" points="186.8 208.42 60.13 208.42 61.23 197.58 186.21 197.58 186.8 208.42"/><polygon class="cls-14" points="185.68 187.87 62.21 187.87 63.31 177.03 185.1 177.03 185.68 187.87"/><path class="cls-13" d="M112.26,72.74,70.69,81.25A28.62,28.62,0,0,0,51.21,95.79l-26,48.75,36,22.78,52.06-85.1Z"/><path class="cls-15" d="M111.09,62.61c-11.47,0-18.7-14.69-21.15-26.06s2.54-15.5,7.72-16.27c-5-18.2,28.28-22.07,38.73-19.62s10.3,6.71,10.3,6.71,8.41.13,11.9,6.33,1.29,9.54-1.68,9.41c3.22,6.33-2.71,20.7-14.19,20.35"/><circle class="cls-9" cx="97.09" cy="47.04" r="9.24"/><path class="cls-9" d="M108.45,76c0,5.46,5.4,11.62,13.75,12.29,7.22.58,13-1.42,14.49-4.92a10.53,10.53,0,0,0,.53-1.65c1-4,1.15-10.38,2.38-16.46l-20-12-10.2-6.1C110.82,55.81,108.45,70.54,108.45,76Z"/><path class="cls-16" d="M110.18,61.77c12,12.49,20.08,19.51,26.51,21.59a10.53,10.53,0,0,0,.53-1.65c1-4,1.15-10.38,2.38-16.46l-20-12a66.33,66.33,0,0,0-8.82,1.16Z"/><path class="cls-9" d="M148.72,21.48S151,24.21,151,29.74c0,0,.44,17.21,0,25A14.72,14.72,0,0,1,149.11,61c-3,5.42-9.23,9.85-17.52,10.22-7.1.32-14.83-3.58-20.5-8.61a28.84,28.84,0,0,1-7.4-9.59V47.68c.16.16.64.16,1.91-.48,0,0,2.39-10.15,2.85-11.8s-2.15-1.91,10.65-4.16a32.58,32.58,0,0,0,10.15-3.61s-1.57,1.55-1.05,3.29S134.53,33.71,148.72,21.48Z"/><path class="cls-2" d="M123.61,58.91a.68.68,0,0,1,0-1.21c3.52-1.76,7.25-.81,7.68,1.58C131.69,61.49,126.12,60.06,123.61,58.91Z"/><path class="cls-9" d="M103.69,47.68V47.2S103.53,47.52,103.69,47.68Z"/><path class="cls-17" d="M97.65,50.3c.29-4.64-4.23-4.93-4.23-4.93"/><path class="cls-17" d="M131,41.73l4,7.06a1.36,1.36,0,0,1-.81,2l-3.85,1.06"/><circle cx="143.75" cy="45.54" r="2.08"/><circle cx="120.12" cy="45.54" r="2.08"/><path class="cls-18" d="M140.29,35.85a5.89,5.89,0,0,0,6.4.87"/><path class="cls-18" d="M124.44,35.85a5.88,5.88,0,0,1-6.39.87"/><rect class="cls-4" x="14.71" y="269.58" width="70.26" height="13.21"/><path class="cls-4" d="M49.84,400.35a6,6,0,0,1-4.29-1.81l-29-29.74a6,6,0,0,1-1.69-3.91l-9-190.84a6,6,0,0,1,6-6.28h76a6,6,0,0,1,6,6.28l-9,190.84a6,6,0,0,1-1.7,3.91l-29,29.74A6,6,0,0,1,49.84,400.35Zm-23.11-38.3,23.11,23.7L73,362.05l8.6-182.28H18.12Zm52.11,2.56h0Z"/><rect class="cls-7" y="165.06" width="99.68" height="14.71" rx="5.72"/><path class="cls-9" d="M25.17,144.54,13.11,171.32a18,18,0,0,0-1.33,10.46l13.39,77.67s1.67,19.74,3.61,25.8,7.74,1.94,7.74,1.94a6.05,6.05,0,0,0,4.65,3.1c3.35.38,4-1.29,4-1.29a4.36,4.36,0,0,0,3.48,3c2.84.52,5.29-3.74,5.29-3.74s0,2.67,4.65,3.79,5.54-3,5.8-4.82S63,269.64,63,269.64h7.49s-1.29-9.16-5.29-13.93a31.42,31.42,0,0,0-8-7L49.55,190l11.62-22.71Z"/><line class="cls-19" x1="64.92" y1="161.19" x2="86.72" y2="122.48"/><path class="cls-19" d="M72.78,86.67c8.32,1,11,11,11,11"/><path class="cls-19" d="M184,157c-.13-28.13-2.26-45.75-2.26-45.75"/><path class="cls-19" d="M178.84,97.71c-1.16-8.13-4.45-11-4.45-11"/><path class="cls-20" d="M103.62,76.61c.22,13.64,14.06,18.29,25,17.23s15.17-9.23,14.16-16.46"/><path class="cls-21" d="M229.32,525.08a7.65,7.65,0,0,1-7.65,7.64H138.28a7.64,7.64,0,0,1-7.56-8.75l1.15-7.87,3-20.11h49.63c8.63,6.81,31,17.7,40.49,22.19A7.63,7.63,0,0,1,229.32,525.08Z"/><path class="cls-10" d="M229,527.23a7.68,7.68,0,0,1-7.35,5.49H138.28a7.64,7.64,0,0,1-7.56-8.75l1.15-7.87h21.64a7.85,7.85,0,0,1,4.21,1.22l7.23,4.59a7.87,7.87,0,0,0,3.67,1.21Z"/><path class="cls-22" d="M204.72,508.13c-2.34,1.77-20.57-1.36-24.74-4.53s-7.39-4.38-8-7.92-2.15-12,1.8-12.93,14.5-1.82,14.66,2-.32,12.29.05,12.76S204.72,508.13,204.72,508.13Z"/><path class="cls-23" d="M128.22,523.27a9.46,9.46,0,0,1-9.46,9.46H45.25a6.87,6.87,0,0,1-6.85-7.19s0-.11,0-.16l.14-2L41,488.52l.15-2L43.51,452l.17-2.5,1.14-16.37.14-2,1.12-16.08a4.18,4.18,0,0,1,4.17-3.89h59.06a4.19,4.19,0,0,1,4.17,4.45l-1.09,16.71-.13,2-.64,9.69-.16,2.42-2.17,33.23-.13,2-1.08,16.46-.15,2.28-.1,1.58L124.77,516A9.46,9.46,0,0,1,128.22,523.27Z"/><path class="cls-4" d="M108.08,498.17l-.15,2.28A398.5,398.5,0,0,1,38.4,525.54s0-.11,0-.16l.14-2q8.36-2.17,16.62-4.71A396.33,396.33,0,0,0,108.08,498.17Z"/><path class="cls-4" d="M93.23,434l19,.34.13-2L59,431.41l-14-.25-.14,2,44,.78a195.79,195.79,0,0,0-36.9,22.88q-4.17-3.58-8.25-7.29l-.17,2.5q11.6,10.46,23.78,20.23,6.08,4.9,12.17,9.79c-10.64.88-21.27,1.87-31.83,3.4q-3.27.48-6.51,1l-.15,2c8.58-1.46,17.25-2.51,25.92-3.36,14.07-1.36,28.18-2.36,42.27-3.45l.13-2-18.43,1.45-8.92.71a.82.82,0,0,0-.34-.62q-7-5.66-14-11.32,22.23-11.16,43.86-23.45l.16-2.42q-15.25,8.73-30.82,16.87-7.26,3.79-14.59,7.47a1,1,0,0,0-.25.19q-6.3-5.15-12.48-10.44a193.89,193.89,0,0,1,39.56-24A.94.94,0,0,0,93.23,434Z"/><rect class="cls-4" x="42.77" y="394.8" width="14.13" height="125.5"/><rect class="cls-10" x="38.26" y="511.85" width="23.17" height="20.88" rx="3.05"/><path class="cls-17" d="M53.94,288.22c-2.06-4.77-2.58-13.55-2.58-13.55"/><path class="cls-17" d="M45.17,289c-1.87-3.42-2.52-10.65-2.52-10.65"/><path class="cls-17" d="M36.52,287.19a42.37,42.37,0,0,1-2.32-11.42"/><line class="cls-17" x1="204.78" y1="183.64" x2="217.65" y2="170.77"/><path class="cls-21" d="M367.73,226l.5,16.19-13.9-10.17a45.64,45.64,0,0,1-12.23,1.69c-23.86,0-40.73-19.34-37.66-43.2s24.91-43.2,48.77-43.2,40.71,19.34,37.64,43.2C389,205.25,380,218.24,367.73,226Z"/><path class="cls-2" d="M358.53,207.71H332.35a3.19,3.19,0,0,1-3.23-3.72h0a4.36,4.36,0,0,1,4.19-3.72h26.17a3.2,3.2,0,0,1,3.24,3.72h0A4.36,4.36,0,0,1,358.53,207.71Z"/><path class="cls-2" d="M357.84,204H334l1.54-11.93A14,14,0,0,1,349,180.14h0a10.26,10.26,0,0,1,10.39,11.92Z"/><ellipse class="cls-2" cx="349.56" cy="175.65" rx="2.42" ry="2.12" transform="translate(-25.57 286.64) rotate(-43.16)"/><path class="cls-24" d="M514.77,497.11l-20.31-.69a77.52,77.52,0,0,1-.7-16.06s.26-80.26,4.13-85.42c3.58-4.78,11,68.7,12.12,79.88a.13.13,0,0,0,0,.06,11.21,11.21,0,0,0,.11,1.22s0,0,0,.07,0,0,0,.06C511,481.29,513.32,490.27,514.77,497.11Z"/><path class="cls-3" d="M494.46,496.42,481.12,496c-8.39-17.55-20.33-76.81-14.75-71.25s27.39,55.64,27.39,55.64A77.52,77.52,0,0,0,494.46,496.42Z"/><path class="cls-3" d="M522.93,497.39l-8.16-.28c-1.45-6.84-3.74-15.82-4.62-20.88,0,0,21.29-67.23,26.19-67.1S527.05,487.84,522.93,497.39Z"/><path class="cls-23" d="M532.29,488.7h-59a5.06,5.06,0,0,0-4.83,6.56l7.66,24.84a20.2,20.2,0,0,0,19.31,14.26h14.73a20.2,20.2,0,0,0,19.31-14.26l7.66-24.84A5.07,5.07,0,0,0,532.29,488.7Z"/></g></g></svg>