<svg xmlns="http://www.w3.org/2000/svg" viewBox="0 0 558.24 541.18"><defs><style>.cls-1{fill:#cad8ed;}.cls-2{fill:#eaf2ff;}.cls-3{fill:#fff;}.cls-4{fill:#ff6368;}.cls-5{fill:#8ced60;}.cls-6{fill:#6e42e8;}.cls-7{fill:#ffb013;}.cls-8{fill:#4ac2c0;}.cls-9{fill:#bb3654;}.cls-10{fill:#3f3563;}.cls-11{fill:#01abff;}.cls-12{fill:#e06a7e;}.cls-13{fill:#feaca2;}.cls-14,.cls-15,.cls-16,.cls-19,.cls-21,.cls-22{fill:none;}.cls-14{stroke:#e06a7e;}.cls-14,.cls-15,.cls-16,.cls-19,.cls-21{stroke-linecap:round;stroke-linejoin:round;stroke-width:1.57px;}.cls-15{stroke:#9a93ba;opacity:0.15;}.cls-16{stroke:#1b1738;}.cls-17{fill:#9eb6d8;}.cls-18{fill:#7c5ded;}.cls-19{stroke:#442aa0;}.cls-20{fill:#51005b;}.cls-21{stroke:#51005b;}.cls-22{stroke:#fff;stroke-miterlimit:10;}.cls-23{fill:#442aa0;}</style></defs><g id="Layer_2" data-name="Layer 2"><g id="Layer_2-2" data-name="Layer 2"><path class="cls-1" d="M64.94,99.76a7.62,7.62,0,0,0-13,5.38v10.58a7.62,7.62,0,1,0,15.23,0V105.14A7.58,7.58,0,0,0,64.94,99.76ZM59.55,109a3.1,3.1,0,1,1,3.1-3.1A3.09,3.09,0,0,1,59.55,109Z"/><path class="cls-1" d="M307.2,99.76a7.62,7.62,0,0,0-13,5.38v10.58a7.62,7.62,0,1,0,15.23,0V105.14A7.58,7.58,0,0,0,307.2,99.76ZM301.81,109a3.1,3.1,0,1,1,3.1-3.1A3.09,3.09,0,0,1,301.81,109Z"/><rect class="cls-1" y="112.18" width="350.15" height="248.19" rx="6.22"/><path class="cls-2" d="M361.38,118.41V354.15a6.23,6.23,0,0,1-6.23,6.23H17.45a6.22,6.22,0,0,1-6.22-6.23V118.41a6.22,6.22,0,0,1,6.22-6.23h337.7A6.23,6.23,0,0,1,361.38,118.41Z"/><rect class="cls-1" x="86.35" y="112.18" width="53.32" height="39.24"/><rect class="cls-3" x="76.2" y="75.2" width="220.19" height="322.15" transform="translate(422.57 49.98) rotate(90)"/><rect class="cls-4" x="216.91" y="186.66" width="36.97" height="36.97" rx="2.25"/><rect class="cls-3" x="224.91" y="195.49" width="20.97" height="2.32" rx="1.16"/><rect class="cls-3" x="224.91" y="201.15" width="20.97" height="2.32" rx="1.16"/><rect class="cls-3" x="224.91" y="206.81" width="20.97" height="2.32" rx="1.16"/><rect class="cls-3" x="224.91" y="212.48" width="12.28" height="2.32" rx="1.16"/><rect class="cls-5" x="270.65" y="186.66" width="36.97" height="60.62" rx="2.25"/><rect class="cls-3" x="278.65" y="195.49" width="20.97" height="2.32" rx="1.16"/><rect class="cls-3" x="278.65" y="201.15" width="20.97" height="2.32" rx="1.16"/><rect class="cls-3" x="278.65" y="206.81" width="20.97" height="2.32" rx="1.16"/><rect class="cls-3" x="278.65" y="212.48" width="12.28" height="2.32" rx="1.16"/><rect class="cls-3" x="278.65" y="219.37" width="20.97" height="2.32" rx="1.16"/><rect class="cls-3" x="278.65" y="225.03" width="20.97" height="2.32" rx="1.16"/><rect class="cls-3" x="278.65" y="230.69" width="20.97" height="2.32" rx="1.16"/><rect class="cls-3" x="278.65" y="236.35" width="12.28" height="2.32" rx="1.16"/><rect class="cls-1" x="58.62" y="165.75" width="27.23" height="7.25" rx="3.63"/><rect class="cls-1" x="113.01" y="165.75" width="27.23" height="7.25" rx="3.63"/><rect class="cls-1" x="167.4" y="165.75" width="27.23" height="7.25" rx="3.63"/><rect class="cls-1" x="221.78" y="165.75" width="27.23" height="7.25" rx="3.63"/><rect class="cls-1" x="276.17" y="165.75" width="27.23" height="7.25" rx="3.63"/><rect class="cls-6" x="53.75" y="186.66" width="36.97" height="36.97" rx="2.25"/><rect class="cls-3" x="61.75" y="195.49" width="20.97" height="2.32" rx="1.16"/><rect class="cls-3" x="61.75" y="201.15" width="20.97" height="2.32" rx="1.16"/><rect class="cls-3" x="61.75" y="206.81" width="20.97" height="2.32" rx="1.16"/><rect class="cls-3" x="61.75" y="212.48" width="12.28" height="2.32" rx="1.16"/><rect class="cls-7" x="108.14" y="186.66" width="36.97" height="36.97" rx="2.25"/><rect class="cls-3" x="116.13" y="195.49" width="20.97" height="2.32" rx="1.16"/><rect class="cls-3" x="116.13" y="201.15" width="20.97" height="2.32" rx="1.16"/><rect class="cls-3" x="116.13" y="206.81" width="20.97" height="2.32" rx="1.16"/><rect class="cls-3" x="116.13" y="212.48" width="12.28" height="2.32" rx="1.16"/><rect class="cls-8" x="162.52" y="186.66" width="36.97" height="36.97" rx="2.25"/><rect class="cls-3" x="170.52" y="195.49" width="20.97" height="2.32" rx="1.16"/><rect class="cls-3" x="170.52" y="201.15" width="20.97" height="2.32" rx="1.16"/><rect class="cls-3" x="170.52" y="206.81" width="20.97" height="2.32" rx="1.16"/><rect class="cls-3" x="170.52" y="212.48" width="12.28" height="2.32" rx="1.16"/><rect class="cls-7" x="108.14" y="235.01" width="36.97" height="36.97" rx="2.25"/><rect class="cls-3" x="116.13" y="243.84" width="20.97" height="2.32" rx="1.16"/><rect class="cls-3" x="116.13" y="249.5" width="20.97" height="2.32" rx="1.16"/><rect class="cls-3" x="116.13" y="255.16" width="20.97" height="2.32" rx="1.16"/><rect class="cls-3" x="116.13" y="260.82" width="12.28" height="2.32" rx="1.16"/><polyline class="cls-1" points="123.87 135.78 219.7 135.78 129.67 44.69 119.35 45.16 104.9 98.82"/><path class="cls-2" d="M100.64,44.69c0,48.2-3.87,91.09-3.87,91.09h27.1s-1.36-38-1.36-91.09Z"/><path class="cls-9" d="M106.35,13.15h33.29a5.71,5.71,0,0,1,5.71,5.71V44.69a0,0,0,0,1,0,0H100.64a0,0,0,0,1,0,0V18.85A5.71,5.71,0,0,1,106.35,13.15Z"/><path class="cls-4" d="M248.52,18.76V44.69h-126V18.76a5.62,5.62,0,0,1,5.61-5.62H242.9A5.62,5.62,0,0,1,248.52,18.76Z"/><polygon class="cls-9" points="147.87 13.14 144.29 24.24 137.91 24.24 137.91 13.14 147.87 13.14"/><polygon class="cls-9" points="178.79 13.14 175.3 24.24 168.92 24.24 168.92 13.14 178.79 13.14"/><polygon class="cls-9" points="208.74 13.14 206.31 24.24 199.93 24.24 199.93 13.14 208.74 13.14"/><polygon class="cls-9" points="240.43 13.14 237.32 24.24 230.94 24.24 230.94 13.14 240.43 13.14"/><polygon class="cls-3" points="256.89 135.78 130.89 135.78 122.51 44.69 248.51 44.69 256.89 135.78"/><path class="cls-2" d="M166.74,61.21H138.87a2.67,2.67,0,0,1-2.61-2.39h0a2.14,2.14,0,0,1,2.17-2.38H166.3a2.67,2.67,0,0,1,2.61,2.38h0A2.14,2.14,0,0,1,166.74,61.21Z"/><path class="cls-2" d="M169.94,119.67H144.35a1.12,1.12,0,0,1-1.1-1l-4-43.09a.9.9,0,0,1,.91-1h25.59a1.14,1.14,0,0,1,1.1,1l4,43.09A.9.9,0,0,1,169.94,119.67Z"/><path class="cls-2" d="M205.2,119.67H179.61a1.14,1.14,0,0,1-1.1-1l-4-43.09a.91.91,0,0,1,.92-1h25.58a1.12,1.12,0,0,1,1.1,1l4,43.09A.9.9,0,0,1,205.2,119.67Z"/><path class="cls-2" d="M240.47,119.67H214.88a1.12,1.12,0,0,1-1.1-1l-4-43.09a.9.9,0,0,1,.91-1h25.59a1.14,1.14,0,0,1,1.1,1l4,43.09A.9.9,0,0,1,240.47,119.67Z"/><path class="cls-10" d="M137.9,23.49h0a2.54,2.54,0,0,1,2-2.44,8.15,8.15,0,1,0-10.13-7.9h-5A13.14,13.14,0,1,1,141,25.92,2.52,2.52,0,0,1,137.9,23.49Z"/><path class="cls-10" d="M168.92,23.49h0a2.54,2.54,0,0,1,2-2.44,8.15,8.15,0,1,0-10.14-7.9h-5A13.15,13.15,0,1,1,172,25.92,2.52,2.52,0,0,1,168.92,23.49Z"/><path class="cls-10" d="M199.93,23.49h0a2.55,2.55,0,0,1,2-2.44,8.15,8.15,0,1,0-10.13-7.9h-5a13.15,13.15,0,1,1,16.27,12.77A2.52,2.52,0,0,1,199.93,23.49Z"/><path class="cls-10" d="M231,23.49h0a2.54,2.54,0,0,1,2-2.44,8.15,8.15,0,1,0-10.13-7.9h-5a13.14,13.14,0,1,1,16.26,12.77A2.52,2.52,0,0,1,231,23.49Z"/><path class="cls-11" d="M95,86.18l46-.38A1.64,1.64,0,0,0,142.62,84l-3.44-46a1.92,1.92,0,0,0-1.91-1.76l-46,.38a1.64,1.64,0,0,0-1.64,1.79l3.44,46A1.92,1.92,0,0,0,95,86.18Z"/><path class="cls-3" d="M137.7,79.77a1.35,1.35,0,0,1-1.34,1.46l-37.43.3a1.56,1.56,0,0,1-1.55-1.43l0-.2a13.18,13.18,0,0,1,9.92-14,38,38,0,0,1,9-1.06A39.47,39.47,0,0,1,126,66,15.63,15.63,0,0,1,137.7,79.77Z"/><ellipse class="cls-3" cx="115.73" cy="55.95" rx="5.85" ry="6.26" transform="translate(-4.95 100.23) rotate(-45.95)"/><path class="cls-6" d="M234.3,107.07l46-.37a1.64,1.64,0,0,0,1.64-1.79l-3.44-46a1.92,1.92,0,0,0-1.91-1.76l-46,.37A1.64,1.64,0,0,0,229,59.3l3.44,46A1.91,1.91,0,0,0,234.3,107.07Z"/><path class="cls-3" d="M277,100.66a1.33,1.33,0,0,1-1.33,1.46l-37.43.31a1.57,1.57,0,0,1-1.55-1.44l0-.19a13.18,13.18,0,0,1,9.92-14,38,38,0,0,1,9-1.06,40,40,0,0,1,9.67,1.18A15.61,15.61,0,0,1,277,100.66Z"/><ellipse class="cls-3" cx="255.03" cy="76.84" rx="5.85" ry="6.26" transform="translate(22.49 206.73) rotate(-45.95)"/><rect class="cls-2" x="368.26" y="42.25" width="189.98" height="400.52"/><rect class="cls-3" x="382.27" y="56.25" width="161.97" height="372.52"/><path class="cls-12" d="M213.8,140.22c5.81,5.55,11.3,10.23,11.3,10.23l13.15-14.75-3.67-11-14.88,2.84"/><path class="cls-13" d="M238.25,120l-15-17.27a4.81,4.81,0,0,0-6.58-.65h0a4.81,4.81,0,0,0-1,6.51l16,23.58,6.58-.75"/><path class="cls-13" d="M222.61,117.43c-1.19-1.74-12.23,7.16-14.84,11.91s5.61,14.51,8.13,14.41,16.65-12.22,16.22-15.29S226,119.18,222.61,117.43Z"/><path class="cls-13" d="M298.85,150.45,284.69,169.1l-35.07-33.85L247,121.31a5.52,5.52,0,0,0-5.42-4.5H226.33a4.48,4.48,0,0,0-4.48,4.47h0a4.46,4.46,0,0,0,3.9,4.44l7.86,1-8.51,23.71L272,216.78a21.11,21.11,0,0,0,33,1.79l36.17-40.9Z"/><path class="cls-14" d="M284.69,169.1s14.29,12,19.76,20.47"/><path class="cls-10" d="M451,225.25l49.17,268.67a4.68,4.68,0,0,1-4.62,5.5h-47a4.7,4.7,0,0,1-4.55-3.54l-52.62-209-4.75,207.94a4.69,4.69,0,0,1-4.69,4.58H331.08a4.69,4.69,0,0,1-4.69-4.69v-275l56.09-13.29Z"/><line class="cls-15" x1="437.86" y1="235.82" x2="488.64" y2="490.3"/><path class="cls-15" d="M420.56,234.44c-1.21,18,21.76,25.26,21.76,25.26"/><line class="cls-15" x1="378.84" y1="283.3" x2="373.01" y2="492.94"/><line class="cls-16" x1="391.34" y1="286.9" x2="371.28" y2="281.12"/><path class="cls-17" d="M537.69,533.48a7.72,7.72,0,0,1-7.71,7.7H471.87a2.13,2.13,0,0,1-1.52-.64L468.82,539a2.16,2.16,0,0,0-3.05,0l-1.52,1.52a2.15,2.15,0,0,1-1.53.64h-7.5a7.71,7.71,0,0,1-7.7-7.93l.3-10.26.69-23.56h0l48.55-.26h0l37.52,28.15a7.7,7.7,0,0,1,3.07,5.86C537.69,533.27,537.69,533.38,537.69,533.48Z"/><path class="cls-17" d="M380.1,541.18H360.87a1.45,1.45,0,0,1-1-.44l-2.21-2.21a1.48,1.48,0,0,0-2.08,0l-2.21,2.21a1.47,1.47,0,0,1-1,.44H290.56a9.4,9.4,0,0,1-9.37-8.46,7.72,7.72,0,0,1-.05-1A9.42,9.42,0,0,1,286,523.5l44.06-24.17.31-.17h53.07l4.84,25.35,1.05,5.48A9.41,9.41,0,0,1,380.1,541.18Z"/><path class="cls-6" d="M476.13,143.8l-.15.61-4.41,18.14-3.31,13.65-.81,3.32-16.23,5.88-.06,8.93L451.08,208,451,225.25H328.26a3.36,3.36,0,0,1-3.33-3.83l1.9-13.44,1.93-13.65L331,178.66l-3.92-2.46L305.3,162.55,295,156.07l7.44-11.66,8.69-13.64,9.3-14.58A39.32,39.32,0,0,1,344.83,99c.47-.11.95-.21,1.43-.3l32-6.07,36-3.82L444.43,99l8.62,2.91a35.4,35.4,0,0,1,23.08,41.9Z"/><polygon class="cls-18" points="451.16 194.33 451.08 207.98 326.83 207.98 328.76 194.33 451.16 194.33"/><polygon class="cls-18" points="471.57 162.55 468.26 176.2 327.05 176.2 305.3 162.55 471.57 162.55"/><path class="cls-18" d="M476.13,143.8l-.15.61H302.41l8.69-13.64H476.82A35.32,35.32,0,0,1,476.13,143.8Z"/><path class="cls-18" d="M468.8,112.63H323A39.39,39.39,0,0,1,344.83,99h99.6l8.62,2.91A35.22,35.22,0,0,1,468.8,112.63Z"/><line class="cls-19" x1="438" y1="161.57" x2="467.45" y2="171.25"/><line class="cls-19" x1="430.01" y1="154.28" x2="436.77" y2="122.67"/><path class="cls-20" d="M368,48c-5.48-3.68-3.16-13.29-3.16-13.29s-2.58,1.41-3.42,0,4.39-9,4.39-9-4.13-.52-4-3.16S372.25,10,395.66,12.17s29.87,14,29.55,20.58c6.25,4.39,4.87,12.21,1.85,20.33s-11.85,19-20.37,18.25"/><circle class="cls-13" cx="420.77" cy="57.9" r="9.24"/><path class="cls-13" d="M409.41,86.86c0,5.45-5.41,11.62-13.75,12.29-7.22.58-13-1.42-14.49-4.93a9.48,9.48,0,0,1-.53-1.64c-1-4-1.15-10.39-2.38-16.46l20-12,10.2-6.1C407,66.68,409.41,81.4,409.41,86.86Z"/><path class="cls-12" d="M407.68,72.64c-12,12.48-20.08,19.5-26.51,21.58a9.48,9.48,0,0,1-.53-1.64c-1-4-1.15-10.39-2.38-16.46l20-12a66.67,66.67,0,0,1,8.81,1.15Z"/><path class="cls-13" d="M414.17,58.55v5.34a28.84,28.84,0,0,1-7.4,9.59c-5.67,5-13.4,8.93-20.5,8.61-8.29-.37-14.57-4.8-17.52-10.22a14.72,14.72,0,0,1-1.84-6.22c-.44-7.83,0-25,0-25,0-5.53,2.23-8.26,2.23-8.26,2,5.31,7.25,9,9.13,8.89s-1.07-7-1.21-7.35a51,51,0,0,0,20.68,8.51c12.79,2.32,11.22,2.23,11.67,3.87s2.85,11.8,2.85,11.8C413.53,58.71,414,58.71,414.17,58.55Z"/><path class="cls-12" d="M406.77,73.48c-5.67,5-13.4,8.93-20.5,8.61-8.29-.37-14.57-4.8-17.52-10.22,4.68,1.88,21.05,8.38,23.28,8.42C394.6,80.34,400,66.73,406.77,73.48Z"/><path class="cls-13" d="M414.17,58.55v-.48S414.33,58.39,414.17,58.55Z"/><path class="cls-14" d="M420.21,61.16c-.29-4.63,4.22-4.93,4.22-4.93"/><path class="cls-14" d="M386.88,52.6l-4,7.06a1.35,1.35,0,0,0,.81,2l3.85,1.07"/><circle cx="374.11" cy="56.4" r="2.08"/><circle cx="397.74" cy="56.4" r="2.08"/><path class="cls-21" d="M377.57,47.29a5.9,5.9,0,0,1-6.4.88"/><path class="cls-21" d="M394.51,49.13a5.89,5.89,0,0,1,6.45,0"/><circle class="cls-22" cx="373.34" cy="58.48" r="8.08"/><circle class="cls-22" cx="397.74" cy="58.48" r="8.08"/><line class="cls-22" x1="380.78" y1="55.33" x2="390.47" y2="55.33"/><line class="cls-22" x1="405.42" y1="55.97" x2="411.53" y2="53.98"/><path class="cls-14" d="M389,71.91s3.43-2.81,7-.87"/><path class="cls-23" d="M408.47,77.86c-1.64,6.58-17.8,15.79-17.41,16.36s7.91,11,9.9,13,14.1-11.42,16.33-16.26S408.47,77.86,408.47,77.86Z"/><path class="cls-13" d="M446.83,172.83,401.9,92.72a3.45,3.45,0,0,1,0-3.34l5.31-9.69a4.44,4.44,0,0,0-1.92-6.11h0A4.44,4.44,0,0,0,399.7,75l-4,5.49a4.1,4.1,0,0,1-4.91,1.38L365.74,71.28a4.25,4.25,0,0,0-5.56,2.26h0a4.25,4.25,0,0,0,2,5.44l7.7,3.93a1.68,1.68,0,0,1,.84,2L366.3,98.21a9.77,9.77,0,0,0,4.09,11.38l9.35,5.85,32.61,84.87c8.72,22.69,41.1,21.88,48.67-1.22l6.43-19.57Z"/><line class="cls-19" x1="330.96" y1="178.66" x2="338.92" y2="121.73"/><line class="cls-19" x1="303.29" y1="149.38" x2="332.68" y2="166.41"/><path class="cls-14" d="M222.58,118.35c-2.33,5.42,2.27,7.26,6.19,7.76s11.48,1.53,11.48,1.53"/><path class="cls-14" d="M233.61,126.74c-4,11.07-9.78,13.45-9.78,13.45"/><path class="cls-8" d="M184.76,486.48c2.28-19.87-40.92-92.86-39.49-102.32s26.25,18.4,38.42,52.32,11.81,58.61,11.81,58.61"/><path class="cls-5" d="M176.34,490.3c-.91-48.15-82.63-71.43-83.35-83.56S160.4,423.31,176.92,455,181.14,496.62,176.34,490.3Z"/><path class="cls-5" d="M200.09,488.51c-2.74-19.82,38.78-93.79,37.13-103.2s-25.82,19-37.21,53.18-10.46,58.87-10.46,58.87"/><path class="cls-8" d="M208.6,492.12c-.2-48.15,81-73.3,81.4-85.44s-67,18.11-82.8,50.12S203.94,498.56,208.6,492.12Z"/><path class="cls-1" d="M236.85,475.31H151.74a7.31,7.31,0,0,0-7,9.46l11.05,35.84a29.16,29.16,0,0,0,27.86,20.57h21.25a29.16,29.16,0,0,0,27.86-20.57l11.05-35.84A7.3,7.3,0,0,0,236.85,475.31Z"/></g></g></svg>