<svg xmlns="http://www.w3.org/2000/svg" xmlns:xlink="http://www.w3.org/1999/xlink" viewBox="0 0 552.2 539.08"><defs><style>.cls-1,.cls-17,.cls-18,.cls-23,.cls-24,.cls-26,.cls-27{fill:none;}.cls-2{fill:#eaf2ff;}.cls-3{fill:#5e548e;}.cls-4{fill:#8a82bf;}.cls-5{fill:#ffb013;}.cls-6{fill:#b6b1ef;}.cls-7{clip-path:url(#clip-path);}.cls-8{fill:#4b4482;}.cls-9{clip-path:url(#clip-path-2);}.cls-10{fill:#dce6f4;}.cls-11{fill:#ff7a13;}.cls-12{fill:#9eb6d8;}.cls-13{fill:#cad8ed;}.cls-14{fill:#fff;}.cls-15{fill:#c93b0b;}.cls-16{fill:#3f3563;}.cls-17{stroke:#9a93ba;opacity:0.15;}.cls-17,.cls-18,.cls-23,.cls-24,.cls-26,.cls-27{stroke-linecap:round;stroke-linejoin:round;stroke-width:1.62px;}.cls-18{stroke:#1b1738;}.cls-19{fill:#6e42e8;}.cls-20{fill:#7c5ded;}.cls-21{fill:#51005b;}.cls-22{fill:#feaca2;}.cls-23{stroke:#e06a7e;}.cls-24{stroke:#3f3563;}.cls-25{fill:#e06a7e;}.cls-26{stroke:#442aa0;}.cls-27{stroke:#fff;}.cls-28{fill:#8ced60;}.cls-29{fill:#4ac2c0;}</style><clipPath id="clip-path"><rect class="cls-1" x="179.06" y="14" width="161.98" height="372.52"/></clipPath><clipPath id="clip-path-2"><rect class="cls-1" x="376.23" y="14" width="161.97" height="372.52"/></clipPath></defs><g id="Layer_2" data-name="Layer 2"><g id="Layer_2-2" data-name="Layer 2"><rect class="cls-2" x="165.06" width="189.98" height="400.52"/><rect class="cls-3" x="179.06" y="14" width="161.98" height="372.52"/><rect class="cls-2" x="362.23" width="189.98" height="400.52"/><rect class="cls-3" x="376.23" y="14" width="161.97" height="372.52"/><path class="cls-4" d="M538.2,153.68v34.68H468.36A11.3,11.3,0,0,1,486,182a16.53,16.53,0,0,1,15.73-11.47,16.32,16.32,0,0,1,5.11.81,25.42,25.42,0,0,1,31.36-17.62Z"/><path class="cls-4" d="M341,76.46V96.21H301.65a11.3,11.3,0,0,1,17.64-6.41A16.52,16.52,0,0,1,335,78.34a16,16,0,0,1,5.11.81A25,25,0,0,1,341,76.46Z"/><path class="cls-4" d="M408.43,92.53a15.45,15.45,0,0,1-.44,3.68H376.23V63.4a25.48,25.48,0,0,1,12.25,14,15.4,15.4,0,0,1,4.21-.58A15.75,15.75,0,0,1,408.43,92.53Z"/><path class="cls-4" d="M224.35,74.72a15.36,15.36,0,0,1-.44,3.67H179.06V42.8c.48,0,1,0,1.44,0a25.4,25.4,0,0,1,23.9,16.79,15.4,15.4,0,0,1,4.21-.58A15.75,15.75,0,0,1,224.35,74.72Z"/><path class="cls-5" d="M503.28,95.9a25.34,25.34,0,0,1-50.67,0v-.05a.8.8,0,0,1,1.54-.28A19.1,19.1,0,1,0,483,72.63a.8.8,0,0,1,.65-1.42A25.34,25.34,0,0,1,503.28,95.9Z"/><path class="cls-6" d="M426.59,55.59l1.49.3a.16.16,0,0,1,0,.31l-1.49.3a1.5,1.5,0,0,0-1.16,1.16l-.3,1.49a.16.16,0,0,1-.31,0l-.3-1.49a1.5,1.5,0,0,0-1.16-1.16l-1.49-.3a.16.16,0,0,1,0-.31l1.49-.3a1.5,1.5,0,0,0,1.16-1.16l.3-1.49a.16.16,0,0,1,.31,0l.3,1.49A1.5,1.5,0,0,0,426.59,55.59Z"/><path class="cls-6" d="M450,147.14l1.5.3a.16.16,0,0,1,0,.31l-1.5.3a1.49,1.49,0,0,0-1.15,1.16l-.31,1.49a.15.15,0,0,1-.3,0l-.31-1.49a1.49,1.49,0,0,0-1.15-1.16l-1.5-.3a.16.16,0,0,1,0-.31l1.5-.3A1.49,1.49,0,0,0,448,146l.31-1.49a.15.15,0,0,1,.3,0l.31,1.49A1.49,1.49,0,0,0,450,147.14Z"/><path class="cls-6" d="M508.13,49.12l1.49.31a.15.15,0,0,1,0,.3l-1.49.31A1.48,1.48,0,0,0,507,51.19l-.31,1.5a.15.15,0,0,1-.3,0l-.31-1.5A1.48,1.48,0,0,0,504.9,50l-1.5-.31a.15.15,0,0,1,0-.3l1.5-.31A1.48,1.48,0,0,0,506.05,48l.31-1.5a.15.15,0,0,1,.3,0L507,48A1.48,1.48,0,0,0,508.13,49.12Z"/><path class="cls-6" d="M214,111.21l1.49.31a.15.15,0,0,1,0,.3l-1.49.31a1.49,1.49,0,0,0-1.16,1.16l-.3,1.49a.16.16,0,0,1-.31,0l-.3-1.49a1.49,1.49,0,0,0-1.16-1.16l-1.49-.31a.15.15,0,0,1,0-.3l1.49-.31a1.49,1.49,0,0,0,1.16-1.15l.3-1.5a.16.16,0,0,1,.31,0l.3,1.5A1.49,1.49,0,0,0,214,111.21Z"/><path class="cls-6" d="M309.49,55.59l1.5.3a.16.16,0,0,1,0,.31l-1.5.3a1.48,1.48,0,0,0-1.15,1.16L308,59.15a.15.15,0,0,1-.3,0l-.31-1.49a1.49,1.49,0,0,0-1.16-1.16l-1.49-.3a.16.16,0,0,1,0-.31l1.49-.3a1.49,1.49,0,0,0,1.16-1.16l.31-1.49a.15.15,0,0,1,.3,0l.31,1.49A1.48,1.48,0,0,0,309.49,55.59Z"/><path class="cls-6" d="M244.85,42.3l1.49.31a.15.15,0,0,1,0,.3l-1.49.31a1.48,1.48,0,0,0-1.16,1.15l-.3,1.49a.16.16,0,0,1-.31,0l-.3-1.49a1.48,1.48,0,0,0-1.16-1.15l-1.49-.31a.15.15,0,0,1,0-.3l1.49-.31a1.5,1.5,0,0,0,1.16-1.16l.3-1.49a.16.16,0,0,1,.31,0l.3,1.49A1.5,1.5,0,0,0,244.85,42.3Z"/><g class="cls-7"><rect class="cls-8" x="170.96" y="270.22" width="59.72" height="199.46"/><rect class="cls-3" x="174.51" y="278.58" width="6.37" height="10.97"/><rect class="cls-3" x="183.76" y="278.58" width="6.37" height="10.97"/><rect class="cls-3" x="193.01" y="278.58" width="6.37" height="10.97"/><rect class="cls-3" x="202.26" y="278.58" width="6.37" height="10.97"/><rect class="cls-3" x="211.52" y="278.58" width="6.37" height="10.97"/><rect class="cls-3" x="220.77" y="278.58" width="6.37" height="10.97"/><rect class="cls-3" x="174.51" y="292.3" width="6.37" height="10.97"/><rect class="cls-3" x="183.76" y="292.3" width="6.37" height="10.97"/><rect class="cls-3" x="193.01" y="292.3" width="6.37" height="10.97"/><rect class="cls-3" x="202.26" y="292.3" width="6.37" height="10.97"/><rect class="cls-4" x="211.52" y="292.3" width="6.37" height="10.97"/><rect class="cls-3" x="220.77" y="292.3" width="6.37" height="10.97"/><rect class="cls-3" x="174.51" y="306.02" width="6.37" height="10.97"/><rect class="cls-3" x="183.76" y="306.02" width="6.37" height="10.97"/><rect class="cls-3" x="193.01" y="306.02" width="6.37" height="10.97"/><rect class="cls-3" x="202.26" y="306.02" width="6.37" height="10.97"/><rect class="cls-4" x="211.52" y="306.02" width="6.37" height="10.97"/><rect class="cls-3" x="220.77" y="306.02" width="6.37" height="10.97"/><rect class="cls-3" x="174.51" y="319.74" width="6.37" height="10.97"/><rect class="cls-3" x="183.76" y="319.74" width="6.37" height="10.97"/><rect class="cls-3" x="193.01" y="319.74" width="6.37" height="10.97"/><rect class="cls-3" x="202.26" y="319.74" width="6.37" height="10.97"/><rect class="cls-3" x="211.52" y="319.74" width="6.37" height="10.97"/><rect class="cls-3" x="220.77" y="319.74" width="6.37" height="10.97"/><rect class="cls-3" x="174.51" y="333.45" width="6.37" height="10.97"/><rect class="cls-3" x="183.76" y="333.45" width="6.37" height="10.97"/><rect class="cls-3" x="193.01" y="333.45" width="6.37" height="10.97"/><rect class="cls-3" x="202.26" y="333.45" width="6.37" height="10.97"/><rect class="cls-3" x="211.52" y="333.45" width="6.37" height="10.97"/><rect class="cls-3" x="220.77" y="333.45" width="6.37" height="10.97"/><rect class="cls-3" x="174.51" y="347.17" width="6.37" height="10.97"/><rect class="cls-3" x="183.76" y="347.17" width="6.37" height="10.97"/><rect class="cls-3" x="193.01" y="347.17" width="6.37" height="10.97"/><rect class="cls-3" x="202.26" y="347.17" width="6.37" height="10.97"/><rect class="cls-3" x="211.52" y="347.17" width="6.37" height="10.97"/><rect class="cls-3" x="220.77" y="347.17" width="6.37" height="10.97"/><rect class="cls-3" x="174.51" y="360.89" width="6.37" height="10.97"/><rect class="cls-3" x="183.76" y="360.89" width="6.37" height="10.97"/><rect class="cls-3" x="193.01" y="360.89" width="6.37" height="10.97"/><rect class="cls-3" x="202.26" y="360.89" width="6.37" height="10.97"/><rect class="cls-3" x="211.52" y="360.89" width="6.37" height="10.97"/><rect class="cls-3" x="220.77" y="360.89" width="6.37" height="10.97"/><rect class="cls-3" x="174.51" y="374.61" width="6.37" height="10.97"/><rect class="cls-3" x="183.76" y="374.61" width="6.37" height="10.97"/><rect class="cls-3" x="193.01" y="374.61" width="6.37" height="10.97"/><rect class="cls-3" x="202.26" y="374.61" width="6.37" height="10.97"/><rect class="cls-3" x="211.52" y="374.61" width="6.37" height="10.97"/><rect class="cls-3" x="220.77" y="374.61" width="6.37" height="10.97"/><rect class="cls-3" x="174.51" y="388.33" width="6.37" height="10.97"/><rect class="cls-3" x="183.76" y="388.33" width="6.37" height="10.97"/><rect class="cls-3" x="193.01" y="388.33" width="6.37" height="10.97"/><rect class="cls-3" x="202.26" y="388.33" width="6.37" height="10.97"/><rect class="cls-3" x="211.52" y="388.33" width="6.37" height="10.97"/><rect class="cls-3" x="220.77" y="388.33" width="6.37" height="10.97"/><rect class="cls-3" x="174.51" y="402.05" width="6.37" height="10.97"/><rect class="cls-3" x="183.76" y="402.05" width="6.37" height="10.97"/><rect class="cls-3" x="193.01" y="402.05" width="6.37" height="10.97"/><rect class="cls-3" x="202.26" y="402.05" width="6.37" height="10.97"/><rect class="cls-3" x="211.52" y="402.05" width="6.37" height="10.97"/><rect class="cls-3" x="220.77" y="402.05" width="6.37" height="10.97"/><rect class="cls-3" x="174.51" y="415.77" width="6.37" height="10.97"/><rect class="cls-3" x="183.76" y="415.77" width="6.37" height="10.97"/><rect class="cls-3" x="193.01" y="415.77" width="6.37" height="10.97"/><rect class="cls-3" x="202.26" y="415.77" width="6.37" height="10.97"/><rect class="cls-3" x="211.52" y="415.77" width="6.37" height="10.97"/><rect class="cls-3" x="220.77" y="415.77" width="6.37" height="10.97"/><rect class="cls-8" x="252.82" y="294.08" width="59.72" height="199.46"/><rect class="cls-3" x="256.36" y="302.44" width="6.37" height="10.97"/><rect class="cls-3" x="265.62" y="302.44" width="6.37" height="10.97"/><rect class="cls-3" x="274.87" y="302.44" width="6.37" height="10.97"/><rect class="cls-3" x="284.12" y="302.44" width="6.37" height="10.97"/><rect class="cls-3" x="293.37" y="302.44" width="6.37" height="10.97"/><rect class="cls-3" x="302.62" y="302.44" width="6.37" height="10.97"/><rect class="cls-3" x="256.36" y="316.16" width="6.37" height="10.97"/><rect class="cls-3" x="265.62" y="316.16" width="6.37" height="10.97"/><rect class="cls-4" x="274.87" y="316.16" width="6.37" height="10.97"/><rect class="cls-3" x="284.12" y="316.16" width="6.37" height="10.97"/><rect class="cls-3" x="293.37" y="316.16" width="6.37" height="10.97"/><rect class="cls-3" x="302.62" y="316.16" width="6.37" height="10.97"/><rect class="cls-3" x="256.36" y="329.88" width="6.37" height="10.97"/><rect class="cls-3" x="265.62" y="329.88" width="6.37" height="10.97"/><rect class="cls-3" x="274.87" y="329.88" width="6.37" height="10.97"/><rect class="cls-3" x="284.12" y="329.88" width="6.37" height="10.97"/><rect class="cls-3" x="293.37" y="329.88" width="6.37" height="10.97"/><rect class="cls-3" x="302.62" y="329.88" width="6.37" height="10.97"/><rect class="cls-3" x="256.36" y="343.6" width="6.37" height="10.97"/><rect class="cls-3" x="265.62" y="343.6" width="6.37" height="10.97"/><rect class="cls-3" x="274.87" y="343.6" width="6.37" height="10.97"/><rect class="cls-3" x="284.12" y="343.6" width="6.37" height="10.97"/><rect class="cls-3" x="293.37" y="343.6" width="6.37" height="10.97"/><rect class="cls-3" x="302.62" y="343.6" width="6.37" height="10.97"/><rect class="cls-3" x="256.36" y="357.32" width="6.37" height="10.97"/><rect class="cls-3" x="265.62" y="357.32" width="6.37" height="10.97"/><rect class="cls-3" x="274.87" y="357.32" width="6.37" height="10.97"/><rect class="cls-3" x="284.12" y="357.32" width="6.37" height="10.97"/><rect class="cls-4" x="293.37" y="357.32" width="6.37" height="10.97"/><rect class="cls-3" x="302.62" y="357.32" width="6.37" height="10.97"/><rect class="cls-3" x="256.36" y="371.04" width="6.37" height="10.97"/><rect class="cls-3" x="265.62" y="371.04" width="6.37" height="10.97"/><rect class="cls-3" x="274.87" y="371.04" width="6.37" height="10.97"/><rect class="cls-3" x="284.12" y="371.04" width="6.37" height="10.97"/><rect class="cls-3" x="293.37" y="371.04" width="6.37" height="10.97"/><rect class="cls-3" x="302.62" y="371.04" width="6.37" height="10.97"/><rect class="cls-3" x="256.36" y="384.75" width="6.37" height="10.97"/><rect class="cls-3" x="265.62" y="384.75" width="6.37" height="10.97"/><rect class="cls-3" x="274.87" y="384.75" width="6.37" height="10.97"/><rect class="cls-3" x="284.12" y="384.75" width="6.37" height="10.97"/><rect class="cls-3" x="293.37" y="384.75" width="6.37" height="10.97"/><rect class="cls-3" x="302.62" y="384.75" width="6.37" height="10.97"/><rect class="cls-3" x="256.36" y="398.47" width="6.37" height="10.97"/><rect class="cls-3" x="265.62" y="398.47" width="6.37" height="10.97"/><rect class="cls-3" x="274.87" y="398.47" width="6.37" height="10.97"/><rect class="cls-3" x="284.12" y="398.47" width="6.37" height="10.97"/><rect class="cls-3" x="293.37" y="398.47" width="6.37" height="10.97"/><rect class="cls-3" x="302.62" y="398.47" width="6.37" height="10.97"/><rect class="cls-3" x="256.36" y="412.19" width="6.37" height="10.97"/><rect class="cls-3" x="265.62" y="412.19" width="6.37" height="10.97"/><rect class="cls-3" x="274.87" y="412.19" width="6.37" height="10.97"/><rect class="cls-3" x="284.12" y="412.19" width="6.37" height="10.97"/><rect class="cls-3" x="293.37" y="412.19" width="6.37" height="10.97"/><rect class="cls-3" x="302.62" y="412.19" width="6.37" height="10.97"/><rect class="cls-3" x="256.36" y="425.91" width="6.37" height="10.97"/><rect class="cls-3" x="265.62" y="425.91" width="6.37" height="10.97"/><rect class="cls-3" x="274.87" y="425.91" width="6.37" height="10.97"/><rect class="cls-3" x="284.12" y="425.91" width="6.37" height="10.97"/><rect class="cls-3" x="293.37" y="425.91" width="6.37" height="10.97"/><rect class="cls-3" x="302.62" y="425.91" width="6.37" height="10.97"/><rect class="cls-3" x="256.36" y="439.63" width="6.37" height="10.97"/><rect class="cls-3" x="265.62" y="439.63" width="6.37" height="10.97"/><rect class="cls-3" x="274.87" y="439.63" width="6.37" height="10.97"/><rect class="cls-3" x="284.12" y="439.63" width="6.37" height="10.97"/><rect class="cls-3" x="293.37" y="439.63" width="6.37" height="10.97"/><rect class="cls-3" x="302.62" y="439.63" width="6.37" height="10.97"/><rect class="cls-8" x="213.37" y="339.63" width="59.72" height="199.46"/><rect class="cls-3" x="216.92" y="347.98" width="6.37" height="10.97"/><rect class="cls-3" x="226.17" y="347.98" width="6.37" height="10.97"/><rect class="cls-3" x="235.43" y="347.98" width="6.37" height="10.97"/><rect class="cls-3" x="244.68" y="347.98" width="6.37" height="10.97"/><rect class="cls-4" x="253.93" y="347.98" width="6.37" height="10.97"/><rect class="cls-3" x="263.18" y="347.98" width="6.37" height="10.97"/><rect class="cls-3" x="216.92" y="361.7" width="6.37" height="10.97"/><rect class="cls-3" x="226.17" y="361.7" width="6.37" height="10.97"/><rect class="cls-3" x="235.43" y="361.7" width="6.37" height="10.97"/><rect class="cls-4" x="244.68" y="361.7" width="6.37" height="10.97"/><rect class="cls-3" x="253.93" y="361.7" width="6.37" height="10.97"/><rect class="cls-3" x="263.18" y="361.7" width="6.37" height="10.97"/><rect class="cls-3" x="216.92" y="375.42" width="6.37" height="10.97"/><rect class="cls-3" x="226.17" y="375.42" width="6.37" height="10.97"/><rect class="cls-3" x="235.43" y="375.42" width="6.37" height="10.97"/><rect class="cls-3" x="244.68" y="375.42" width="6.37" height="10.97"/><rect class="cls-3" x="253.93" y="375.42" width="6.37" height="10.97"/><rect class="cls-3" x="263.18" y="375.42" width="6.37" height="10.97"/><rect class="cls-3" x="216.92" y="389.14" width="6.37" height="10.97"/><rect class="cls-3" x="226.17" y="389.14" width="6.37" height="10.97"/><rect class="cls-3" x="235.43" y="389.14" width="6.37" height="10.97"/><rect class="cls-3" x="244.68" y="389.14" width="6.37" height="10.97"/><rect class="cls-3" x="253.93" y="389.14" width="6.37" height="10.97"/><rect class="cls-3" x="263.18" y="389.14" width="6.37" height="10.97"/><rect class="cls-3" x="216.92" y="402.86" width="6.37" height="10.97"/><rect class="cls-3" x="226.17" y="402.86" width="6.37" height="10.97"/><rect class="cls-3" x="235.43" y="402.86" width="6.37" height="10.97"/><rect class="cls-3" x="244.68" y="402.86" width="6.37" height="10.97"/><rect class="cls-3" x="253.93" y="402.86" width="6.37" height="10.97"/><rect class="cls-3" x="263.18" y="402.86" width="6.37" height="10.97"/><rect class="cls-3" x="216.92" y="416.58" width="6.37" height="10.97"/><rect class="cls-3" x="226.17" y="416.58" width="6.37" height="10.97"/><rect class="cls-3" x="235.43" y="416.58" width="6.37" height="10.97"/><rect class="cls-3" x="244.68" y="416.58" width="6.37" height="10.97"/><rect class="cls-3" x="253.93" y="416.58" width="6.37" height="10.97"/><rect class="cls-3" x="263.18" y="416.58" width="6.37" height="10.97"/><rect class="cls-3" x="216.92" y="430.3" width="6.37" height="10.97"/><rect class="cls-3" x="226.17" y="430.3" width="6.37" height="10.97"/><rect class="cls-3" x="235.43" y="430.3" width="6.37" height="10.97"/><rect class="cls-3" x="244.68" y="430.3" width="6.37" height="10.97"/><rect class="cls-3" x="253.93" y="430.3" width="6.37" height="10.97"/><rect class="cls-3" x="263.18" y="430.3" width="6.37" height="10.97"/><rect class="cls-3" x="216.92" y="444.01" width="6.37" height="10.97"/><rect class="cls-3" x="226.17" y="444.01" width="6.37" height="10.97"/><rect class="cls-3" x="235.43" y="444.01" width="6.37" height="10.97"/><rect class="cls-3" x="244.68" y="444.01" width="6.37" height="10.97"/><rect class="cls-3" x="253.93" y="444.01" width="6.37" height="10.97"/><rect class="cls-3" x="263.18" y="444.01" width="6.37" height="10.97"/><rect class="cls-3" x="216.92" y="457.73" width="6.37" height="10.97"/><rect class="cls-3" x="226.17" y="457.73" width="6.37" height="10.97"/><rect class="cls-3" x="235.43" y="457.73" width="6.37" height="10.97"/><rect class="cls-3" x="244.68" y="457.73" width="6.37" height="10.97"/><rect class="cls-3" x="253.93" y="457.73" width="6.37" height="10.97"/><rect class="cls-3" x="263.18" y="457.73" width="6.37" height="10.97"/><rect class="cls-3" x="216.92" y="471.45" width="6.37" height="10.97"/><rect class="cls-3" x="226.17" y="471.45" width="6.37" height="10.97"/><rect class="cls-3" x="235.43" y="471.45" width="6.37" height="10.97"/><rect class="cls-3" x="244.68" y="471.45" width="6.37" height="10.97"/><rect class="cls-3" x="253.93" y="471.45" width="6.37" height="10.97"/><rect class="cls-3" x="263.18" y="471.45" width="6.37" height="10.97"/><rect class="cls-3" x="216.92" y="485.17" width="6.37" height="10.97"/><rect class="cls-3" x="226.17" y="485.17" width="6.37" height="10.97"/><rect class="cls-3" x="235.43" y="485.17" width="6.37" height="10.97"/><rect class="cls-3" x="244.68" y="485.17" width="6.37" height="10.97"/><rect class="cls-3" x="253.93" y="485.17" width="6.37" height="10.97"/><rect class="cls-3" x="263.18" y="485.17" width="6.37" height="10.97"/></g><g class="cls-9"><rect class="cls-8" x="488.94" y="299.57" width="59.72" height="199.46"/><rect class="cls-3" x="492.48" y="307.93" width="6.37" height="10.97"/><rect class="cls-3" x="501.74" y="307.93" width="6.37" height="10.97"/><rect class="cls-3" x="510.99" y="307.93" width="6.37" height="10.97"/><rect class="cls-4" x="520.24" y="307.93" width="6.37" height="10.97"/><rect class="cls-3" x="529.49" y="307.93" width="6.37" height="10.97"/><rect class="cls-3" x="538.74" y="307.93" width="6.37" height="10.97"/><rect class="cls-3" x="492.48" y="321.65" width="6.37" height="10.97"/><rect class="cls-4" x="501.74" y="321.65" width="6.37" height="10.97"/><rect class="cls-3" x="510.99" y="321.65" width="6.37" height="10.97"/><rect class="cls-3" x="520.24" y="321.65" width="6.37" height="10.97"/><rect class="cls-3" x="529.49" y="321.65" width="6.37" height="10.97"/><rect class="cls-3" x="538.74" y="321.65" width="6.37" height="10.97"/><rect class="cls-3" x="492.48" y="335.36" width="6.37" height="10.97"/><rect class="cls-3" x="501.74" y="335.36" width="6.37" height="10.97"/><rect class="cls-3" x="510.99" y="335.36" width="6.37" height="10.97"/><rect class="cls-3" x="520.24" y="335.36" width="6.37" height="10.97"/><rect class="cls-3" x="529.49" y="335.36" width="6.37" height="10.97"/><rect class="cls-3" x="538.74" y="335.36" width="6.37" height="10.97"/><rect class="cls-3" x="492.48" y="349.08" width="6.37" height="10.97"/><rect class="cls-3" x="501.74" y="349.08" width="6.37" height="10.97"/><rect class="cls-3" x="510.99" y="349.08" width="6.37" height="10.97"/><rect class="cls-3" x="520.24" y="349.08" width="6.37" height="10.97"/><rect class="cls-3" x="529.49" y="349.08" width="6.37" height="10.97"/><rect class="cls-3" x="538.74" y="349.08" width="6.37" height="10.97"/><rect class="cls-3" x="492.48" y="362.8" width="6.37" height="10.97"/><rect class="cls-3" x="501.74" y="362.8" width="6.37" height="10.97"/><rect class="cls-3" x="510.99" y="362.8" width="6.37" height="10.97"/><rect class="cls-3" x="520.24" y="362.8" width="6.37" height="10.97"/><rect class="cls-3" x="529.49" y="362.8" width="6.37" height="10.97"/><rect class="cls-3" x="538.74" y="362.8" width="6.37" height="10.97"/><rect class="cls-3" x="492.48" y="376.52" width="6.37" height="10.97"/><rect class="cls-3" x="501.74" y="376.52" width="6.37" height="10.97"/><rect class="cls-3" x="510.99" y="376.52" width="6.37" height="10.97"/><rect class="cls-3" x="520.24" y="376.52" width="6.37" height="10.97"/><rect class="cls-3" x="529.49" y="376.52" width="6.37" height="10.97"/><rect class="cls-3" x="538.74" y="376.52" width="6.37" height="10.97"/><rect class="cls-3" x="492.48" y="390.24" width="6.37" height="10.97"/><rect class="cls-3" x="501.74" y="390.24" width="6.37" height="10.97"/><rect class="cls-3" x="510.99" y="390.24" width="6.37" height="10.97"/><rect class="cls-3" x="520.24" y="390.24" width="6.37" height="10.97"/><rect class="cls-3" x="529.49" y="390.24" width="6.37" height="10.97"/><rect class="cls-3" x="538.74" y="390.24" width="6.37" height="10.97"/><rect class="cls-3" x="492.48" y="403.96" width="6.37" height="10.97"/><rect class="cls-3" x="501.74" y="403.96" width="6.37" height="10.97"/><rect class="cls-3" x="510.99" y="403.96" width="6.37" height="10.97"/><rect class="cls-3" x="520.24" y="403.96" width="6.37" height="10.97"/><rect class="cls-3" x="529.49" y="403.96" width="6.37" height="10.97"/><rect class="cls-3" x="538.74" y="403.96" width="6.37" height="10.97"/><rect class="cls-3" x="492.48" y="417.67" width="6.37" height="10.97"/><rect class="cls-3" x="501.74" y="417.67" width="6.37" height="10.97"/><rect class="cls-3" x="510.99" y="417.67" width="6.37" height="10.97"/><rect class="cls-3" x="520.24" y="417.67" width="6.37" height="10.97"/><rect class="cls-3" x="529.49" y="417.67" width="6.37" height="10.97"/><rect class="cls-3" x="538.74" y="417.67" width="6.37" height="10.97"/><rect class="cls-3" x="492.48" y="431.39" width="6.37" height="10.97"/><rect class="cls-3" x="501.74" y="431.39" width="6.37" height="10.97"/><rect class="cls-3" x="510.99" y="431.39" width="6.37" height="10.97"/><rect class="cls-3" x="520.24" y="431.39" width="6.37" height="10.97"/><rect class="cls-3" x="529.49" y="431.39" width="6.37" height="10.97"/><rect class="cls-3" x="538.74" y="431.39" width="6.37" height="10.97"/><rect class="cls-3" x="492.48" y="445.11" width="6.37" height="10.97"/><rect class="cls-3" x="501.74" y="445.11" width="6.37" height="10.97"/><rect class="cls-3" x="510.99" y="445.11" width="6.37" height="10.97"/><rect class="cls-3" x="520.24" y="445.11" width="6.37" height="10.97"/><rect class="cls-3" x="529.49" y="445.11" width="6.37" height="10.97"/><rect class="cls-3" x="538.74" y="445.11" width="6.37" height="10.97"/><rect class="cls-8" x="451.93" y="333.59" width="59.72" height="199.46"/><rect class="cls-3" x="455.48" y="341.95" width="6.37" height="10.97"/><rect class="cls-3" x="464.73" y="341.95" width="6.37" height="10.97"/><rect class="cls-3" x="473.98" y="341.95" width="6.37" height="10.97"/><rect class="cls-3" x="483.23" y="341.95" width="6.37" height="10.97"/><rect class="cls-3" x="492.48" y="341.95" width="6.37" height="10.97"/><rect class="cls-3" x="501.74" y="341.95" width="6.37" height="10.97"/><rect class="cls-3" x="455.48" y="355.67" width="6.37" height="10.97"/><rect class="cls-3" x="464.73" y="355.67" width="6.37" height="10.97"/><rect class="cls-3" x="473.98" y="355.67" width="6.37" height="10.97"/><rect class="cls-3" x="483.23" y="355.67" width="6.37" height="10.97"/><rect class="cls-3" x="492.48" y="355.67" width="6.37" height="10.97"/><rect class="cls-3" x="501.74" y="355.67" width="6.37" height="10.97"/><rect class="cls-3" x="455.48" y="369.38" width="6.37" height="10.97"/><rect class="cls-3" x="464.73" y="369.38" width="6.37" height="10.97"/><rect class="cls-3" x="473.98" y="369.38" width="6.37" height="10.97"/><rect class="cls-3" x="483.23" y="369.38" width="6.37" height="10.97"/><rect class="cls-4" x="492.48" y="369.38" width="6.37" height="10.97"/><rect class="cls-3" x="501.74" y="369.38" width="6.37" height="10.97"/><rect class="cls-3" x="455.48" y="383.1" width="6.37" height="10.97"/><rect class="cls-3" x="464.73" y="383.1" width="6.37" height="10.97"/><rect class="cls-3" x="473.98" y="383.1" width="6.37" height="10.97"/><rect class="cls-3" x="483.23" y="383.1" width="6.37" height="10.97"/><rect class="cls-3" x="492.48" y="383.1" width="6.37" height="10.97"/><rect class="cls-3" x="501.74" y="383.1" width="6.37" height="10.97"/><rect class="cls-3" x="455.48" y="396.82" width="6.37" height="10.97"/><rect class="cls-3" x="464.73" y="396.82" width="6.37" height="10.97"/><rect class="cls-3" x="473.98" y="396.82" width="6.37" height="10.97"/><rect class="cls-3" x="483.23" y="396.82" width="6.37" height="10.97"/><rect class="cls-3" x="492.48" y="396.82" width="6.37" height="10.97"/><rect class="cls-3" x="501.74" y="396.82" width="6.37" height="10.97"/><rect class="cls-3" x="455.48" y="410.54" width="6.37" height="10.97"/><rect class="cls-3" x="464.73" y="410.54" width="6.37" height="10.97"/><rect class="cls-3" x="473.98" y="410.54" width="6.37" height="10.97"/><rect class="cls-3" x="483.23" y="410.54" width="6.37" height="10.97"/><rect class="cls-3" x="492.48" y="410.54" width="6.37" height="10.97"/><rect class="cls-3" x="501.74" y="410.54" width="6.37" height="10.97"/><rect class="cls-3" x="455.48" y="424.26" width="6.37" height="10.97"/><rect class="cls-3" x="464.73" y="424.26" width="6.37" height="10.97"/><rect class="cls-3" x="473.98" y="424.26" width="6.37" height="10.97"/><rect class="cls-3" x="483.23" y="424.26" width="6.37" height="10.97"/><rect class="cls-3" x="492.48" y="424.26" width="6.37" height="10.97"/><rect class="cls-3" x="501.74" y="424.26" width="6.37" height="10.97"/><rect class="cls-3" x="455.48" y="437.98" width="6.37" height="10.97"/><rect class="cls-3" x="464.73" y="437.98" width="6.37" height="10.97"/><rect class="cls-3" x="473.98" y="437.98" width="6.37" height="10.97"/><rect class="cls-3" x="483.23" y="437.98" width="6.37" height="10.97"/><rect class="cls-3" x="492.48" y="437.98" width="6.37" height="10.97"/><rect class="cls-3" x="501.74" y="437.98" width="6.37" height="10.97"/><rect class="cls-3" x="455.48" y="451.7" width="6.37" height="10.97"/><rect class="cls-3" x="464.73" y="451.7" width="6.37" height="10.97"/><rect class="cls-3" x="473.98" y="451.7" width="6.37" height="10.97"/><rect class="cls-3" x="483.23" y="451.7" width="6.37" height="10.97"/><rect class="cls-3" x="492.48" y="451.7" width="6.37" height="10.97"/><rect class="cls-3" x="501.74" y="451.7" width="6.37" height="10.97"/><rect class="cls-3" x="455.48" y="465.41" width="6.37" height="10.97"/><rect class="cls-3" x="464.73" y="465.41" width="6.37" height="10.97"/><rect class="cls-3" x="473.98" y="465.41" width="6.37" height="10.97"/><rect class="cls-3" x="483.23" y="465.41" width="6.37" height="10.97"/><rect class="cls-3" x="492.48" y="465.41" width="6.37" height="10.97"/><rect class="cls-3" x="501.74" y="465.41" width="6.37" height="10.97"/><rect class="cls-3" x="455.48" y="479.13" width="6.37" height="10.97"/><rect class="cls-3" x="464.73" y="479.13" width="6.37" height="10.97"/><rect class="cls-3" x="473.98" y="479.13" width="6.37" height="10.97"/><rect class="cls-3" x="483.23" y="479.13" width="6.37" height="10.97"/><rect class="cls-3" x="492.48" y="479.13" width="6.37" height="10.97"/><rect class="cls-3" x="501.74" y="479.13" width="6.37" height="10.97"/><rect class="cls-8" x="370.13" y="298.74" width="59.72" height="199.46"/><rect class="cls-3" x="373.68" y="307.1" width="6.37" height="10.97"/><rect class="cls-3" x="382.93" y="307.1" width="6.37" height="10.97"/><rect class="cls-3" x="392.19" y="307.1" width="6.37" height="10.97"/><rect class="cls-3" x="401.44" y="307.1" width="6.37" height="10.97"/><rect class="cls-4" x="410.69" y="307.1" width="6.37" height="10.97"/><rect class="cls-3" x="419.94" y="307.1" width="6.37" height="10.97"/><rect class="cls-3" x="373.68" y="320.82" width="6.37" height="10.97"/><rect class="cls-3" x="382.93" y="320.82" width="6.37" height="10.97"/><rect class="cls-3" x="392.19" y="320.82" width="6.37" height="10.97"/><rect class="cls-3" x="401.44" y="320.82" width="6.37" height="10.97"/><rect class="cls-3" x="410.69" y="320.82" width="6.37" height="10.97"/><rect class="cls-4" x="419.94" y="320.82" width="6.37" height="10.97"/><rect class="cls-3" x="373.68" y="334.54" width="6.37" height="10.97"/><rect class="cls-3" x="382.93" y="334.54" width="6.37" height="10.97"/><rect class="cls-3" x="392.19" y="334.54" width="6.37" height="10.97"/><rect class="cls-3" x="401.44" y="334.54" width="6.37" height="10.97"/><rect class="cls-3" x="410.69" y="334.54" width="6.37" height="10.97"/><rect class="cls-4" x="419.94" y="334.54" width="6.37" height="10.97"/><rect class="cls-3" x="373.68" y="348.26" width="6.37" height="10.97"/><rect class="cls-3" x="382.93" y="348.26" width="6.37" height="10.97"/><rect class="cls-3" x="392.19" y="348.26" width="6.37" height="10.97"/><rect class="cls-3" x="401.44" y="348.26" width="6.37" height="10.97"/><rect class="cls-3" x="410.69" y="348.26" width="6.37" height="10.97"/><rect class="cls-3" x="419.94" y="348.26" width="6.37" height="10.97"/><rect class="cls-3" x="373.68" y="361.98" width="6.37" height="10.97"/><rect class="cls-3" x="382.93" y="361.98" width="6.37" height="10.97"/><rect class="cls-3" x="392.19" y="361.98" width="6.37" height="10.97"/><rect class="cls-3" x="401.44" y="361.98" width="6.37" height="10.97"/><rect class="cls-3" x="410.69" y="361.98" width="6.37" height="10.97"/><rect class="cls-3" x="419.94" y="361.98" width="6.37" height="10.97"/><rect class="cls-3" x="373.68" y="375.7" width="6.37" height="10.97"/><rect class="cls-3" x="382.93" y="375.7" width="6.37" height="10.97"/><rect class="cls-3" x="392.19" y="375.7" width="6.37" height="10.97"/><rect class="cls-3" x="401.44" y="375.7" width="6.37" height="10.97"/><rect class="cls-3" x="410.69" y="375.7" width="6.37" height="10.97"/><rect class="cls-3" x="419.94" y="375.7" width="6.37" height="10.97"/><rect class="cls-3" x="373.68" y="389.41" width="6.37" height="10.97"/><rect class="cls-3" x="382.93" y="389.41" width="6.37" height="10.97"/><rect class="cls-3" x="392.19" y="389.41" width="6.37" height="10.97"/><rect class="cls-3" x="401.44" y="389.41" width="6.37" height="10.97"/><rect class="cls-3" x="410.69" y="389.41" width="6.37" height="10.97"/><rect class="cls-3" x="419.94" y="389.41" width="6.37" height="10.97"/><rect class="cls-3" x="373.68" y="403.13" width="6.37" height="10.97"/><rect class="cls-3" x="382.93" y="403.13" width="6.37" height="10.97"/><rect class="cls-3" x="392.19" y="403.13" width="6.37" height="10.97"/><rect class="cls-3" x="401.44" y="403.13" width="6.37" height="10.97"/><rect class="cls-3" x="410.69" y="403.13" width="6.37" height="10.97"/><rect class="cls-3" x="419.94" y="403.13" width="6.37" height="10.97"/><rect class="cls-3" x="373.68" y="416.85" width="6.37" height="10.97"/><rect class="cls-3" x="382.93" y="416.85" width="6.37" height="10.97"/><rect class="cls-3" x="392.19" y="416.85" width="6.37" height="10.97"/><rect class="cls-3" x="401.44" y="416.85" width="6.37" height="10.97"/><rect class="cls-3" x="410.69" y="416.85" width="6.37" height="10.97"/><rect class="cls-3" x="419.94" y="416.85" width="6.37" height="10.97"/><rect class="cls-3" x="373.68" y="430.57" width="6.37" height="10.97"/><rect class="cls-3" x="382.93" y="430.57" width="6.37" height="10.97"/><rect class="cls-3" x="392.19" y="430.57" width="6.37" height="10.97"/><rect class="cls-3" x="401.44" y="430.57" width="6.37" height="10.97"/><rect class="cls-3" x="410.69" y="430.57" width="6.37" height="10.97"/><rect class="cls-3" x="419.94" y="430.57" width="6.37" height="10.97"/><rect class="cls-3" x="373.68" y="444.29" width="6.37" height="10.97"/><rect class="cls-3" x="382.93" y="444.29" width="6.37" height="10.97"/><rect class="cls-3" x="392.19" y="444.29" width="6.37" height="10.97"/><rect class="cls-3" x="401.44" y="444.29" width="6.37" height="10.97"/><rect class="cls-3" x="410.69" y="444.29" width="6.37" height="10.97"/><rect class="cls-3" x="419.94" y="444.29" width="6.37" height="10.97"/></g><polygon class="cls-10" points="187.38 484.27 199.47 484.27 228.65 271.6 216.56 271.6 187.38 484.27"/><polygon class="cls-10" points="55.66 484.27 67.75 484.27 96.93 271.6 84.84 271.6 55.66 484.27"/><rect class="cls-11" x="285.96" y="251.05" width="189.61" height="20.55" rx="5.84"/><polygon class="cls-12" points="312.48 205.44 348.1 205.44 365.42 251.04 329.8 251.04 312.48 205.44"/><rect class="cls-13" x="239.58" y="241.55" width="104.49" height="9.49" rx="4.44"/><path class="cls-12" d="M422.38,123.09H278.18a6,6,0,0,0-5.82,5.22l-11.21,97.55a4.57,4.57,0,0,0,4.63,5.23H410a6,6,0,0,0,5.83-5.23L427,128.31A4.56,4.56,0,0,0,422.38,123.09Z"/><path class="cls-13" d="M397.59,231.09H253.39a4.57,4.57,0,0,1-4.62-5.23L260,128.31a6,6,0,0,1,5.83-5.22H410a4.56,4.56,0,0,1,4.62,5.22l-11.2,97.55A6,6,0,0,1,397.59,231.09Z"/><polygon class="cls-14" points="254.86 225.09 265.88 129.09 408.53 129.09 397.5 225.09 254.86 225.09"/><path class="cls-12" d="M381.2,157.54H287.73a1.58,1.58,0,0,1-1.6-1.81h0a2.08,2.08,0,0,1,2-1.8h93.46a1.57,1.57,0,0,1,1.6,1.8h0A2.07,2.07,0,0,1,381.2,157.54Z"/><path class="cls-12" d="M379.5,172.36H286a1.58,1.58,0,0,1-1.6-1.81h0a2.09,2.09,0,0,1,2-1.81h93.46a1.58,1.58,0,0,1,1.6,1.81h0A2.08,2.08,0,0,1,379.5,172.36Z"/><path class="cls-13" d="M377.79,187.17H284.33a1.57,1.57,0,0,1-1.6-1.8h0a2.08,2.08,0,0,1,2-1.81h93.47a1.58,1.58,0,0,1,1.6,1.81h0A2.08,2.08,0,0,1,377.79,187.17Z"/><path class="cls-13" d="M335.25,202H282.63a1.57,1.57,0,0,1-1.6-1.8h0a2.08,2.08,0,0,1,2-1.81h52.63a1.58,1.58,0,0,1,1.59,1.81h0A2.07,2.07,0,0,1,335.25,202Z"/><rect class="cls-15" x="146.32" y="251.05" width="189.61" height="20.55" rx="5.84"/><path class="cls-5" d="M198,465.38c0,.17,0,.35,0,.52a7.33,7.33,0,0,1-7.31,6.8H131.06a7.32,7.32,0,0,1-7.21-8.58l1-5.72,2.51-14.3h49.74l18.34,15.73a7.18,7.18,0,0,1,1.88,2.5A7.25,7.25,0,0,1,198,465.38Z"/><path class="cls-16" d="M198,465.9a7.33,7.33,0,0,1-7.31,6.8H131.06a7.32,7.32,0,0,1-7.21-8.58l1-5.72h23.58a9,9,0,0,1,6.38,2.64l2.22,2.22a9,9,0,0,0,6.37,2.64Z"/><path class="cls-12" d="M67.36,493.7h0a3.91,3.91,0,0,1-2.52-6.9l31.54-26.65H108.5L69.88,492.78A3.93,3.93,0,0,1,67.36,493.7Z"/><path class="cls-12" d="M155.76,493.7h0a3.91,3.91,0,0,0,2.52-6.9l-31.54-26.65H114.62l38.61,32.63A4,4,0,0,0,155.76,493.7Z"/><path class="cls-16" d="M125.39,301.12,143.31,307a39.52,39.52,0,0,1,35.15,39.74l-1.15,81H127.06L125.41,360H90a37.76,37.76,0,0,1-37.36-43.21l2.78-19"/><path class="cls-17" d="M81.92,290.9c-2.8,43.77,1.85,39.08,32.35,40.65s32.71-2.82,32.4,15-1.56,68.68,0,72.75"/><path class="cls-18" d="M125.41,360s15.17,1.56,25.17-2.5"/><path class="cls-19" d="M222.64,233a83.66,83.66,0,0,1-13.2,13c-1.09.87-2.17,1.71-3.25,2.51a132.55,132.55,0,0,1-15.95,10.11c-.88.47-1.66.88-2.35,1.23l-9.42-12.75.65,28.37.11,4.33.15,6.34.34,14.94H63.42l2.46-31.48.33-4.25,1.68-21.57.36-4.5,1.42-18.24-19.8-6.25,9.52-21.34c.47-1,1-2.07,1.53-3.05a37.09,37.09,0,0,1,2.28-3.6A38.39,38.39,0,0,1,82.67,172.6c1-.33,2-.62,3.09-.86l3.52-.81h0l24-5.6,27.27,1.91,2.38.17,2.3.67,19.45,5.62,3.87,1.13,8.54,2.47a38.43,38.43,0,0,1,22.22,17.07l1.46,2.43,2.26,3.73,10.86,18.05,2.12,3.52Z"/><path class="cls-16" d="M179.72,301.12H129l-6-14.91c0-.12,36.67-.06,56.43,0Z"/><path class="cls-20" d="M141.93,279.86a23,23,0,0,0-10.06,14.36,35.92,35.92,0,0,0-1,6.9h-4a37.4,37.4,0,0,1,1.81-10.45,26.84,26.84,0,0,1,12.12-14.85,35.67,35.67,0,0,1,19.05-4.5,61.59,61.59,0,0,1,19.26,4.19l.1,4.33"/><path class="cls-20" d="M143.7,192.85a31.27,31.27,0,0,1-8.17,10.5c-4,3.32-8.88,5.56-14.18,4.44-10.73-2.26-14.47-13.75-20.06-21.65A36.9,36.9,0,0,0,82.67,172.6c1-.33,2-.61,3.09-.86l3.52-.81s0,0,0,0a41.34,41.34,0,0,1,15.39,13c5,6.94,8.27,17.93,17.74,19.93,4.4.92,8.53-1.72,11.61-4.59a28.18,28.18,0,0,0,6.82-9.94,27.82,27.82,0,0,0-.26-22.13l2.39.17,2.3.67A32.27,32.27,0,0,1,143.7,192.85Z"/><path class="cls-20" d="M109.61,282.81a89.19,89.19,0,0,1-2.72,18.31h-4.16a85,85,0,0,0,2.92-22c0-8-.38-17.43-6.94-23S83,249.67,75.07,247a38.91,38.91,0,0,1-7.18-3.22l.36-4.49c4.29,2.93,9.85,4.49,14.58,5.72,8.2,2.14,17.08,4.66,22.2,12,2.57,3.68,3.57,8.16,4.12,12.54A81.32,81.32,0,0,1,109.61,282.81Z"/><path class="cls-20" d="M81.72,284.51c0,2.49-.07,5-.24,7.47a57.25,57.25,0,0,1-1.27,9.14H76.1a53.38,53.38,0,0,0,1.45-11.06c.1-2.29.12-4.59.15-6.9a18.94,18.94,0,0,0-.6-6.05c-1.23-3.72-5.8-5.06-9-6.49l-2.22-1,.34-4.25q3.35,1.47,6.66,3a19.16,19.16,0,0,1,5.42,3.34,10.8,10.8,0,0,1,3.1,5.92A37.76,37.76,0,0,1,81.72,284.51Z"/><path class="cls-21" d="M163.56,129.59c13.36-3.27,15.29-19.27,7.68-23.53-2.64-15.35-54.42-33.39-73.16,2.2s23.26,38.45,42.6,33.68,17.19-18.85,17.19-18.85"/><path class="cls-22" d="M165.65,141.72l-2.3,1.15-1.19,8.06a7.63,7.63,0,0,1-9.28,6.31l-7.56-1.76s-.35,4.73-.62,8.55c-.17,2.43-.32,4.5-.32,4.74,0,.62-9.06,6.87-19.38,5.11s-11.67-8.55-11.67-8.55l2.4-8.44s6.56,2.4,15.84-1.15a11.37,11.37,0,0,0,1.28-.58,13.15,13.15,0,0,0,3.22-2.25c5.23-4.89,6.08-12.74,6.08-12.74L148,130.7a28.19,28.19,0,0,0,1.83-7s12.77-6.48,16-8.78c-.31,6.15-1,15.57-1,16.71a40.19,40.19,0,0,0,2.26,6.32A3,3,0,0,1,165.65,141.72Z"/><path class="cls-23" d="M151.35,148.15s3.73-1.45,6.24.34"/><circle cx="157.87" cy="131.3" r="1.72"/><path class="cls-24" d="M156.16,125.26s3.23-1.93,5.05.26"/><circle class="cls-22" cx="140.68" cy="133.02" r="7.31"/><path class="cls-23" d="M139.73,135.46a3.54,3.54,0,0,0-.85-5.06"/><path class="cls-25" d="M145.32,155.48s-.35,4.73-.62,8.55c-6-.64-10-5.26-11.85-8.87a13.15,13.15,0,0,0,3.22-2.25A53.63,53.63,0,0,0,145.32,155.48Z"/><path class="cls-22" d="M327.28,243.54c-2.35,0-9.07-1.1-11.41,0s-17.51,11.1-17.51,11.1l-9.55,5.82c-1.86-6.6-7.91-16.13-12.75-21.55l.73-.21s12.82-13.76,19.07-15.79,32.2,7.65,35.32,12.81S329.62,243.54,327.28,243.54Z"/><path class="cls-19" d="M288.81,260.46,237,292.06a22.38,22.38,0,0,1-29.64-5.8l-19.48-26.37c6.84-3.49,23.76-13,34.75-26.87l10.85,18,42.57-12.13C280.9,244.33,287,253.86,288.81,260.46Z"/><path class="cls-26" d="M233.49,251.05s9.53,11.25,12.19,17.19"/><path class="cls-27" d="M108.51,168.74s1.56,8.91,17.51,10.09,21.56-7.2,21.56-7.2"/><path class="cls-26" d="M178.46,247.14s-11.42-13.64-14.07-20-2-19.39-2-19.39"/><path class="cls-26" d="M163.56,197.86c.63-7.08,4.59-10.11,4.59-10.11"/><path class="cls-21" d="M117,90.76c-35.17,16.08-32.85,44.08-31.17,65.11S67.63,189,72,222.32s55.36,41.94,71.61,17.68,3.09-55.68,0-71.26a99.51,99.51,0,0,1-1.48-28.57s-2,4.09-9.3,1.64"/><path class="cls-16" d="M267.47,346.69l-1,84.48H215.75L214.41,360H144.28a37.76,37.76,0,0,1-37.36-43.21l2.77-19L135.8,299l43.92,2.09L232.31,307A39.52,39.52,0,0,1,267.47,346.69Z"/><path class="cls-17" d="M136.25,290.9c-2.81,43.77,1.84,39.08,32.35,40.65s67.39-2.82,67.07,15-2.22,77-.66,81.08"/><path class="cls-18" d="M214.42,360s15.16,1.56,25.16-2.5"/><rect class="cls-12" x="103.22" y="375.59" width="16.67" height="80.83"/><rect class="cls-10" x="87.57" y="364.31" width="47.98" height="22.58" rx="7.34"/><path class="cls-13" d="M212.23,366.54h0a9,9,0,0,1-9,9H36.61a9.05,9.05,0,0,1-9-9V217.13a9.05,9.05,0,0,1,9.05-9h96.5a9,9,0,0,1,9,9V348.45a9.06,9.06,0,0,0,9,9.05h52A9,9,0,0,1,212.23,366.54Z"/><rect class="cls-13" x="94.05" y="450.83" width="35.01" height="11.19" rx="5.59"/><path class="cls-5" d="M310.55,476.63a7.53,7.53,0,0,1-.3,2.14,7.76,7.76,0,0,1-1.93,3.26,7.68,7.68,0,0,1-5.41,2.24h-83.4a7.64,7.64,0,0,1-7.56-8.76l1.15-7.86,3-20.12h49.63c8.63,6.81,31,17.7,40.49,22.19A7.63,7.63,0,0,1,310.55,476.63Z"/><polygon class="cls-16" points="266.5 431.17 266.31 447.54 216.06 447.54 215.75 431.17 266.5 431.17"/><polygon class="cls-16" points="177.29 427.74 177.1 444.1 127.38 444.1 127.07 427.74 177.29 427.74"/><path class="cls-16" d="M310.25,478.77a7.76,7.76,0,0,1-1.93,3.26,7.68,7.68,0,0,1-5.41,2.24h-83.4a7.64,7.64,0,0,1-7.56-8.76l1.15-7.86h21.64a7.82,7.82,0,0,1,4.21,1.22l7.23,4.59a7.9,7.9,0,0,0,3.68,1.2Z"/><path class="cls-3" d="M286,459.68c-2.35,1.76-12.72-1.36-16.89-4.54s-7.43-4.38-8-7.92-3.81-12,.15-12.92,8.33-1.82,8.49,2-.31,12.3.05,12.77S286,459.68,286,459.68Z"/><polygon class="cls-10" points="355.21 484.27 343.12 484.27 319.03 308.73 313.94 271.6 326.03 271.6 331.12 308.73 355.21 484.27"/><polygon class="cls-10" points="486.93 484.27 474.83 484.27 450.76 308.73 445.66 271.6 457.75 271.6 462.84 308.73 486.93 484.27"/><polygon class="cls-12" points="326.03 271.6 331.12 308.73 319.03 308.73 313.94 271.6 326.03 271.6"/><rect class="cls-13" x="405.67" y="229.1" width="55.37" height="21.95"/><rect class="cls-14" x="356.9" y="229.1" width="55.37" height="21.95"/><rect class="cls-12" x="412.27" y="241.49" width="48.77" height="0.84"/><rect class="cls-12" x="412.27" y="244.45" width="48.77" height="0.84"/><rect class="cls-12" x="412.27" y="238.52" width="48.77" height="0.84"/><rect class="cls-12" x="412.27" y="235.55" width="48.77" height="0.84"/><rect class="cls-12" x="412.27" y="232.58" width="48.77" height="0.84"/><rect class="cls-12" x="412.27" y="247.42" width="48.77" height="0.84"/><rect class="cls-13" x="356.9" y="232.58" width="55.37" height="0.84"/><rect class="cls-13" x="356.9" y="235.55" width="55.37" height="0.84"/><rect class="cls-13" x="356.9" y="238.52" width="55.37" height="0.84"/><rect class="cls-13" x="356.9" y="241.49" width="55.37" height="0.84"/><rect class="cls-13" x="356.9" y="244.45" width="55.37" height="0.84"/><rect class="cls-13" x="356.9" y="247.42" width="55.37" height="0.84"/><polygon class="cls-12" points="429.9 239.36 445.82 243.85 450.56 238.52 428.84 238.52 429.9 239.36"/><polygon class="cls-13" points="371.69 238.52 378.66 245.29 398.5 238.52 371.69 238.52"/><path class="cls-12" d="M473.18,472.12h-68.9a4.24,4.24,0,0,1-4.29-4.65l6.07-81.15a5.09,5.09,0,0,1,5-4.65H480a4.25,4.25,0,0,1,4.3,4.65l-6.08,81.15A5.08,5.08,0,0,1,473.18,472.12Z"/><path class="cls-12" d="M461.92,404.42H425.68a2.77,2.77,0,0,1-2.81-3h0a3.33,3.33,0,0,1,3.26-3h36.25a2.77,2.77,0,0,1,2.8,3h0A3.32,3.32,0,0,1,461.92,404.42Z"/><path class="cls-12" d="M460.85,418.81H424.6a2.77,2.77,0,0,1-2.8-3h0a3.31,3.31,0,0,1,3.25-3H461.3a2.77,2.77,0,0,1,2.8,3h0A3.32,3.32,0,0,1,460.85,418.81Z"/><path class="cls-12" d="M459.77,433.19H423.52a2.77,2.77,0,0,1-2.8-3h0a3.32,3.32,0,0,1,3.26-3h36.24a2.78,2.78,0,0,1,2.81,3h0A3.32,3.32,0,0,1,459.77,433.19Z"/><path class="cls-13" d="M454.41,458.84h-68.9a4.25,4.25,0,0,1-4.3-4.64L387.29,373a5.08,5.08,0,0,1,5-4.64h68.9a4.26,4.26,0,0,1,4.3,4.64L459.4,454.2A5.09,5.09,0,0,1,454.41,458.84Z"/><path class="cls-12" d="M443.15,391.14H406.9a2.77,2.77,0,0,1-2.8-3h0a3.32,3.32,0,0,1,3.26-3H443.6a2.78,2.78,0,0,1,2.81,3h0A3.32,3.32,0,0,1,443.15,391.14Z"/><path class="cls-12" d="M442.07,405.53H405.83a2.78,2.78,0,0,1-2.81-3h0a3.33,3.33,0,0,1,3.26-3h36.25a2.78,2.78,0,0,1,2.8,3h0A3.33,3.33,0,0,1,442.07,405.53Z"/><path class="cls-12" d="M441,419.91H404.75a2.77,2.77,0,0,1-2.8-3h0a3.32,3.32,0,0,1,3.25-3h36.25a2.77,2.77,0,0,1,2.8,3h0A3.31,3.31,0,0,1,441,419.91Z"/><path class="cls-2" d="M427.7,455.4h-55a3.39,3.39,0,0,1-3.43-3.71l4.85-64.79a4.06,4.06,0,0,1,4-3.71h55a3.4,3.4,0,0,1,3.43,3.71l-4.85,64.79A4.07,4.07,0,0,1,427.7,455.4Z"/><path class="cls-10" d="M418.71,401.35H389.78a2.21,2.21,0,0,1-2.24-2.41h0a2.65,2.65,0,0,1,2.6-2.42h28.94a2.21,2.21,0,0,1,2.23,2.42h0A2.64,2.64,0,0,1,418.71,401.35Z"/><path class="cls-10" d="M417.85,412.84H388.92a2.21,2.21,0,0,1-2.24-2.42h0a2.65,2.65,0,0,1,2.6-2.42h28.94a2.21,2.21,0,0,1,2.23,2.42h0A2.65,2.65,0,0,1,417.85,412.84Z"/><path class="cls-10" d="M417,424.32H388.06a2.21,2.21,0,0,1-2.24-2.42h0a2.65,2.65,0,0,1,2.6-2.42h28.94a2.21,2.21,0,0,1,2.23,2.42h0A2.65,2.65,0,0,1,417,424.32Z"/><rect class="cls-11" x="349.82" y="416.01" width="71.23" height="68.26"/><rect class="cls-15" x="421.05" y="416.01" width="78.19" height="68.26"/><rect class="cls-15" x="373.24" y="426.9" width="24.39" height="6.59" rx="3.3"/><path class="cls-28" d="M26.44,439c-6-11.41-2.41-41.36,1.67-51.17s10.81,38.23,7.33,52S26.44,439,26.44,439Z"/><path class="cls-29" d="M19.59,447.49C9.46,439.55.34,410.81,0,400.19s25.62,30.37,28.11,44.31S19.59,447.49,19.59,447.49Z"/><path class="cls-29" d="M33.86,443.58c-.18-12.87,16.46-38,24.52-44.94s-7.56,39-16.85,49.7S33.86,443.58,33.86,443.58Z"/><path class="cls-13" d="M51,437.12H13.16a4,4,0,0,0-3.95,4.59l6,39.16a4,4,0,0,0,4,3.4H45.06a4,4,0,0,0,3.94-3.4l6-39.16A4,4,0,0,0,51,437.12Z"/></g></g></svg>