<svg xmlns="http://www.w3.org/2000/svg" viewBox="0 0 884.86 542.51"><defs><style>.cls-1{fill:#eaf2ff;}.cls-2{fill:#fff;}.cls-3{fill:#cad8ed;}.cls-4{fill:#4ac2c0;}.cls-5{fill:#8ced60;}.cls-6{fill:#feaca2;}.cls-10,.cls-14,.cls-17,.cls-18,.cls-23,.cls-26,.cls-27,.cls-28,.cls-29,.cls-30,.cls-31,.cls-36,.cls-37,.cls-38,.cls-7,.cls-9{fill:none;}.cls-26,.cls-7{stroke:#e06a7e;}.cls-10,.cls-14,.cls-17,.cls-23,.cls-26,.cls-27,.cls-28,.cls-29,.cls-30,.cls-31,.cls-36,.cls-37,.cls-38,.cls-7,.cls-9{stroke-linecap:round;stroke-linejoin:round;}.cls-10,.cls-14,.cls-17,.cls-7,.cls-9{stroke-width:1.57px;}.cls-8{fill:#3f3563;}.cls-23,.cls-9{stroke:#9a93ba;opacity:0.15;}.cls-10,.cls-31{stroke:#1b1738;}.cls-11{fill:#9eb6d8;}.cls-12{fill:#6e42e8;}.cls-13{fill:#7c5ded;}.cls-14,.cls-29,.cls-38{stroke:#442aa0;}.cls-15{fill:#51005b;}.cls-16{fill:#e06a7e;}.cls-17,.cls-27{stroke:#51005b;}.cls-18,.cls-28,.cls-37{stroke:#fff;}.cls-18{stroke-miterlimit:10;}.cls-19{fill:#442aa0;}.cls-20{fill:#dce6f4;}.cls-21{fill:#486f98;}.cls-22{fill:#1b1738;}.cls-23,.cls-31,.cls-37,.cls-38{stroke-width:1.62px;}.cls-24{fill:#5e548e;}.cls-25{fill:#01abff;}.cls-26,.cls-27,.cls-28,.cls-29{stroke-width:1.5px;}.cls-30{stroke:#005f99;}.cls-30,.cls-36{stroke-width:2px;}.cls-32{fill:#ff7a13;}.cls-33{fill:#c93b0b;}.cls-34{fill:#ffb013;}.cls-35{fill:#ff6368;}.cls-36{stroke:#bb3654;}</style></defs><g id="Layer_2" data-name="Layer 2"><g id="Layer_2-2" data-name="Layer 2"><rect class="cls-1" x="469.68" y="17.3" width="189.98" height="400.52"/><rect class="cls-2" x="483.68" y="31.29" width="161.97" height="372.52"/><rect class="cls-1" x="694.88" y="17.3" width="189.98" height="400.52"/><rect class="cls-2" x="708.89" y="31.29" width="161.97" height="372.52"/><path class="cls-3" d="M261.79,2.23a7.62,7.62,0,0,0-13,5.38V18.19a7.62,7.62,0,1,0,15.23,0V7.61A7.58,7.58,0,0,0,261.79,2.23Zm-5.39,9.26a3.1,3.1,0,1,1,3.1-3.1A3.09,3.09,0,0,1,256.4,11.49Z"/><path class="cls-3" d="M399.83,2.23a7.62,7.62,0,0,0-13,5.38V18.19a7.62,7.62,0,1,0,15.23,0V7.61A7.58,7.58,0,0,0,399.83,2.23Zm-5.39,9.26a3.1,3.1,0,1,1,3.1-3.1A3.09,3.09,0,0,1,394.44,11.49Z"/><rect class="cls-3" x="196.85" y="14.65" width="245.93" height="248.19" rx="6.22"/><path class="cls-1" d="M454,20.87V256.61a6.23,6.23,0,0,1-6.23,6.23H214.29a6.22,6.22,0,0,1-6.22-6.23V20.87a6.22,6.22,0,0,1,6.22-6.23H447.78A6.23,6.23,0,0,1,454,20.87Z"/><rect class="cls-2" x="220.94" y="29.78" width="220.19" height="217.93" transform="translate(469.78 -192.29) rotate(90)"/><rect class="cls-3" x="252.6" y="63.5" width="144.94" height="10.92" rx="5.46"/><rect class="cls-3" x="252.6" y="97.11" width="144.94" height="10.92" rx="5.46"/><rect class="cls-3" x="252.6" y="130.72" width="144.94" height="10.92" rx="5.46"/><rect class="cls-3" x="252.6" y="164.34" width="144.94" height="10.92" rx="5.46"/><rect class="cls-3" x="284.28" y="197.95" width="81.57" height="10.92" rx="5.46"/><path class="cls-4" d="M302.83,497.39l-20.31-.69a77.52,77.52,0,0,1-.7-16.06s.26-80.26,4.13-85.42c3.58-4.78,11,68.7,12.12,79.88a.13.13,0,0,0,0,.06,11.21,11.21,0,0,0,.11,1.22s0,.05,0,.07,0,0,0,.06C299.09,481.57,301.38,490.55,302.83,497.39Z"/><path class="cls-5" d="M282.52,496.7l-13.34-.45c-8.39-17.55-20.33-76.81-14.75-71.25s27.39,55.64,27.39,55.64A77.52,77.52,0,0,0,282.52,496.7Z"/><path class="cls-5" d="M311,497.67l-8.16-.28c-1.45-6.84-3.74-15.82-4.62-20.88,0,0,21.29-67.23,26.19-67.1S315.11,488.12,311,497.67Z"/><path class="cls-3" d="M320.36,489h-59a5.06,5.06,0,0,0-4.84,6.55l7.66,24.85a20.22,20.22,0,0,0,19.32,14.25h14.73a20.21,20.21,0,0,0,19.31-14.25l7.66-24.85A5.06,5.06,0,0,0,320.36,489Z"/><path class="cls-6" d="M312.59,144.29l-46.94,66.32a21.1,21.1,0,0,1-33,1.79l-36.17-40.9,42.39-27.21L253,162.94l31.34-35.47V101.83a5.34,5.34,0,0,1,4.05-5.18h0a5.34,5.34,0,0,1,6.49,3.95l1.85,7.77s16.39-25.15,23-25.74S323.57,89,323.57,89s4.13-4.64,7.35-1.67,0,7.35,0,7.35,5.16-1.93,6.84.65-2.19,8-2.19,8,5.42-3.49,7.48.64S324.45,133.37,312.59,144.29Z"/><path class="cls-7" d="M253,162.94s-14.29,12-19.76,20.47"/><path class="cls-8" d="M86.72,219.08,37.56,487.75a4.69,4.69,0,0,0,4.62,5.51h47a4.67,4.67,0,0,0,4.54-3.55l52.62-209,4.76,207.93a4.7,4.7,0,0,0,4.69,4.59h50.82a4.68,4.68,0,0,0,4.68-4.69v-275l-56.08-13.28Z"/><line class="cls-9" x1="99.82" y1="229.66" x2="49.05" y2="484.13"/><path class="cls-9" d="M117.12,228.28c1.22,18-21.75,25.26-21.75,25.26"/><line class="cls-9" x1="158.84" y1="277.14" x2="164.68" y2="486.77"/><line class="cls-10" x1="146.34" y1="280.74" x2="166.41" y2="274.96"/><path class="cls-11" d="M0,527.31A7.72,7.72,0,0,0,7.71,535H65.82a2.16,2.16,0,0,0,1.52-.63l1.53-1.53a2.15,2.15,0,0,1,3,0l1.53,1.53A2.16,2.16,0,0,0,75,535h7.51a7.71,7.71,0,0,0,7.7-7.93l-.3-10.26-.69-23.56h0L40.63,493h0L3.08,521.14A7.7,7.7,0,0,0,0,527C0,527.1,0,527.21,0,527.31Z"/><path class="cls-11" d="M157.59,535h19.22a1.5,1.5,0,0,0,1-.43l2.21-2.21a1.46,1.46,0,0,1,2.08,0l2.21,2.21a1.5,1.5,0,0,0,1,.43h61.74a9.4,9.4,0,0,0,9.37-8.46,7.72,7.72,0,0,0,.05-1,9.42,9.42,0,0,0-4.88-8.26l-44.06-24.17-.31-.17H154.23l-4.84,25.35-1,5.48A9.41,9.41,0,0,0,157.59,535Z"/><path class="cls-12" d="M61.56,137.63l.15.61,4.41,18.14L69.43,170l.81,3.32,16.23,5.88.06,8.93.08,13.65.11,17.27H209.43a3.36,3.36,0,0,0,3.33-3.83l-1.9-13.44-1.93-13.65-2.21-15.67,3.92-2.46,21.75-13.65,10.33-6.48-7.44-11.66-8.69-13.64L217.29,110a39.32,39.32,0,0,0-24.43-17.2c-.47-.11-1-.21-1.43-.3l-32-6.07-36-3.82L93.26,92.82l-8.62,2.91a35.4,35.4,0,0,0-23.08,41.9Z"/><polygon class="cls-13" points="86.53 188.16 86.61 201.81 210.86 201.81 208.93 188.16 86.53 188.16"/><polygon class="cls-13" points="66.12 156.38 69.43 170.03 210.64 170.03 232.39 156.38 66.12 156.38"/><path class="cls-13" d="M61.56,137.63l.15.61H235.28l-8.69-13.64H60.87A35.32,35.32,0,0,0,61.56,137.63Z"/><path class="cls-13" d="M68.89,106.46H214.73a39.39,39.39,0,0,0-21.87-13.64H93.26l-8.62,2.91A35.22,35.22,0,0,0,68.89,106.46Z"/><line class="cls-14" x1="99.69" y1="155.41" x2="70.24" y2="165.08"/><line class="cls-14" x1="107.68" y1="148.12" x2="100.92" y2="116.51"/><path class="cls-15" d="M169.64,41.81c5.49-3.68,3.16-13.29,3.16-13.29s2.58,1.42,3.42,0-4.38-9-4.38-9,4.13-.51,4-3.16S165.45,4,142,6c-27.87,2.37-34.58,11.14-29.68,18.37-13.93,2.86-4.73,14.43-1.72,22.55s11.86,19,20.38,18.25"/><circle class="cls-6" cx="116.92" cy="51.74" r="9.24"/><path class="cls-6" d="M128.28,80.69c0,5.46,5.4,11.62,13.74,12.29,7.23.58,13-1.42,14.49-4.92a9.63,9.63,0,0,0,.54-1.65c1-4,1.15-10.38,2.37-16.46l-20-12-10.19-6.1C130.65,60.51,128.28,75.24,128.28,80.69Z"/><path class="cls-16" d="M130,66.47C142,79,150.08,86,156.51,88.06a9.63,9.63,0,0,0,.54-1.65c1-4,1.15-10.38,2.37-16.46l-20-12a66.34,66.34,0,0,0-8.81,1.16Z"/><path class="cls-6" d="M123.52,52.38v5.34a28.84,28.84,0,0,0,7.4,9.59c5.67,5,13.4,8.93,20.5,8.61,8.29-.37,14.57-4.8,17.52-10.22a14.72,14.72,0,0,0,1.84-6.22c.44-7.83,0-25,0-25,0-5.53-2.23-8.26-2.23-8.26-2,5.31-7.25,9-9.13,8.89s1.07-7,1.21-7.35A51,51,0,0,1,140,36.23c-12.79,2.32-11.22,2.23-11.67,3.87s-2.85,11.8-2.85,11.8C124.16,52.54,123.68,52.54,123.52,52.38Z"/><path class="cls-2" d="M150.25,64.19a1,1,0,0,1,.88,1.42,4.92,4.92,0,0,1-9.43-.87,1,1,0,0,1,1.12-1.24Z"/><path class="cls-16" d="M130.92,67.31c5.67,5,13.4,8.93,20.5,8.61,8.29-.37,14.57-4.8,17.52-10.22-4.68,1.88-21.05,8.38-23.28,8.42C143.09,74.17,137.72,60.56,130.92,67.31Z"/><path class="cls-6" d="M123.52,52.38V51.9S123.36,52.22,123.52,52.38Z"/><path class="cls-7" d="M117.48,55c.29-4.64-4.23-4.93-4.23-4.93"/><path class="cls-7" d="M150.81,46.43l4,7.06a1.36,1.36,0,0,1-.82,2l-3.84,1.06"/><circle cx="163.58" cy="50.24" r="2.08"/><circle cx="139.95" cy="50.24" r="2.08"/><path class="cls-17" d="M166.58,42.13a5.9,5.9,0,0,0-6.46-.07"/><path class="cls-17" d="M143.18,43a5.9,5.9,0,0,0-6.46,0"/><circle class="cls-18" cx="164.35" cy="52.31" r="8.08"/><circle class="cls-18" cx="139.95" cy="52.31" r="8.08"/><line class="cls-18" x1="156.91" y1="49.16" x2="147.21" y2="49.16"/><line class="cls-18" x1="132.27" y1="49.8" x2="126.16" y2="47.81"/><path class="cls-19" d="M129.21,71.7c1.64,6.58,17.8,15.79,17.42,16.36s-7.91,11-9.91,13S122.63,89.6,120.4,84.76,129.21,71.7,129.21,71.7Z"/><path class="cls-6" d="M90.85,166.67l44.94-80.11a3.42,3.42,0,0,0,0-3.34l-5.3-9.7a4.42,4.42,0,0,1,1.92-6.1h0A4.43,4.43,0,0,1,138,68.8l3.95,5.48a4.09,4.09,0,0,0,4.91,1.38l25.09-10.55a4.26,4.26,0,0,1,5.56,2.27h0a4.24,4.24,0,0,1-2,5.44l-7.71,3.92a1.72,1.72,0,0,0-.84,2.05L171.39,92a9.81,9.81,0,0,1-4.09,11.39L158,109.28l-32.61,84.86c-8.72,22.7-41.1,21.89-48.68-1.21l-6.42-19.58Z"/><line class="cls-14" x1="206.72" y1="172.49" x2="198.76" y2="115.57"/><line class="cls-14" x1="234.4" y1="143.21" x2="205.01" y2="160.25"/><path class="cls-7" d="M296.76,109.11a68.1,68.1,0,0,1,3.48,18.1"/><path class="cls-7" d="M323.57,89A131.46,131.46,0,0,1,311,105.34"/><path class="cls-7" d="M330.92,94.69c-4.16,8-11.71,15-11.71,15"/><path class="cls-7" d="M335.57,103.34a51.4,51.4,0,0,1-11.33,14.82"/><path class="cls-11" d="M532.29,214.14h85a3,3,0,0,1,2.94,3.78l-12.4,63a4.76,4.76,0,0,1-4.43,3.78h-85a3,3,0,0,1-2.93-3.78l12.4-63A4.77,4.77,0,0,1,532.29,214.14Z"/><path class="cls-20" d="M529,214.14h85a2.92,2.92,0,0,1,2.93,3.69l-12.4,61.35a4.72,4.72,0,0,1-4.42,3.68h-85a2.92,2.92,0,0,1-2.94-3.68l12.4-61.35A4.73,4.73,0,0,1,529,214.14Z"/><path class="cls-2" d="M612,218.85l-11,54.56H518.14l11-54.55H612Z"/><rect class="cls-11" x="452.02" y="276.15" width="151.95" height="8.54" rx="4.27"/><circle class="cls-21" cx="597.21" cy="280.87" r="1.53"/><circle class="cls-21" cx="590.73" cy="280.87" r="1.53"/><rect class="cls-21" x="580.16" y="279.7" width="6.66" height="2.34" rx="1.17"/><rect class="cls-20" x="308.52" y="304.3" width="12.59" height="228.7"/><rect class="cls-20" x="456.13" y="304.3" width="12.59" height="228.7"/><path class="cls-11" d="M676.17,532.27h0a3.91,3.91,0,0,1-2.52-6.9l31.54-26.65h12.12L678.7,531.34A3.91,3.91,0,0,1,676.17,532.27Z"/><path class="cls-11" d="M764.57,532.27h0a3.91,3.91,0,0,0,2.53-6.9l-31.55-26.65H723.43l38.62,32.62A3.88,3.88,0,0,0,764.57,532.27Z"/><rect class="cls-11" x="712.04" y="423.79" width="16.67" height="71.2"/><rect class="cls-20" x="696.38" y="412.5" width="47.98" height="22.58" rx="7.34"/><rect class="cls-3" x="702.87" y="489.4" width="35.01" height="11.19" rx="5.59"/><path class="cls-3" d="M808,209.59H742.73s-42.57,147.67-42.57,154.27,11.62,31,12.78,31.76,40,13.53,41.47,13.34,41.37-56.69,41.37-56.69,7.74-27,9.67-33.24,4.65-62.14,4.65-62.14"/><path class="cls-3" d="M829.18,237.07,810.29,381.48a47.53,47.53,0,0,1-47.13,41.37H593V398.33H750.28a37.7,37.7,0,0,0,37.38-32.82L808,209.59h0A24.51,24.51,0,0,1,829.18,237.07Z"/><path class="cls-8" d="M728.59,356.6a41.5,41.5,0,0,1-41.49,41.73H609l3.1,98H557.17L544.26,364.23c0-.12,0-.25,0-.37a25.2,25.2,0,0,1,22.42-25.81l81.55-9,19.8-2.19h60.4Z"/><path class="cls-22" d="M728.59,356.6a41.5,41.5,0,0,1-41.49,41.73H614.32c2.85-26.12,10.93-54.94,33.9-69.32l19.8-2.19h60.4Z"/><path class="cls-23" d="M596.76,490.49l-6.23-91.9A16.6,16.6,0,0,1,606,380.9l42.59-2.7"/><path class="cls-22" d="M585.32,496.35H557.17L544.26,364.23c0-.12,0-.25,0-.37C559.05,385.85,576.9,459.08,585.32,496.35Z"/><path class="cls-4" d="M515.21,524.44c0,.29,0,.58,0,.87a8.58,8.58,0,0,0,8.52,7.69h81.35a8.56,8.56,0,0,0,8.4-10.17l-.95-5-4.41-23H560l-40.31,22.11A8.57,8.57,0,0,0,515.21,524.44Z"/><path class="cls-22" d="M515.25,525.31a8.58,8.58,0,0,0,8.52,7.69h81.35a8.55,8.55,0,0,0,8.4-10.17l-.95-5H590.24a9.46,9.46,0,0,0-6.68,2.77l-1.92,1.92a9.45,9.45,0,0,1-6.68,2.77Z"/><path class="cls-24" d="M542.46,504.42h13l14-8.63a5.72,5.72,0,0,0,2.3-2.7L576.8,481a3.2,3.2,0,0,0-3-4.41h-11.2a3.2,3.2,0,0,0-3.21,3.22l.09,15.28Z"/><path class="cls-8" d="M730.27,326.82,648.6,337a31.65,31.65,0,0,0-27.7,32.82L630,492.45a4.22,4.22,0,0,0,4.2,3.9h45.73a4.24,4.24,0,0,0,4.23-4.17l1.29-93.85h64a41.5,41.5,0,0,0,41.5-41.73l-.17-29.78"/><path class="cls-23" d="M672.56,480l-.92-80.21A16.57,16.57,0,0,1,687.1,383c22.19-1.5,61.72-4.63,76.13-8.71,20.5-5.81,15.89-36.39,15.89-36.39"/><path class="cls-25" d="M811.32,244.36,808,255.77l-2,6.86-7.83,22.48-5.86,3-1.61-.63v39.33H669.17l.15-2.81.36-1.24,1.38-26.64.36-6.86,1.14-22.11L662,263.34l-21-7.57-4.37-1.58,15.49-25.06,4.57-7.39a58.53,58.53,0,0,1,5.33-7.32,60.09,60.09,0,0,1,26.63-18.07,61,61,0,0,1,9.22-2.32l31.06-5.23H748.2l24.35,6.82,13.87,3.88c.92.26,1.81.55,2.69.88a34.78,34.78,0,0,1,6.87,3.37,36.16,36.16,0,0,1,14.74,18.51,34.84,34.84,0,0,1,1.69,6.87A36,36,0,0,1,811.32,244.36Z"/><path class="cls-6" d="M749.85,189.19c0,5.22-5.18,10.4-13.17,11.05-6.92.55-12.48-.64-13.88-4a9.62,9.62,0,0,1-.52-1.57c-.93-3.88-1.09-9.95-2.27-15.77l19.15-11.45,9.77-5.85C747.58,169.85,749.85,184,749.85,189.19Z"/><path class="cls-16" d="M748.2,175.56c-11.51,12-19.24,18.69-25.4,20.68a9.62,9.62,0,0,1-.52-1.57c-.93-3.88-1.09-9.95-2.27-15.77l19.15-11.45a64.44,64.44,0,0,1,8.44,1.1Z"/><path class="cls-15" d="M715.89,151.89c-4.56-4.66-2.12-10.94-2.12-10.94a4.8,4.8,0,0,1-4.45-4.21c-.44-4,6.66-6.81,6.66-6.81s-6.79-.84-4.53-5.06S724,114.45,746,121.1s34.46,18.29,27.81,27.06c6.42,7.83,3.53,17-3.86,20.87s-13.6,18.93-25.41,10.11Z"/><circle class="cls-6" cx="763.23" cy="170.68" r="8.85"/><path class="cls-6" d="M757.51,156.05a10.5,10.5,0,0,0-.38,1.56c-.76,4.32,0,11.59,0,11.59l-1.44,5.39c-4.56,5.81-15.53,11.16-25.07,10.79a19.91,19.91,0,0,1-5.27-.88c-10.36-3.29-15.37-12.66-13.83-20s6.22-23.18,6.22-23.18a65.73,65.73,0,0,0,5.34,4.55c2.24,1.61,4.08-.8,2.06-5.46.28.39,4.78,6.65,9.06,9.55,4.43,3,6.13-1.47,3.24-5.86,8.46,5.78,22.26,5.26,23,7.17C761,152.92,758.65,152.7,757.51,156.05Z"/><path class="cls-16" d="M757.13,157.61c-.76,4.32,0,11.59,0,11.59l-1.44,5.39c-4.56,5.81-15.53,11.16-25.07,10.79,1.68-2.07,4.63-4.36,8.33-7.41,5.22-4.32,10.39-8.07,11.81-12.4s1.41-10.25,5.73-10.87l1.07,1.35A10.5,10.5,0,0,0,757.13,157.61Z"/><path class="cls-26" d="M761.91,173.56a4.29,4.29,0,0,1,5.13-3.51"/><path class="cls-26" d="M733.19,157.36l-5.47,5.53a1.29,1.29,0,0,0,.27,2l3.29,1.94"/><circle cx="720.43" cy="157.71" r="1.99"/><circle cx="742.3" cy="163.57" r="1.99"/><path class="cls-27" d="M720.37,149.49a5.64,5.64,0,0,1,6,1.61"/><path class="cls-27" d="M742.73,155.49a5.65,5.65,0,0,1,6,1.6"/><path class="cls-26" d="M740,175.23a8,8,0,0,0-8.49-.13"/><path class="cls-28" d="M716,193.32s.15,13.11,18.9,13,19.48-13.79,19.48-13.79"/><path class="cls-29" d="M763.29,269.93s9.91-34.18,12.43-40"/><path class="cls-30" d="M779.12,218.56s2-6.41,5.54-7.47"/><path class="cls-30" d="M672.56,267.16s2.77-38.91,4.71-50.64"/><path class="cls-6" d="M795.78,257.33,758.26,188.8s10.76-5.61,13.83-12.58,3.26-16.38,2.1-18.51-3.8-.35-3.8-.35A4,4,0,0,0,767,154.8a3.33,3.33,0,0,0-3.23,2.29s-.26-2.54-2.2-2.8-2.9,3.74-2.9,3.74-.32-3.42-2.65-3.36-2.58,8.52-4.45,13.68-20.46,14.79-20.71,23.33c-.18,6.15,17.25,55.46,27.07,82.69a20.78,20.78,0,0,0,24.88,13.05h0A20.79,20.79,0,0,0,795.78,257.33Z"/><path class="cls-6" d="M704.5,264.17v29.65l-59.78,6.43a19,19,0,0,1-18.38-28.55l10.24-17.51,36,13,16.82-1.57h0Z"/><path class="cls-16" d="M704.5,264.17v9.35a32.43,32.43,0,0,1-14.45,3.75c-11.48,0-9.64-4.79-.67-11.68h0Z"/><path class="cls-6" d="M681.92,277.27c4.64-9.78,21.94-15.78,30.71-14.39s12.49,10.16,12,15.19-7-2.58-7-2.58.9,1.25.65,4.3-7.11-2.52-7.11-2.52,2.44,2.74,0,4.8-6.18-3.48-6.18-3.48,2.58,1.93-.52,4.51-4.39-2.45-7.35-2.71S686.31,284.6,681.92,277.27Z"/><path class="cls-26" d="M672.56,267.16s-30.22,2.07-32.74,3.43"/><path class="cls-4" d="M682,526.18a6.89,6.89,0,0,1-6.88,7.09H608.34a6.9,6.9,0,0,1-6.89-6.88,2.62,2.62,0,0,1,0-.28,6.88,6.88,0,0,1,2.74-5.23l33.54-25.17,43.41.24.62,21.06Z"/><path class="cls-8" d="M682,526.18a6.89,6.89,0,0,1-6.88,7.09H608.34a6.89,6.89,0,0,1-6.88-7.16h47.77a12.2,12.2,0,0,0,6.53-1.89l8.41-5.32A12.2,12.2,0,0,1,670.7,517h11.07Z"/><path class="cls-24" d="M625.65,504.78H645.9a4.8,4.8,0,0,0,2.83-.93l9.14-6.71a4.77,4.77,0,0,0,2-3.85v-11a5.1,5.1,0,0,0-5.1-5.1H642.82a5.1,5.1,0,0,0-5.09,4.87l-.59,13.07Z"/><line class="cls-31" x1="609.01" y1="398.33" x2="607.21" y2="381.88"/><path class="cls-31" d="M685.4,398.33s-.38-14.71-1.93-20.13"/><rect class="cls-32" x="377.35" y="284.68" width="492.69" height="19.62" rx="9.81"/><rect class="cls-33" x="271.84" y="284.68" width="413.56" height="19.62" rx="9.81"/><path class="cls-34" d="M475.06,525.76c0,.17,0,.35,0,.52a7.32,7.32,0,0,1-7.3,6.8H408.12a7.32,7.32,0,0,1-7.21-8.59l1-5.71,2.51-14.3h49.74l18.34,15.72a7.31,7.31,0,0,1,1.88,2.51A7.22,7.22,0,0,1,475.06,525.76Z"/><path class="cls-8" d="M475,526.28a7.32,7.32,0,0,1-7.3,6.8H408.12a7.32,7.32,0,0,1-7.21-8.59l1-5.71H425.5a9,9,0,0,1,6.38,2.64l2.22,2.22a9,9,0,0,0,6.37,2.64Z"/><path class="cls-8" d="M402.45,349.93l17.91,5.84a39.54,39.54,0,0,1,35.16,39.74l-1.15,81H404.12l-1.65-67.74H367a37.76,37.76,0,0,1-37.36-43.21l2.78-19"/><path class="cls-23" d="M359,339.72c-2.8,43.77,1.85,39.08,32.35,40.64s32.71-2.81,32.4,15-1.56,96.91,0,101"/><path class="cls-31" d="M402.47,408.81s15.17,1.56,25.17-2.5"/><path class="cls-6" d="M509.45,265.43s7.74-8.26,14.71-10.07,25.55,5,27.36,11.8-10.16,6-15.23,13S515.65,287,515.65,287"/><path class="cls-35" d="M495.78,278.85l13.67-13.42,26.84,14.71L506.15,321.8a19.57,19.57,0,0,1-31.7,0L465,308.7"/><path class="cls-35" d="M499.7,281.83a83.66,83.66,0,0,1-13.2,13c-1.09.87-2.17,1.71-3.25,2.51a132.55,132.55,0,0,1-15.95,10.11c-.88.47-1.66.88-2.35,1.23L455.53,296l.65,28.37.11,4.33.15,6.34.34,14.94H340.48l2.46-31.48.33-4.25L345,292.63l.36-4.5,1.42-18.24-19.8-6.25,9.52-21.34c.47-1,1-2.07,1.53-3.05a37.09,37.09,0,0,1,2.28-3.6,38.39,38.39,0,0,1,19.47-14.24c1-.33,2-.62,3.09-.86l3.52-.81h0l29.61-5.6,21.7,1.91,2.38.17,2.3.67,19.45,5.62,3.87,1.13,8.54,2.47a38.43,38.43,0,0,1,22.22,17.07l1.46,2.43,2.26,3.73,10.86,18,2.12,3.52Z"/><path class="cls-36" d="M497.11,277.54s7.18,8.63,7.38,16.95"/><path class="cls-8" d="M456.78,349.93H406L400,335c0-.12,36.67-.06,56.43,0Z"/><path class="cls-13" d="M386.66,331.62A88.39,88.39,0,0,1,384,349.93h-4.16a84.91,84.91,0,0,0,2.92-22c0-8-.38-17.43-6.94-23s-15.77-6.38-23.64-9a38.26,38.26,0,0,1-7.18-3.22l.36-4.49c4.28,2.93,9.85,4.49,14.58,5.72,8.2,2.14,17.08,4.66,22.2,12,2.57,3.68,3.57,8.16,4.11,12.54A79.13,79.13,0,0,1,386.66,331.62Z"/><path class="cls-13" d="M358.78,333.32c0,2.49-.08,5-.24,7.47a57.09,57.09,0,0,1-1.27,9.14h-4.11a54.07,54.07,0,0,0,1.45-11.06c.1-2.29.12-4.59.15-6.89a19,19,0,0,0-.6-6.06c-1.23-3.72-5.8-5.06-9-6.49l-2.21-1,.34-4.25c2.23,1,4.45,2,6.66,3a19.19,19.19,0,0,1,5.42,3.35,10.73,10.73,0,0,1,3.1,5.92A37.65,37.65,0,0,1,358.78,333.32Z"/><path class="cls-37" d="M385.57,217.56s1.56,8.91,17.51,10.08,21.56-7.19,21.56-7.19"/><path class="cls-36" d="M455.52,296s-11.43-13.64-14.07-20-2-19.38-2-19.38"/><path class="cls-38" d="M440.62,246.67c.62-7.08,4.58-10.1,4.58-10.1"/><path class="cls-15" d="M391.08,194.25a116.85,116.85,0,0,0-4.95,25.82c-.75,13-18.7,50.18,8.61,70.16s61.13-5.66,56.36-28.05-10.3-30.57-3.71-52.28,8.6-48.74-15.75-58.24-39.23,1-42,8.08,3.6,26.84,3.6,26.84"/><path class="cls-6" d="M389.63,159.74c-5.22,2.82-9.17,15.15-9.93,16.31-.54.82-4.81,3.34-7.31,4.78a1.9,1.9,0,0,0-.63,2.73l2.65,3.84-2.36,12a6.8,6.8,0,0,0,6.29,8.11l9.46.55,3.28-13.77s7,4.16,12.7-.9,2.47-11.26-2.56-11.85-7.73,3.77-8.31,3.39,1.42-17.31,1.42-17.31A13,13,0,0,1,389.63,159.74Z"/><path class="cls-7" d="M395.74,191.15c.14-3.88,4.9-4.62,6.38-2.88"/><path class="cls-7" d="M378.39,196.45s3.67,2,6.78-.08"/><circle cx="385.79" cy="178.86" r="1.74"/><path class="cls-17" d="M384.52,173.2a5.64,5.64,0,0,1,5.18,1.39"/><path class="cls-8" d="M544.53,395.51l-1,84.47H492.81l-1.34-71.17H421.34A37.76,37.76,0,0,1,384,365.61l2.77-19,26.11,1.24,43.92,2.09,52.59,5.84A39.53,39.53,0,0,1,544.53,395.51Z"/><path class="cls-23" d="M413.31,339.72c-2.81,43.77,1.84,39.08,32.34,40.64s67.4-2.81,67.08,15-2.23,77-.66,81.07"/><path class="cls-31" d="M491.47,408.81s15.17,1.56,25.17-2.5"/><path class="cls-11" d="M344.42,542.51h0a3.91,3.91,0,0,1-2.53-6.9L373.44,509h12.12l-38.62,32.63A3.93,3.93,0,0,1,344.42,542.51Z"/><path class="cls-11" d="M432.82,542.51h0a3.91,3.91,0,0,0,2.52-6.9L403.8,509H391.68l38.61,32.63A4,4,0,0,0,432.82,542.51Z"/><rect class="cls-11" x="380.28" y="424.41" width="16.67" height="80.83"/><rect class="cls-20" x="364.63" y="413.12" width="47.98" height="22.58" rx="7.34"/><rect class="cls-3" x="371.11" y="499.64" width="35.01" height="11.19" rx="5.59"/><path class="cls-3" d="M489.29,415.36h0a9.06,9.06,0,0,1-9.05,9.05H313.67a9.06,9.06,0,0,1-9.05-9.05V265.94a9.05,9.05,0,0,1,9.05-9.05h96.49a9,9,0,0,1,9,9.05V397.26a9.05,9.05,0,0,0,9.05,9.05h52A9.05,9.05,0,0,1,489.29,415.36Z"/><path class="cls-34" d="M587.61,525.44a7.65,7.65,0,0,1-.3,2.15,7.79,7.79,0,0,1-1.93,3.25,7.68,7.68,0,0,1-5.42,2.24H496.57a7.64,7.64,0,0,1-7.56-8.76l1.15-7.86,3-20.11h49.63c8.63,6.81,31,17.69,40.49,22.18A7.63,7.63,0,0,1,587.61,525.44Z"/><polygon class="cls-8" points="543.56 479.98 543.37 496.35 493.12 496.35 492.81 479.98 543.56 479.98"/><polygon class="cls-8" points="454.35 476.55 454.16 504.48 404.44 504.48 404.13 476.55 454.35 476.55"/><path class="cls-8" d="M587.31,527.59a7.79,7.79,0,0,1-1.93,3.25,7.68,7.68,0,0,1-5.42,2.24H496.57a7.64,7.64,0,0,1-7.56-8.76l1.15-7.86H511.8a7.85,7.85,0,0,1,4.21,1.22l7.23,4.59a7.86,7.86,0,0,0,3.68,1.2Z"/><path class="cls-24" d="M563,508.49c-2.34,1.76-12.71-1.36-16.88-4.54s-7.43-4.37-8-7.92-3.81-12,.15-12.92,8.33-1.82,8.49,2-.31,12.3,0,12.77S563,508.49,563,508.49Z"/><rect class="cls-20" x="693.27" y="304.3" width="12.59" height="228.7"/><rect class="cls-20" x="840.88" y="304.3" width="12.59" height="228.7"/></g></g></svg>