<svg xmlns="http://www.w3.org/2000/svg" xmlns:xlink="http://www.w3.org/1999/xlink" viewBox="0 0 119.89 119.89"><defs><style>.cls-1{isolation:isolate;}.cls-2{fill:#d4eded;}.cls-3{fill:#4b6873;}.cls-4{fill:#6967af;}.cls-5,.cls-8,.cls-9{opacity:0.5;mix-blend-mode:multiply;}.cls-5{fill:url(#Degradado_sin_nombre_2);}.cls-6{fill:url(#Degradado_sin_nombre_22);}.cls-7{fill:url(#Degradado_sin_nombre_22-2);}.cls-8{fill:url(#Degradado_sin_nombre_2-2);}.cls-9{fill:url(#Degradado_sin_nombre_2-3);}.cls-10{fill:#4e5862;}.cls-11{fill:url(#Degradado_sin_nombre_22-3);}.cls-12{fill:url(#Degradado_sin_nombre_22-4);}.cls-13{fill:url(#Degradado_sin_nombre_22-5);}.cls-14{fill:#20252c;}.cls-15{fill:#fbae48;}.cls-16{fill:#070008;}</style><linearGradient id="Degradado_sin_nombre_2" x1="40.25" y1="50.29" x2="40.55" y2="58.06" gradientUnits="userSpaceOnUse"><stop offset="0" stop-color="#f9a02b"/><stop offset="1" stop-color="#fac32a"/></linearGradient><linearGradient id="Degradado_sin_nombre_22" x1="58.06" y1="40.74" x2="60.38" y2="40.74" gradientUnits="userSpaceOnUse"><stop offset="0" stop-color="#00293b"/><stop offset="1" stop-color="#093f4f"/></linearGradient><linearGradient id="Degradado_sin_nombre_22-2" x1="100.82" y1="40.74" x2="103.14" y2="40.74" xlink:href="#Degradado_sin_nombre_22"/><linearGradient id="Degradado_sin_nombre_2-2" x1="34.5" y1="103.39" x2="45.92" y2="103.39" xlink:href="#Degradado_sin_nombre_2"/><linearGradient id="Degradado_sin_nombre_2-3" x1="40.06" y1="41.89" x2="40.32" y2="39.13" xlink:href="#Degradado_sin_nombre_2"/><linearGradient id="Degradado_sin_nombre_22-3" x1="40.29" y1="30.31" x2="40.24" y2="28.97" xlink:href="#Degradado_sin_nombre_22"/><linearGradient id="Degradado_sin_nombre_22-4" x1="39.94" y1="26.39" x2="40.03" y2="24.52" xlink:href="#Degradado_sin_nombre_22"/><linearGradient id="Degradado_sin_nombre_22-5" x1="33.22" y1="103.03" x2="47.2" y2="103.03" xlink:href="#Degradado_sin_nombre_22"/></defs><g class="cls-1"><g id="Layer_2" data-name="Layer 2"><g id="page_2" data-name="page 2"><g id="_Icon1_" data-name="&lt;Icon1&gt;"><circle class="cls-2" cx="59.95" cy="59.95" r="59.95"/><polygon class="cls-3" points="95.2 30.83 40.18 20.12 27.69 30.76 27.23 30.43 39.97 19.58 95.35 30.36 95.2 30.83"/><rect class="cls-3" x="60.32" y="40.95" width="41.66" height="0.62"/><path class="cls-4" d="M95.19,30.23H27.46l-7.25,7.2v1.72H34.5v65.31H45.92V39.14h57.22v-.78ZM22,37.42l2.2-2.18,2.15,2.18Zm5.2-.94-2.1-2.13,2.1-2.07Zm1.71.94V32.91l4.43,4.51Zm5.32-.91-4.27-4.33h4.27Zm2.52-4.09h5.81L36.7,38.13Zm0,9h5.77L36.7,47.09Zm0,9h5.81L36.7,56.12Zm0,9h5.68L36.7,65Zm0,9h5.56L36.7,73.88Zm0,9h5.83L36.7,83.14Zm0,9h5.78L36.7,92.1Zm0,9h5.74l-5.74,5.64Zm6.71,6.92h-5.7l5.7-5.6Zm0-9.11H37.87l5.54-5.45Zm0-9H37.92l5.49-5.4Zm0-9H37.65l5.76-5.67Zm0-9H37.77l5.64-5.55Zm0-9H37.89l5.52-5.43Zm0-9H37.86l5.55-5.46Zm0-9H37.9l5.51-5.42Zm3.47-1.8V32.88l4.46,4.54Zm5.31-.94L48,32.18h4.23Zm1.71.94V32.91l4.44,4.51Zm5.32-.91L55,32.18h4.26Zm1.71.91V32.88l4.46,4.54Zm5.32-.93L62,32.18h4.24Zm1.71.93V33l4.37,4.44Zm5.32-.84L69,32.18h4.33Zm1.71.84V33.08l4.27,4.34Zm5.32-.74-4.43-4.5h4.43Zm1.71.74V32.87l4.48,4.55Zm5.32-1-4.22-4.29h4.22Zm1.71,1V32.9l4.44,4.52Zm5.32-.91-4.26-4.33h4.26Zm1.71.91V32.94l4.41,4.48Z"/><rect class="cls-5" x="34.5" y="48.41" width="11.43" height="2"/><path class="cls-6" d="M58.06,39.14h2.33a0,0,0,0,1,0,0v2.18a1,1,0,0,1-1,1h-.27a1,1,0,0,1-1-1V39.14A0,0,0,0,1,58.06,39.14Z"/><path class="cls-7" d="M100.82,39.14h2.33a0,0,0,0,1,0,0v2.18a1,1,0,0,1-1,1h-.27a1,1,0,0,1-1-1V39.14A0,0,0,0,1,100.82,39.14Z"/><rect class="cls-8" x="34.5" y="102.33" width="11.43" height="2.13"/><rect class="cls-9" x="34.5" y="39.22" width="11.43" height="2.19"/><rect class="cls-10" x="34.5" y="41.41" width="11.43" height="9.97"/><path class="cls-11" d="M36.15,27.27H44.4a2.6,2.6,0,0,1,2.6,2.6v.34a0,0,0,0,1,0,0H33.55a0,0,0,0,1,0,0v-.34A2.6,2.6,0,0,1,36.15,27.27Z"/><path class="cls-12" d="M40,19.58h.18a.69.69,0,0,1,.69.69v7a0,0,0,0,1,0,0H39.29a0,0,0,0,1,0,0v-7A.69.69,0,0,1,40,19.58Z"/><path class="cls-13" d="M35.75,101.6h8.92a2.53,2.53,0,0,1,2.53,2.53v.33a0,0,0,0,1,0,0h-14a0,0,0,0,1,0,0v-.33A2.53,2.53,0,0,1,35.75,101.6Z"/><path class="cls-14" d="M82,78.4a3.86,3.86,0,0,0-.77,1.71,1.49,1.49,0,0,0,1,1.6,1.47,1.47,0,0,0,1.68-.46,1.85,1.85,0,0,0,.07-1.32,2,2,0,0,1,0-.48c0-.14-.24-.18-.26,0a3,3,0,0,1-.22,1.08.59.59,0,0,1-1-.06c-.16-.46.33-1.25.33-1.25Z"/><polygon class="cls-15" points="83.77 73.38 82.5 73.38 81.22 73.38 80.42 74.29 80.42 76.26 82.15 79.25 82.5 79.25 82.84 79.25 84.57 76.26 84.57 74.29 83.77 73.38"/><polygon class="cls-16" points="81.17 73.52 80.02 42.04 80.35 42.02 81.5 73.5 81.17 73.52"/><polygon class="cls-16" points="83.82 73.5 83.49 73.49 84.64 42.02 84.97 42.04 83.82 73.5"/><rect class="cls-15" x="78.77" y="41.58" width="7.31" height="2.01"/></g></g></g></g></svg>