<svg xmlns="http://www.w3.org/2000/svg" viewBox="0 0 119.89 119.89"><defs><style>.cls-1{fill:#d4eded;}.cls-2{fill:#462b73;}.cls-3{fill:#fbae48;}.cls-4{fill:#6967af;}.cls-5{fill:#939598;}</style></defs><g id="Layer_2" data-name="Layer 2"><g id="page_2" data-name="page 2"><g id="_Icon4_" data-name="&lt;Icon4&gt;"><circle class="cls-1" cx="59.95" cy="59.95" r="59.95"/><rect class="cls-2" x="64.95" y="37.15" width="1.01" height="8.39" transform="translate(56.32 -35.53) rotate(50.94)"/><rect class="cls-2" x="63.89" y="42.81" width="6.73" height="1.52" transform="translate(58.7 -36.11) rotate(50.94)"/><path class="cls-2" d="M66.6,42.75a1.81,1.81,0,0,0,.26-2.54l-2.81,2.28A1.81,1.81,0,0,0,66.6,42.75Z"/><polygon class="cls-3" points="52.24 43.57 59.41 61.92 32.14 61.92 24.98 43.57 52.24 43.57"/><path class="cls-2" d="M89.59,53.21A1.36,1.36,0,0,1,88.13,52V36.25a10.29,10.29,0,0,1,3.6-7.67l.55-.5c.55-.5,2.67,1.19,2.12,1.69l-.55.49a8,8,0,0,0-2.8,6V52A1.36,1.36,0,0,1,89.59,53.21Z"/><rect class="cls-2" x="55.46" y="61.92" width="28.75" height="9.04"/><path class="cls-3" d="M70.5,43.57H92.91A12.11,12.11,0,0,1,105,55.68v3.18A12.11,12.11,0,0,1,92.91,71H70.5a0,0,0,0,1,0,0V43.57A0,0,0,0,1,70.5,43.57Z"/><path class="cls-3" d="M59.87,71H56.06A19.63,19.63,0,0,0,26,54.35a.65.65,0,0,1-.88-.18L23.7,52.08a.65.65,0,0,1,.18-.91A23.44,23.44,0,0,1,59.87,71Z"/><rect class="cls-2" x="93.66" y="39.14" width="1.53" height="4.43"/><path d="M56.17,68.94a20.77,20.77,0,0,0-.7-3.56,1.2,1.2,0,0,0,.65-1.57l-.62-1.52a1.2,1.2,0,0,0-1.56-.66,20.31,20.31,0,0,0-2.12-3.19,1.21,1.21,0,0,0,0-1.7l-1.16-1.16a1.21,1.21,0,0,0-1.7,0,20.2,20.2,0,0,0-3-2A1.21,1.21,0,0,0,45.3,52l-1.52-.64a1.21,1.21,0,0,0-1.57.64,19.43,19.43,0,0,0-3.76-.76,1.2,1.2,0,0,0-1.2-1.2H35.61a1.21,1.21,0,0,0-1.21,1.2,20.65,20.65,0,0,0-3.55.7,1.22,1.22,0,0,0-1.58-.65l-1.52.62a1.2,1.2,0,0,0-.66,1.56,20.79,20.79,0,0,0-3.19,2.12,1.21,1.21,0,0,0-1.7,0L21,56.74a1.2,1.2,0,0,0,0,1.7,20.26,20.26,0,0,0-2,3,1.21,1.21,0,0,0-1.57.65l-.63,1.52a1.19,1.19,0,0,0,.63,1.57,19.42,19.42,0,0,0-.75,3.76,1.2,1.2,0,0,0-1.2,1.2v1.64A1.2,1.2,0,0,0,16.69,73a19.73,19.73,0,0,0,.69,3.55,1.22,1.22,0,0,0-.65,1.58l.62,1.52a1.21,1.21,0,0,0,1.57.66A19.42,19.42,0,0,0,21,83.49a1.2,1.2,0,0,0,0,1.7l1.16,1.16a1.2,1.2,0,0,0,1.7,0,20.61,20.61,0,0,0,3,2A1.2,1.2,0,0,0,27.56,90l1.51.63A1.21,1.21,0,0,0,30.65,90a19.32,19.32,0,0,0,3.75.75,1.2,1.2,0,0,0,1.21,1.2h1.64a1.2,1.2,0,0,0,1.2-1.2A19.84,19.84,0,0,0,42,90a1.2,1.2,0,0,0,1.57.65L45.1,90a1.21,1.21,0,0,0,.66-1.57A19,19,0,0,0,49,86.35a1.2,1.2,0,0,0,1.7,0l1.16-1.16a1.21,1.21,0,0,0,0-1.7,19.78,19.78,0,0,0,2-3,1.21,1.21,0,0,0,1.57-.65l.64-1.51a1.22,1.22,0,0,0-.64-1.58A19.33,19.33,0,0,0,56.17,73a1.2,1.2,0,0,0,1.19-1.21V70.14A1.19,1.19,0,0,0,56.17,68.94Z"/><circle class="cls-4" cx="36.43" cy="70.96" r="10.79" transform="translate(-39.51 46.54) rotate(-45)"/><path class="cls-5" d="M42.6,71a6.18,6.18,0,1,1-6.17-6.17A6.17,6.17,0,0,1,42.6,71Z"/><path d="M103,77.13a13,13,0,0,0-.45-2.28.79.79,0,0,0,.42-1l-.4-1a.77.77,0,0,0-1-.43,12.79,12.79,0,0,0-1.36-2.05.77.77,0,0,0,0-1.09l-.75-.75a.78.78,0,0,0-1.1,0,12.84,12.84,0,0,0-1.93-1.31.78.78,0,0,0-.41-1l-1-.4a.77.77,0,0,0-1,.4,12.86,12.86,0,0,0-2.41-.48.78.78,0,0,0-.78-.77H89.72a.77.77,0,0,0-.77.77,12.38,12.38,0,0,0-2.29.45.77.77,0,0,0-1-.42l-1,.4a.77.77,0,0,0-.42,1,12.41,12.41,0,0,0-2,1.37.78.78,0,0,0-1.1,0l-.75.75a.77.77,0,0,0,0,1.09,13.3,13.3,0,0,0-1.3,1.93.78.78,0,0,0-1,.42l-.41,1a.79.79,0,0,0,.41,1,12.71,12.71,0,0,0-.49,2.41.78.78,0,0,0-.77.78v1a.78.78,0,0,0,.77.78A13.14,13.14,0,0,0,78,82a.78.78,0,0,0-.42,1l.4,1a.77.77,0,0,0,1,.43,12.79,12.79,0,0,0,1.36,2,.77.77,0,0,0,0,1.09l.75.75a.78.78,0,0,0,1.1,0,12.08,12.08,0,0,0,1.93,1.3.78.78,0,0,0,.42,1l1,.4a.77.77,0,0,0,1-.4,13,13,0,0,0,2.42.48.77.77,0,0,0,.77.77h1.06a.78.78,0,0,0,.78-.77,12.43,12.43,0,0,0,2.28-.45.77.77,0,0,0,1,.42l1-.4a.78.78,0,0,0,.43-1,12.76,12.76,0,0,0,2-1.37.78.78,0,0,0,1.1,0l.75-.75a.77.77,0,0,0,0-1.09,12.54,12.54,0,0,0,1.3-1.93.78.78,0,0,0,1-.42l.41-1a.78.78,0,0,0-.41-1,12.71,12.71,0,0,0,.49-2.41.78.78,0,0,0,.77-.78v-1A.78.78,0,0,0,103,77.13Z"/><circle class="cls-4" cx="90.25" cy="78.43" r="6.94"/><circle class="cls-5" cx="90.25" cy="78.43" r="3.97"/><path class="cls-3" d="M22,43.57H52.25l-1.73-4.43H22a.64.64,0,0,0-.64.64v3.15A.64.64,0,0,0,22,43.57Z"/><path class="cls-3" d="M74.52,48.94l-2.17,5.88-6.07-7.49c-.57-.7-.73-1.5-.37-1.79l3.34-2.72c.36-.29,1.11,0,1.68.74L74,47.36A1.87,1.87,0,0,1,74.52,48.94Z"/></g></g></g></svg>