<svg xmlns="http://www.w3.org/2000/svg" xmlns:xlink="http://www.w3.org/1999/xlink" viewBox="0 0 119.89 119.89"><defs><style>.cls-1{fill:url(#linear-gradient);}.cls-2{fill:url(#linear-gradient-2);}.cls-3{fill:#d4eded;}.cls-4{fill:#6967af;}.cls-5{fill:none;stroke:#6967af;stroke-miterlimit:10;}.cls-6{fill:#462b73;}.cls-7{mask:url(#mask);}.cls-8{mask:url(#mask-2);}.cls-9{fill:#fbae48;}</style><linearGradient id="linear-gradient" x1="39.63" y1="53.87" x2="39.63" y2="43.45" gradientUnits="userSpaceOnUse"><stop offset="0"/><stop offset="0.09" stop-color="#070707"/><stop offset="0.22" stop-color="#1a1a1a"/><stop offset="0.37" stop-color="#3a3a3a"/><stop offset="0.54" stop-color="#676767"/><stop offset="0.73" stop-color="#a0a0a0"/><stop offset="0.93" stop-color="#e4e4e4"/><stop offset="1" stop-color="#fff"/></linearGradient><linearGradient id="linear-gradient-2" x1="78.1" y1="53.57" x2="78.1" y2="43.16" xlink:href="#linear-gradient"/><mask id="mask" x="28.72" y="47.96" width="21.82" height="9.56" maskUnits="userSpaceOnUse"><rect class="cls-1" x="28.72" y="47.96" width="21.82" height="8.04"/></mask><mask id="mask-2" x="67.19" y="47.66" width="21.82" height="9.56" maskUnits="userSpaceOnUse"><rect class="cls-2" x="67.19" y="47.66" width="21.82" height="8.04"/></mask></defs><g id="Layer_2" data-name="Layer 2"><g id="page_2" data-name="page 2"><g id="_Icon7_" data-name="&lt;Icon7&gt;"><circle class="cls-3" cx="59.95" cy="59.95" r="59.95"/><path class="cls-4" d="M65.09,35l-4.56-.09s-.33,6.63,2.33,6.63S65.09,35,65.09,35Z"/><line class="cls-5" x1="62.86" y1="47.56" x2="62.86" y2="39.59"/><polyline class="cls-4" points="62.86 46.47 65.09 47.56 65.09 47.56 60.75 47.56"/><path class="cls-4" d="M54,35l-4.57-.09s-.32,6.63,2.34,6.63S54,35,54,35Z"/><line class="cls-5" x1="51.72" y1="47.56" x2="51.72" y2="39.59"/><polyline class="cls-4" points="51.72 46.47 53.95 47.56 53.95 47.56 49.61 47.56"/><path class="cls-6" d="M42,88.74a1.41,1.41,0,0,1-.84,1.66c-.59.18-1.19-.3-1.32-1.06L35.75,66.22h-16l-5.19,23.2a1.18,1.18,0,0,1-1.07,1,1,1,0,0,1-.3,0,1.49,1.49,0,0,1-.77-1.73l5.34-23.84L12.38,40.25a1.75,1.75,0,0,1,0-.24l-.61-8.13a1.36,1.36,0,0,1,1-1.53c.62-.07,1.15.5,1.21,1.26l.6,8,5.17,23.8H36.64a1.19,1.19,0,0,1,1.08,1.09ZM17.49,49.92c-.56-3.16-1.14-6.46-1.63-9.29.84-7.87-.57-9.44-1.32-9.65l-.08,0L15,38.58Zm11,11.22c-2.89,0-6.36.17-7.85,1.24H35.25C34,61.56,31.74,61.14,28.44,61.14ZM107,40l.6-8.13a1.35,1.35,0,0,0-1-1.53c-.62-.07-1.15.5-1.21,1.26l-.59,8-5.17,23.8H82.69a1.19,1.19,0,0,0-1.08,1.09L77.32,88.74a1.42,1.42,0,0,0,.84,1.66c.6.18,1.19-.3,1.32-1.06l4.1-23.12h16l5.18,23.2a1.19,1.19,0,0,0,1.07,1,1,1,0,0,0,.3,0,1.48,1.48,0,0,0,.77-1.73l-5.33-23.84,5.33-24.57A1.72,1.72,0,0,0,107,40Zm-2.69-1.43.57-7.62-.08,0c-.75.21-2.15,1.78-1.31,9.65-.5,2.83-1.07,6.13-1.64,9.29Zm-5.56,23.8c-1.49-1.07-5-1.24-7.85-1.24-3.3,0-5.6.42-6.8,1.24ZM71.59,89.08l-9.9-7.7A2.76,2.76,0,0,0,61,81L72.44,53.51H46.88L58.3,81a2.76,2.76,0,0,0-.67.38l-9.9,7.7c-1.11.87-1.27,1.58-.33,1.58a7.57,7.57,0,0,0,3.72-1.58L57.63,84a3.48,3.48,0,0,1,4.06,0l6.52,5.07a7.53,7.53,0,0,0,3.72,1.58C72.86,90.66,72.71,90,71.59,89.08Zm-41-36.86h58.1a1.38,1.38,0,0,0,1.2-1.5v-.1a1.38,1.38,0,0,0-1.2-1.5H30.61a1.38,1.38,0,0,0-1.19,1.5v.1A1.38,1.38,0,0,0,30.61,52.22Z"/><g class="cls-7"><path d="M45.73,57.53H36.67A15.27,15.27,0,0,1,34.23,52H32.39a10.68,10.68,0,0,0,3,5.5H33.65A10.83,10.83,0,0,1,31,51.09H48.36A10.71,10.71,0,0,1,45.73,57.53ZM30.27,50.3H49.12a.9.9,0,0,0,0-1.8H30.27a.9.9,0,0,0,0,1.8Z"/></g><path class="cls-4" d="M50,47.56a.87.87,0,0,1-.85.89H30.27a.9.9,0,0,1,0-1.79H49.12A.87.87,0,0,1,50,47.56ZM40.68,36.28a1,1,0,1,0-2,0,7.75,7.75,0,0,1,1-.07A6.77,6.77,0,0,1,40.68,36.28Zm7.68,9.58H31c.35-5.18,4.1-9.26,8.67-9.26S48,40.68,48.36,45.86ZM38.7,37.48s-4.86,1.23-6.31,7.45h1.84S35.25,39.74,38.7,37.48Z"/><g class="cls-8"><path d="M84.2,57.23H75.14a15.27,15.27,0,0,1-2.44-5.5H70.86a10.68,10.68,0,0,0,3,5.5H72.13a10.71,10.71,0,0,1-2.63-6.44H86.83A10.71,10.71,0,0,1,84.2,57.23ZM68.74,50H87.59a.9.9,0,0,0,0-1.8H68.74a.9.9,0,0,0,0,1.8Z"/></g><path class="cls-4" d="M88.44,47.26a.87.87,0,0,1-.85.89H68.74a.9.9,0,0,1,0-1.79H87.59A.87.87,0,0,1,88.44,47.26ZM79.15,36a1,1,0,1,0-2,0,7.75,7.75,0,0,1,1-.07A6.77,6.77,0,0,1,79.15,36Zm7.68,9.59H69.5c.35-5.19,4.09-9.27,8.66-9.27S86.48,40.38,86.83,45.57Zm-9.66-8.39s-4.86,1.23-6.31,7.45H72.7S73.72,39.44,77.17,37.18Z"/><path class="cls-9" d="M90.22,48V66.19a3.12,3.12,0,0,1-6.19,0,3.13,3.13,0,0,1-6.21,0h-.13a3.11,3.11,0,0,1-6.18,0h0a3.11,3.11,0,0,1-6.18,0,3.11,3.11,0,0,1-6.18,0,3.11,3.11,0,0,1-6.17,0h0a3.11,3.11,0,0,1-6.17,0,3.11,3.11,0,0,1-6.18,0,3.12,3.12,0,0,1-6.19,0,2.93,2.93,0,0,1-3.09,2.75,2.94,2.94,0,0,1-3.09-2.75V48Z"/></g></g></g></svg>