<svg xmlns="http://www.w3.org/2000/svg" viewBox="0 0 119.89 119.89"><defs><style>.cls-1{fill:#d4eded;}.cls-2{fill:#462b73;}.cls-3{fill:#6967af;}.cls-4{fill:#1c1721;}.cls-5{fill:#fbae48;}</style></defs><g id="Layer_2" data-name="Layer 2"><g id="page_2" data-name="page 2"><g id="_Icon5_" data-name="&lt;Icon5&gt;"><circle class="cls-1" cx="59.95" cy="59.95" r="59.95"/><path class="cls-2" d="M93.63,35.89c-.32-.36-.66-.71-1-1a29.61,29.61,0,0,0-41.61,0L51,34.9l5.86,5.8,0-.06a21.28,21.28,0,0,1,29.9,0c.35.35.67.71,1,1.07A20.71,20.71,0,0,1,93,55.31h8.29A28.87,28.87,0,0,0,93.63,35.89Z"/><path class="cls-2" d="M93,55.31s0,0,0,.06a20.77,20.77,0,0,1-6.19,14.89l-.06.06A21.27,21.27,0,0,1,58,71.25l-5.87,5.82a29.61,29.61,0,0,0,40.48-.94l.07-.06a29,29,0,0,0,8.61-20.7v-.06Z"/><path class="cls-3" d="M29.63,67.88a1.2,1.2,0,1,0,0,2.4h22.5v-2.4Z"/><path class="cls-3" d="M74.67,67.88H52.13v2.4H74.67a1.2,1.2,0,1,0,0-2.4Z"/><polygon class="cls-2" points="55.03 21.67 48.91 21.94 42.35 22.24 46.46 47.01 52.73 46.73 59.15 46.44 55.03 21.67"/><path class="cls-3" d="M59.49,20.77a1.76,1.76,0,0,0-1.91-1.58L50,19.88l-7.91.72a1.74,1.74,0,0,0-1.59,1.89l1.93,20.87a1.74,1.74,0,0,0,1.91,1.57l7.74-.7,7.74-.7a1.73,1.73,0,0,0,1.59-1.89Z"/><path class="cls-4" d="M30.75,91.22v.09h5.86c0-.47-.07-.94-.07-1.42A15.27,15.27,0,0,1,51.73,74.7V70.28A21,21,0,0,0,30.75,91.22Z"/><path class="cls-4" d="M51.88,70.28h-.15V74.7h.15a15.27,15.27,0,0,1,15.34,15.2c0,.48,0,1-.06,1.42H73v-.09A21,21,0,0,0,51.88,70.28Z"/><path class="cls-5" d="M36.54,89.89c0,.48,0,1,.07,1.42H51.73V74.7A15.27,15.27,0,0,0,36.54,89.89Z"/><path class="cls-5" d="M67.22,89.89a15.27,15.27,0,0,0-15.34-15.2h-.15V91.31H67.16C67.2,90.84,67.22,90.37,67.22,89.89Z"/><rect class="cls-2" x="48.52" y="44.35" width="8.42" height="4.75" transform="translate(-3.63 4.45) rotate(-4.67)"/></g></g></g></svg>