<svg xmlns="http://www.w3.org/2000/svg" viewBox="0 0 119.89 119.89"><defs><style>.cls-1{fill:#d4eded;}.cls-2{fill:#6967af;}.cls-3{fill:#fbae48;}.cls-4{fill:#462b73;}.cls-5{fill:#9dd0c4;}.cls-6{fill:#939598;}</style></defs><g id="Layer_2" data-name="Layer 2"><g id="page_2" data-name="page 2"><g id="_Icon9_" data-name="&lt;Icon9&gt;"><circle class="cls-1" cx="59.95" cy="59.95" r="59.95"/><path class="cls-2" d="M82,27.55H75.59a.52.52,0,0,0-.43.26,1.14,1.14,0,0,0-.18.63v2.47h8l-.33-2.63C82.56,27.86,82.31,27.55,82,27.55Z"/><polygon class="cls-2" points="74.98 59.34 86.52 59.34 83.12 32.3 74.98 32.3 74.98 59.34"/><polygon class="cls-3" points="74.98 32.3 83.12 32.3 82.95 30.91 74.98 30.91 74.98 32.3"/><path class="cls-4" d="M86.59,59.34H74.8L53.07,35.29a.45.45,0,0,0-.64-.09,1,1,0,0,0-.34.79v21.9L31.66,35.29A.45.45,0,0,0,31,35.2a1,1,0,0,0-.34.79V92.23a1.14,1.14,0,0,0,.18.63.52.52,0,0,0,.43.26H90.42a.54.54,0,0,0,.47-.31,1.2,1.2,0,0,0,.14-.73l-3.83-32C87.14,59.65,86.89,59.34,86.59,59.34ZM45.31,66.61a1,1,0,0,1-.15.55.48.48,0,0,1-.38.22H36.85a.46.46,0,0,1-.37-.22,1,1,0,0,1-.16-.55V63.22a1,1,0,0,1,.16-.54.46.46,0,0,1,.37-.22h7.93a.48.48,0,0,1,.38.22,1,1,0,0,1,.15.54Zm21.33,0a1,1,0,0,1-.15.55.48.48,0,0,1-.38.22H58.18a.46.46,0,0,1-.37-.22,1,1,0,0,1-.16-.55V63.22a1,1,0,0,1,.16-.54.46.46,0,0,1,.37-.22h7.93a.48.48,0,0,1,.38.22,1,1,0,0,1,.15.54Z"/><path class="cls-5" d="M36.85,62.46a.46.46,0,0,0-.37.22,1,1,0,0,0-.16.54v3.39a1,1,0,0,0,.16.55.46.46,0,0,0,.37.22h7.93a.48.48,0,0,0,.38-.22,1,1,0,0,0,.15-.55V63.22a1,1,0,0,0-.15-.54.48.48,0,0,0-.38-.22Z"/><path class="cls-5" d="M58.18,62.46a.46.46,0,0,0-.37.22,1,1,0,0,0-.16.54v3.39a1,1,0,0,0,.16.55.46.46,0,0,0,.37.22h7.93a.48.48,0,0,0,.38-.22,1,1,0,0,0,.15-.55V63.22a1,1,0,0,0-.15-.54.48.48,0,0,0-.38-.22Z"/><polygon class="cls-3" points="30.59 32.25 51.38 55.24 51.37 51.94 30.59 28.96 30.59 32.25"/><polygon class="cls-3" points="52.41 33.22 73.2 56.2 73.19 52.91 52.4 29.92 52.41 33.22"/><path class="cls-6" d="M73.29,14.33a6.38,6.38,0,0,0-8.47.31,9.85,9.85,0,0,0-1.35-.1c-3.18,0-5.76,1.47-5.76,3.29s2.58,3.3,5.76,3.3a9.85,9.85,0,0,0,1.35-.1,6.38,6.38,0,0,0,8.47.31,6.27,6.27,0,0,0,4.08,1.46c3.18,0,5.75-2.22,5.75-5s-2.57-5-5.75-5A6.21,6.21,0,0,0,73.29,14.33Z"/></g></g></g></svg>