<svg xmlns="http://www.w3.org/2000/svg" viewBox="0 0 119.89 119.89"><defs><style>.cls-1{fill:#d4eded;}.cls-2{fill:#6967af;}.cls-3{fill:#462b73;}</style></defs><g id="Layer_2" data-name="Layer 2"><g id="page_2" data-name="page 2"><g id="_Icon12_" data-name="&lt;Icon12&gt;"><circle class="cls-1" cx="59.95" cy="59.95" r="59.95"/><path class="cls-2" d="M21.17,59A11.41,11.41,0,0,0,32.64,70.33V47.64A11.4,11.4,0,0,0,21.17,59Z"/><path class="cls-3" d="M32.64,47.64V70.33a11.35,11.35,0,1,0,0-22.69Z"/><path class="cls-3" d="M89.65,47.64V70.33a11.35,11.35,0,1,0,0-22.69Z"/><path class="cls-2" d="M78.18,59A11.41,11.41,0,0,0,89.65,70.33V47.64A11.4,11.4,0,0,0,78.18,59Z"/><path class="cls-2" d="M49.53,59A11.41,11.41,0,0,0,61,70.33V47.64A11.41,11.41,0,0,0,49.53,59Z"/><path class="cls-3" d="M61,47.64V70.33a11.35,11.35,0,1,0,0-22.69Z"/></g></g></g></svg>