<svg xmlns="http://www.w3.org/2000/svg" viewBox="0 0 119.89 119.89"><defs><style>.cls-1{fill:#d4eded;}.cls-2{fill:#fafbfa;stroke:#462b73;}.cls-2,.cls-3,.cls-4{stroke-miterlimit:10;}.cls-3,.cls-4{fill:none;}.cls-3{stroke:#6967af;}.cls-4{stroke:#fbae48;stroke-width:2px;}.cls-5{fill:#462b73;}</style></defs><g id="Layer_2" data-name="Layer 2"><g id="page_2" data-name="page 2"><g id="_Icon8_" data-name="&lt;Icon8&gt;"><circle class="cls-1" cx="59.95" cy="59.95" r="59.95"/><rect class="cls-2" x="26.42" y="25.42" width="69.46" height="50.56"/><line class="cls-3" x1="30.18" y1="52.64" x2="88.66" y2="52.64"/><polyline class="cls-4" points="30.32 63.01 40.79 52.64 45.3 56.46 57.69 49.29 64.34 50.83 74.16 43.65 78.05 49.26 88.66 37.92"/><line class="cls-3" x1="30.18" y1="36.38" x2="30.18" y2="66.86"/><rect class="cls-5" x="23.25" y="74.83" width="75.81" height="2.85" rx="1.26"/><rect class="cls-5" x="23.25" y="24" width="75.81" height="2.85" rx="1.26"/><rect class="cls-5" x="60.84" y="76.25" width="2.38" height="25.23" rx="1.05"/><rect class="cls-5" x="66.11" y="74.18" width="2.38" height="30.82" rx="1.05" transform="translate(-27.99 30.63) rotate(-21.34)"/><rect class="cls-5" x="55.21" y="74.17" width="2.38" height="30.94" rx="1.05" transform="translate(35.36 -14.15) rotate(20.72)"/></g></g></g></svg>