<svg xmlns="http://www.w3.org/2000/svg" viewBox="0 0 119.89 119.89"><defs><style>.cls-1{fill:#d4eded;}.cls-2{fill:#462b73;}.cls-3{fill:#fbae48;}</style></defs><g id="Layer_2" data-name="Layer 2"><g id="page_2" data-name="page 2"><g id="_Icon10_" data-name="&lt;Icon10&gt;"><circle class="cls-1" cx="59.95" cy="59.95" r="59.95"/><polygon class="cls-2" points="54.36 21.28 53.44 27.35 53.44 85.82 49.93 85.82 49.93 27.35 48.98 21.28 49.61 16 53.74 16 54.36 21.28"/><path class="cls-3" d="M56.19,57.62V94.37a4.53,4.53,0,0,1-9,0V57.62a4.21,4.21,0,0,1,2.67-3.86.24.24,0,0,1,.1,0,4.32,4.32,0,0,1,1.74-.34,4.54,4.54,0,0,1,1.77.34l.08,0a4.49,4.49,0,0,1,1.34.87A4,4,0,0,1,56.19,57.62Z"/><path class="cls-2" d="M75.22,26.8a10.17,10.17,0,0,0,2-3,6,6,0,0,0,.5-2.28,3.79,3.79,0,0,0-1.22-2.85c-2.39-2.26-4.66-3.93-7.89-3.65l-.16,0,3.61,6.33-1.84,2.07-.85.94-4.17.41-.08-.13-3.53-6.2c-2.15,2.37-1.93,5.11-1.27,8.27.54,2.55,3.46,3.72,6.68,3.62a3.74,3.74,0,0,1,.25.66V89.74A4.81,4.81,0,0,0,65.69,92v0a4.12,4.12,0,0,0-.22,1.33v0a4.23,4.23,0,0,0,.22,1.34,0,0,0,0,0,0,0,5,5,0,0,0,4.2,3.34,1.72,1.72,0,0,0,.32,0,1.94,1.94,0,0,0,.34,0,4.94,4.94,0,0,0,5.1-4.76,4.62,4.62,0,0,0-1.79-3.59V32A11.53,11.53,0,0,1,75.22,26.8ZM74.16,91.94l-.06,0-.12.08a.67.67,0,0,0,.26,1.24h.08l.14,0-.14,0-.08,0A.67.67,0,0,0,74,94.61l.14.08,0,0H74.1l-.16,0a.67.67,0,0,0-.74,1l.12.19-.19-.12a.72.72,0,0,0-1.12.7l0,.21-.12-.19a.75.75,0,0,0-1.24,0s0,0,0,0l-.06.17,0,.21,0-.21a.68.68,0,0,0-.3-.43.48.48,0,0,0-.32-.11.68.68,0,0,0-.71.28l-.08.11,0,.08,0-.12,0-.09a.72.72,0,0,0-1.12-.7l-.18.12.12-.19a.67.67,0,0,0-.74-1l-.22,0,.18-.11a.67.67,0,0,0-.27-1.24l-.22,0,.22,0a.67.67,0,0,0,.27-1.24L67,91.94l.22,0a.68.68,0,0,0,.74-1l-.12-.17.18.11a.72.72,0,0,0,1.12-.69l0-.1,0-.11,0,.06.08.11a.71.71,0,0,0,.71.3.54.54,0,0,0,.32-.11.73.73,0,0,0,.3-.44l0-.11h0l0,.11a1.38,1.38,0,0,0,.06.16s0,0,0,0a.74.74,0,0,0,1.24,0l.12-.17,0,.21a.72.72,0,0,0,1.12.69l.19-.11-.12.17a.69.69,0,0,0,.74,1l.16,0Z"/></g></g></g></svg>