<svg xmlns="http://www.w3.org/2000/svg" viewBox="0 0 119.89 119.89"><defs><style>.cls-1{fill:#d4eded;}.cls-2{fill:#4e5862;}.cls-3{fill:#6967af;}.cls-4{fill:#462b73;}.cls-5{fill:#5e6163;}.cls-6{fill:#fbae48;}.cls-7{fill:#20252c;}.cls-8{fill:#1c1721;}.cls-9{fill:#97999c;}</style></defs><g id="Layer_2" data-name="Layer 2"><g id="page_2" data-name="page 2"><g id="_Icon2_" data-name="&lt;Icon2&gt;"><circle class="cls-1" cx="59.95" cy="59.95" r="59.95"/><polygon class="cls-2" points="71.2 57.48 69.98 58.2 66.42 50.56 67.64 49.83 71.2 57.48"/><path class="cls-2" d="M69.24,45.67l-6.77,4c-.13.08-.1.45.08.83s.43.62.56.54l6.77-4c.13-.08.09-.45-.08-.83S69.37,45.59,69.24,45.67Z"/><polygon class="cls-2" points="66.58 50.91 63.98 50.55 63.42 50.88 66.79 51.36 66.58 50.91"/><polygon class="cls-2" points="67.8 50.18 69 47.56 69.57 47.22 68.01 50.63 67.8 50.18"/><polygon class="cls-2" points="67.31 50.47 67.07 50.62 66.19 48.73 66.43 48.59 67.31 50.47"/><path class="cls-3" d="M76.91,79.47H24.23v-15a4.45,4.45,0,0,1,4.16-4.7H55.83l5.51,9.86h3.37l9.91-2.14,1.64-7.72A183.74,183.74,0,0,1,76.91,79.47Z"/><polygon class="cls-4" points="76.91 84.36 24.23 84.36 24.23 75.67 40.69 75.67 46.74 79.47 76.91 79.47 76.91 84.36"/><path class="cls-2" d="M42.3,56.43h12.2a1.28,1.28,0,0,1,1.28,1.28v2a0,0,0,0,1,0,0H41a0,0,0,0,1,0,0v-2A1.28,1.28,0,0,1,42.3,56.43Z"/><path class="cls-2" d="M41,58s-1.26-13-1.26-14.52,1.1-1.46,1.71-.77,4.1,14.5,4.1,14.5Z"/><polygon class="cls-5" points="74.5 64.81 70.52 62.56 69.42 53.63 73.43 53 74.5 57.67 74.5 64.81"/><polygon class="cls-6" points="81.75 85.76 81.49 83.56 111.23 79.06 111.34 79.98 105.25 82.21 81.75 85.76"/><polygon class="cls-7" points="87.47 82.66 84.63 83.09 81.77 85.76 84.7 85.31 87.48 82.73 87.47 82.66"/><polygon class="cls-7" points="90.5 82.2 87.72 84.79 87.73 84.86 90.57 84.43 93.43 81.76 90.5 82.2"/><polygon class="cls-7" points="96.36 81.31 93.5 83.98 96.43 83.54 99.3 80.87 96.36 81.31"/><polygon class="cls-7" points="102.23 80.42 99.37 83.1 102.3 82.65 105.16 79.98 102.23 80.42"/><polygon class="cls-7" points="108.1 79.54 105.23 82.21 105.25 82.21 109.27 80.74 111.03 79.09 108.1 79.54"/><polygon class="cls-5" points="78.42 21.66 74.23 22.29 81.49 83.56 85.68 82.93 78.42 21.66"/><path class="cls-2" d="M35.82,44.15,39.11,25a2.77,2.77,0,0,1,2.61-2.43H64.28A3.25,3.25,0,0,1,66.87,24c6.58,8.86,8.94,27.36,9.7,39,.26,3.87.34,7,.34,8.69a.87.87,0,0,1-.81.92H55.78l-20-11.45ZM71.74,70a3.19,3.19,0,0,0,3-3.36v4.93c0-2.08-.09-5-.31-8.48-.77-11.83-3.16-29.43-9.21-37.58a1.18,1.18,0,0,0-.91-.53H41.72a.48.48,0,0,0-.45.42L38,44.39V59.74L56.37,70Z"/><path class="cls-8" d="M71.18,72.18a9.21,9.21,0,1,0,8.73,9.2A9,9,0,0,0,71.18,72.18Z"/><path class="cls-6" d="M71.18,87.28a5.91,5.91,0,1,1,5.6-5.9A5.76,5.76,0,0,1,71.18,87.28Z"/><path class="cls-9" d="M71.18,83.27A1.89,1.89,0,1,1,73,81.38,1.85,1.85,0,0,1,71.18,83.27Z"/><path class="cls-8" d="M28.17,77a6.73,6.73,0,0,0,0,13.44,6.73,6.73,0,0,0,0-13.44Z"/><path class="cls-6" d="M28.17,88a4.32,4.32,0,1,1,4.1-4.32A4.21,4.21,0,0,1,28.17,88Z"/><path class="cls-9" d="M28.17,85.05a1.38,1.38,0,1,1,1.31-1.38A1.34,1.34,0,0,1,28.17,85.05Z"/></g></g></g></svg>