<svg xmlns="http://www.w3.org/2000/svg" viewBox="0 0 119.89 119.89"><defs><style>.cls-1{fill:#d4eded;}.cls-2{fill:#462b73;isolation:isolate;}.cls-3{fill:#f3f2f1;}.cls-4{fill:#6fa29a;}.cls-5{fill:#5a8b82;}</style></defs><g id="Layer_2" data-name="Layer 2"><g id="page_2" data-name="page 2"><g id="_Icon11_" data-name="&lt;Icon11&gt;"><circle class="cls-1" cx="59.95" cy="59.95" r="59.95"/><rect class="cls-2" x="24.23" y="33.24" width="76.23" height="55.18" rx="6.63"/><rect class="cls-3" x="30.78" y="38.82" width="60.97" height="45.06"/><path class="cls-4" d="M27.92,80.19q0-12-.07-24c0-5.83.07-11.67,0-17.5,0-1.14.51-1.39,1.4-1.39,6.86,0,13.73.14,20.59,0,4.15-.07,8.31,0,12.46-.08,4.6-.07,9.21,0,13.82,0,6,0,12,0,18,0,2.14,0,2.16,0,1.76,2.2-1.47,4.15-4,7.69-6.53,11.24a.51.51,0,0,1-.65.15c.21-.67.29-1.33-.61-1.51a31.73,31.73,0,0,1-4.82-1.8c-3.36-1.26-6.75-2.42-10.06-3.8-1.26-.53-1.84-.21-2.32.84-.78,1.75-1.55,3.5-2.28,5.27-.29.69-.58.76-1,.12s-.75-1.27-1.14-1.9c-.21-.36-.51-.67-1-.45s-.24.66-.06,1c.57,1.09,1.14,2.18,1.74,3.25.23.41.4,1,1,.89a1.44,1.44,0,0,0,1-1.05c.71-2,1.75-3.93,2.66-5.89.33-.73.69-.85,1.35-.61,2.21.81,4.42,1.59,6.62,2.42a77.47,77.47,0,0,0,8.86,3.22A2.3,2.3,0,0,1,88,52.4c-1.58,1.66-3.11,3.38-4.76,5a72,72,0,0,1-20.09,13.5c-1,.46-1.94,1.28-3.16,1.24.33-.64.29-1.12-.55-1.29s-1.43-.34-2.14-.52a.83.83,0,0,0-1.13.63,6.28,6.28,0,0,0-.45,2.87,2.12,2.12,0,0,1-1.36.81c-3.26,1-6.47,2.2-9.81,3a129.69,129.69,0,0,1-13.68,2.56A5.63,5.63,0,0,1,27.92,80.19ZM50.39,50.88a7.58,7.58,0,0,1,.24-1.24c.52-1.32.14-2-1.3-2.24-2.22-.44-4.42-1-6.6-1.61-1.26-.35-1.82.06-2.08,1.3-.47,2.16-1,4.32-1.59,6.45-.34,1.23,0,1.89,1.23,2.17,1.48.35,3,.73,4.45,1.09,3.88.93,3.92.94,4.84-3A1.94,1.94,0,0,1,51.35,52,34.53,34.53,0,0,0,55.18,51c.58-.18,1.53-.21,1.28-1-.19-.64-1-.31-1.56-.17A30.34,30.34,0,0,1,50.39,50.88ZM35.83,73.26c.79-.06,1.86,1.06,2.31,0,.37-.88-1-.72-1.59-1.06-1.31-.76-1.34-.71,0-1.61a4.71,4.71,0,0,0,2.11-3.38,2.14,2.14,0,0,0-1.76-2.35c-1.12-.09-1.7.61-2,1.62-.09.35-.32.81.21,1s.66-.15.78-.5a.72.72,0,0,1,1.14-.47c.65.31.43.84.24,1.27a5.86,5.86,0,0,1-2,2.11c-.75.56-2,.89-1.81,2.08S35,72.81,35.83,73.26ZM75.65,48.33c-.53-.13-1.05-.27-1.58-.39s-.93-.06-1.11.45A1.65,1.65,0,0,0,73.09,50c.37.44.7,0,1.09-.23a1.87,1.87,0,0,1,2.18.32c.63.45-.19.91-.43,1.33-.84,1.49-1.73,3-2.57,4.46-.26.46-.63,1.09,0,1.44s.92-.35,1.19-.8c.85-1.43,1.66-2.9,2.52-4.33C78.62,49.55,78.47,49.13,75.65,48.33Zm-26.24,23c0-.06,0-.12,0-.15-.57-.82-1.85-1.16-1.7-2.48-1,.07-1.29,1.51-2.47,1.33-.2,0-.35.44-.2.61.54.64,1.28,1.07,1.12,2.16-.05.35.76.39.92-.18a1.09,1.09,0,0,1,1.53-.89A.63.63,0,0,0,49.41,71.36Z"/><path class="cls-4" d="M44,55.34c-4-1-4-1-3-5,.95-3.77.95-3.77,4.68-2.82l2.87.73c.56.14,1.35.23,1.11,1s.12,2-1.21,2.24c-.34.06-.67.18-1,.26C45,52.4,45,52.4,44.05,50c-.15-.39-.2-1-.83-.78-.47.16-.32.64-.23,1a.57.57,0,0,0,0,.14c1.15,3.36,0,3.87,4.29,2.55,1.29-.41,1.49-.21,1.19,1.13-.5,2.27-.5,2.27-2.84,1.67Z"/><path class="cls-5" d="M27.92,80.19a5.63,5.63,0,0,0,2.91,0,129.69,129.69,0,0,0,13.68-2.56c3.34-.77,6.55-2,9.81-3a2.12,2.12,0,0,0,1.36-.81,2.28,2.28,0,0,0,.72.1c1.44-.2,2.36.49,2.36,1.91,0,.85-.42,1.6-1.36,1.6-.77,0-1.5-.27-1.18-1.36a.59.59,0,0,0-.43-.81c-.5-.12-.69.23-.83.63a1.72,1.72,0,0,0,.91,2.34c1.1.58,2.19,1,3.19-.15,1.41-1.69.78-3.29-.25-4.86l.65-1.08H60c1.22,0,2.15-.78,3.16-1.24A72,72,0,0,0,83.2,57.37c1.65-1.59,3.18-3.31,4.76-5a2.3,2.3,0,0,0,.73-1.57h0a.51.51,0,0,0,.65-.15c2.52-3.55,5.06-7.09,6.53-11.24.12.16.32.31.32.47,0,5.19,0,10.37,0,15.56,0,3.32,0,6.64,0,10l0,15.11c0,.83,0,1.69.07,2.48.15,1.69-.8,1.77-2,1.76-2.8,0-5.6-.06-8.4-.06-5.74,0-11.48.08-17.22.08-9.16,0-18.33-.07-27.5.09-3.76.07-7.52,0-11.28,0-1.24,0-2.09-.41-2-1.89C27.93,82.05,27.9,81.12,27.92,80.19ZM87,68.85l.12.36.26-.28c.14-.3.3-.61.42-.92.27-.72,0-2.11,1.57-1.14a.58.58,0,0,0,.49-.21c.2-.34-.12-.56-.34-.65-1.2-.48-1-1.36-.71-2.28a4.91,4.91,0,0,0,.08-.86,5.72,5.72,0,0,0,.65-2.09c.13-.58.59-1.31-.24-1.69s-1.3.2-1.77.71a39.4,39.4,0,0,1-3,3.54c-.47.4-.36.8.12,1.21.76.66,1.73.65,2.58,1a1.55,1.55,0,0,0,0,.21c-.06,1-1,2-.25,3ZM67,74.94a.45.45,0,0,0-.73.32c-.1.4.07.62.48.65,1.24.32,2.48.65,3.72,1,.4.1.82.14.91-.42s-.3-.56-.64-.64C69.52,75.51,68.27,75.23,67,74.94Zm19.85-.64a2.16,2.16,0,0,0-1.46-2.5c-1.24-.35-1.64.58-2,1.43a.67.67,0,0,0,.2.92c.44.28.6-.08.76-.4s.44-.74.9-.5.4.74.25,1.18a4.62,4.62,0,0,1-1.87,2c-.5.4-1,.77-1.47,1.21s-.36.88.16,1.08c1.13.46,2.3.83,3.47,1.21a.51.51,0,0,0,.7-.34c.12-.36-.09-.55-.39-.68l-.94-.41c-1-.47-1.14-1-.11-1.62A4,4,0,0,0,86.87,74.3Zm-1.4-3.54c1.29.31,2.58.64,3.88.94.46.11,1.06.34,1.22-.34.12-.53-.4-.79-.83-.87-2.6-.46-5.08-1.44-7.72-1.73-.44-.05-1-.24-1.11.34-.16.73.57.65,1,.76C83.08,70.19,84.28,70.46,85.47,70.76ZM68.76,76.92l0-.08c-.67-.16-1.33-.34-2-.48-.38-.08-.84-.17-1,.36a.77.77,0,0,0,.62.88c1.37.39,2.74.74,4.12,1.09.33.08.74.12.87-.3a.75.75,0,0,0-.54-.93C70.2,77.23,69.47,77.1,68.76,76.92Z"/></g></g></g></svg>