<svg xmlns="http://www.w3.org/2000/svg" viewBox="0 0 119.89 119.89"><defs><style>.cls-1{isolation:isolate;}.cls-2{fill:#d4eded;}.cls-3{fill:#462b73;}.cls-4{fill:#939598;}.cls-5{fill:#d3d5d6;}.cls-5,.cls-7{mix-blend-mode:multiply;}.cls-6{fill:#6967af;}.cls-7{fill:#e0ccd6;}.cls-8{fill:#93ced4;}.cls-9{fill:#d1d3d4;}.cls-10{fill:#2d2932;}.cls-11{fill:#1c1721;}.cls-12{fill:#fbae48;}.cls-13{fill:#97999c;}</style></defs><g class="cls-1"><g id="Layer_2" data-name="Layer 2"><g id="page_2" data-name="page 2"><g id="_Icon3_" data-name="&lt;Icon3&gt;"><circle class="cls-2" cx="59.95" cy="59.95" r="59.95"/><rect class="cls-3" x="27.25" y="70.15" width="68.27" height="2.04"/><rect class="cls-3" x="42.12" y="46.41" width="4.87" height="27.55"/><rect class="cls-4" x="45.04" y="33.75" width="50.84" height="37.19"/><polygon class="cls-5" points="57.11 69.35 93.8 69.09 93.56 35.35 57.11 69.35"/><path class="cls-6" d="M43.66,44.45c0-2-.86-2.85-2.21-2.85H25.55c-1.63,0-1.81.61-2.12,1.34s-7,16.26-7.7,17.82a8.27,8.27,0,0,0-.82,3.78v8.57H43.66Z"/><path class="cls-7" d="M41.45,41.6H39.78A23.35,23.35,0,0,1,39,57.27,18.68,18.68,0,0,1,28.19,67.58c-3.76,1.47-9.15,3-13.28,1.56v4H43.66V44.45C43.66,42.43,42.8,41.6,41.45,41.6Z"/><path class="cls-8" d="M41.35,45.84H24.79c-1.18,2.74-5.11,11.91-5.57,13.07a6,6,0,0,0-.23.73H33.43l2-2.44,5.93-1Z"/><path class="cls-9" d="M14.77,72.19H97.85c1.62,0,2.26,4.42,0,4.42H14.77C13,76.61,12.84,72.19,14.77,72.19Z"/><path class="cls-3" d="M39.24,76.61A9.08,9.08,0,0,0,39.38,75a9.84,9.84,0,0,0-10.1-9.56A9.84,9.84,0,0,0,19.19,75a9.08,9.08,0,0,0,.14,1.57Z"/><path class="cls-10" d="M39.38,61.82c0-.74-.32-1.31-.66-1.31H35.4c-.34,0-.62.57-.66,1.31Z"/><path class="cls-11" d="M29.28,67.43a7.62,7.62,0,1,0,0,15.21,7.62,7.62,0,1,0,0-15.21Z"/><path class="cls-12" d="M29.28,79.92A4.89,4.89,0,1,1,34.45,75,5,5,0,0,1,29.28,79.92Z"/><path class="cls-13" d="M29.28,76.59A1.56,1.56,0,1,1,30.93,75,1.59,1.59,0,0,1,29.28,76.59Z"/><path class="cls-3" d="M95.59,76.51a9.19,9.19,0,0,0,.14-1.58,10.12,10.12,0,0,0-20.2,0,9.19,9.19,0,0,0,.14,1.58Z"/><path class="cls-11" d="M85.63,67.32a7.62,7.62,0,1,0,8,7.61A7.84,7.84,0,0,0,85.63,67.32Z"/><path class="cls-12" d="M85.63,79.81a4.89,4.89,0,1,1,5.16-4.88A5,5,0,0,1,85.63,79.81Z"/><path class="cls-13" d="M85.63,76.49a1.56,1.56,0,1,1,1.65-1.56A1.61,1.61,0,0,1,85.63,76.49Z"/></g></g></g></g></svg>