<svg xmlns="http://www.w3.org/2000/svg" viewBox="0 0 119.89 119.89"><defs><style>.cls-1{fill:#d4eded;}.cls-2{fill:#6967af;}.cls-3{fill:#fbae48;}</style></defs><g id="Layer_2" data-name="Layer 2"><g id="page_2" data-name="page 2"><g id="_Icon6_" data-name="&lt;Icon6&gt;"><circle class="cls-1" cx="59.95" cy="59.95" r="59.95"/><path class="cls-2" d="M53.07,30.1H26.53c-.76,0-1.35-.27-1.44-1s.38-1,1.08-1.23l7.42-2C40.5,24,47.38,22.07,54.32,20.33a2.85,2.85,0,0,0,2.43-2.39c.89-3.42,1.93-6.82,2.89-10.22a1.39,1.39,0,0,1,2.73.06c1,3.55,2.05,7.08,3,10.64a2.18,2.18,0,0,0,1.9,1.78c4.71,1.16,9.36,2.49,14,3.75s9.53,2.58,14.3,3.85c.77.21,1.44.51,1.29,1.35s-.88,1-1.68,1H70.16c-.41,0-.81,0-1.24,0l.88,7.63a1.32,1.32,0,0,1,0,.26c-.36,2.14,1.1,2.75,3.08,3.31,7.48,2.14,14.91,4.43,22.35,6.67.83.25,1.84.42,1.62,1.49s-1.21.85-2,.85h-15c-2.54,0-5.09,0-7.64,0-.65,0-1,.17-.88.8.33,2.82.79,5.63.92,8.45.21,4.64,2.17,8.84,3.81,13.12q4.61,12,9.26,24c.81,2.09,1.6,4.2,2.44,6.28.28.71.35,1.35-.49,1.71s-1.38-.08-1.84-.69c-5.08-6.78-10.2-13.54-15.26-20.32a2.28,2.28,0,0,0-2.12-1c-4.76,0-9.52,0-14.28,0a1.91,1.91,0,0,0-1.73.83q-7.56,10.11-15.16,20.18c-.49.65-.93,1.42-2,1-.76-.26-.85-.84-.37-2.11L44.78,75.87c1.4-3.63,2.85-7.23,4.14-10.88a16.92,16.92,0,0,0,.55-3.57c.25-1.86.48-3.71.7-5.57.18-1.45.33-2.91.5-4.36.12-1.05,0-1.16-1.15-1.15-1.54,0-3.07,0-4.61,0h-18a2.27,2.27,0,0,1-1.13-.13c-.32-.2-.71-.67-.64-.93a1.67,1.67,0,0,1,.93-1c3-1,6-1.87,9.08-2.78,5.24-1.57,10.48-3.15,15.73-4.69A1.39,1.39,0,0,0,52,39.45C52.33,36.39,52.7,33.33,53.07,30.1ZM73.83,80.49a2.65,2.65,0,0,0-.37-.4c-4-2.45-8-4.91-12-7.32a1.45,1.45,0,0,0-1.16.1c-3.82,2.31-7.61,4.66-11.41,7-.22.14-.42.31-.84.62ZM61,48.22h0c2.2,0,4.4,0,6.59,0,.74,0,1-.2.88-.86-.19-1.4-.34-2.81-.46-4.21,0-.57-.35-.73-.93-.73q-6,0-12,0c-.65,0-.92.21-1,.79-.12,1.38-.26,2.76-.46,4.13-.09.66.14.87.88.86C56.61,48.2,58.78,48.22,61,48.22Zm-9.89,18.1L46.4,78.4l.28.16,12.14-7.47Zm12.12,4.77,12.17,7.48.24-.2c-1.54-4-3.07-7.94-4.66-12.05ZM86.24,27.83l0-.25L66.53,22.26c.5,1.75,1,3.21,1.31,4.69.18.74.55,1,1.38.95,5.4,0,10.8,0,16.2,0C85.69,27.89,86,27.85,86.24,27.83Zm-50.53-.25.07.23a.9.9,0,0,0,.27.07c5.72,0,11.45,0,17.17,0a1.13,1.13,0,0,0,.81-.63c.38-1.1.66-2.23,1-3.34.13-.46.25-.92.43-1.61Zm51.4,20.56,0-.25-16.74-5c.16,1.59.34,3,.42,4.31,0,.76.36,1,1.25,1,4.78,0,9.56,0,14.35,0A5.05,5.05,0,0,0,87.11,48.14ZM51.6,42.86l-16.75,5c.16.25.27.33.38.33,5,0,10.08,0,15.12,0a.92.92,0,0,0,.71-.52C51.28,46.16,51.41,44.65,51.6,42.86Zm9.38-15h0c1.23,0,2.46,0,3.68,0,.63,0,.92-.14.73-.75-.43-1.44-.85-2.89-1.26-4.34-.14-.51-.45-.67-1-.66-1.39,0-2.78,0-4.17,0a1,1,0,0,0-1.12.81q-.57,2.08-1.2,4.17c-.17.58,0,.8.69.78C58.53,27.87,59.76,27.89,61,27.89Zm6.67,35.55.34-.37a4.43,4.43,0,0,1-.85-.4q-2.76-2.16-5.49-4.36a1,1,0,0,0-1.53,0c-1.45,1.23-3,2.37-4.46,3.56-.55.44-1.08.91-1.81,1.54Zm2-1.81.25-.08c-.36-3.25-.72-6.5-1.1-10l-5.93,4.8Zm2.7,21.14,9.5,12.63c.08-.28.13-.35.11-.39-1.5-3.92-3-7.85-4.53-11.76-.07-.19-.32-.45-.5-.46C75.51,82.76,74.08,82.77,72.37,82.77Zm-22.72,0c-1.51,0-2.76,0-4,0a1.1,1.1,0,0,0-1.25.81c-1.38,3.65-2.81,7.29-4.22,10.94-.08.22-.11.46-.17.69l.23.08Zm2.32-21c.57-.38.91-.56,1.21-.8,1.61-1.31,3.2-2.64,4.81-3.95.86-.7.87-.91,0-1.62l-4.07-3.14a9.15,9.15,0,0,0-.79-.5Zm3,4-.08.21c1.82,1.12,3.66,2.22,5.46,3.37a1.08,1.08,0,0,0,1.37,0c1.51-1,3.06-1.9,4.6-2.85l.8-.53-.07-.17Zm.68-15.33c.08.2.08.31.14.36,1.56,1.25,3.11,2.5,4.69,3.72a1,1,0,0,0,.82,0c1.63-1.26,3.23-2.55,4.83-3.84,0,0,0-.11,0-.24Zm.22-10.26H66L60.92,36Zm2.84-20.33h4.58l-2.14-7.4-.33,0Zm7.92,11.81-.28-.07-3.59,2.95L67.05,38l.29-.15Zm-11,.05-.29.07-.68,6,.28.11c1.27-1.05,2.55-2.08,3.8-3.14a.55.55,0,0,0-.08-.57C57.68,33.36,56.66,32.54,55.64,31.71Zm8.52-1.33L64,30.2H57.5c1.17,1,2.12,1.77,3.11,2.55a.72.72,0,0,0,.59,0C62.2,32,63.18,31.18,64.16,30.38Z"/><rect class="cls-3" x="87.15" y="31.28" width="13.06" height="3.1" rx="1.37"/><rect class="cls-3" x="21.03" y="31.28" width="13.06" height="3.1" rx="1.37"/><rect class="cls-3" x="23.91" y="51.76" width="7.31" height="3.1" rx="1.37"/><rect class="cls-3" x="90.94" y="51.76" width="7.31" height="3.1" rx="1.37"/></g></g></g></svg>