<?xml version="1.0" encoding="utf-8"?>
<!-- Generator: Adobe Illustrator 12.0.0, SVG Export Plug-In . SVG Version: 6.00 Build 51448)  -->
<!DOCTYPE svg PUBLIC "-//W3C//DTD SVG 1.1//EN" "http://www.w3.org/Graphics/SVG/1.1/DTD/svg11.dtd" [
	<!ENTITY ns_svg "http://www.w3.org/2000/svg">
	<!ENTITY ns_xlink "http://www.w3.org/1999/xlink">
]>
<svg  version="1.1" id="Layer_1" xmlns="&ns_svg;" xmlns:xlink="&ns_xlink;" width="698.24" height="246.04"
	 viewBox="0 0 698.24 246.04" style="overflow:visible;enable-background:new 0 0 698.24 246.04;" xml:space="preserve">
<style type="text/css">
<![CDATA[
	.st0{fill:#007ABE;}
	.st1{fill:#D57E1C;}
]]>
</style>
<g id="Background">
</g>
<g id="Guides">
</g>
<g id="Foreground">
	<g>
		<path class="st1" d="M644.19,190.89c0,0,329.04-328.76-644.08-122.26C0.1,68.64,869.96-103.01,644.19,190.89L644.19,190.89z"/>
		<polygon class="st1" points="355.39,245.54 321.25,245.54 321.25,211.4 355.39,211.4 		"/>
		<polygon class="st1" points="631.91,245.54 597.77,245.54 597.77,211.4 631.91,211.4 		"/>
		<polygon class="st1" points="585.82,245.54 551.68,245.54 551.68,211.4 585.82,211.4 		"/>
		<polygon class="st1" points="539.74,245.54 505.6,245.54 505.6,211.4 539.74,211.4 		"/>
		<polygon class="st1" points="493.64,245.54 459.5,245.54 459.5,211.4 493.64,211.4 		"/>
		<polygon class="st1" points="447.56,245.54 413.42,245.54 413.42,211.4 447.56,211.4 		"/>
		<polygon class="st1" points="401.47,245.54 367.33,245.54 367.33,211.4 401.47,211.4 		"/>
		<path class="st0" d="M550.16,107.24c-1.49,2.77-2.65,5.83-3.46,9.17h59.09c-0.89-3.38-2.03-6.43-3.41-9.15
			c-1.99-3.89-4.49-7.13-7.51-9.68c-5.11-4.31-11.54-6.46-19.32-6.46c-6.72,0-12.74,2.32-18.08,6.97
			C554.49,100.68,552.05,103.74,550.16,107.24z M629.66,107.24c0.31,1.01,0.61,2.05,0.87,3.1c1.68,6.6,2.52,14.17,2.52,22.71
			l-0.1,3.09l-0.1,3.09H545.8c0.43,4.49,1.43,8.49,3,12.02c1.55,3.51,3.66,6.5,6.33,9.05c5.37,5.13,12.3,7.71,20.8,7.71
			c5.67,0,10.75-1.35,15.27-4.05c4.51-2.7,8.09-6.48,10.72-11.35h27.27c-4.62,13.49-11.51,23.96-20.71,31.42
			c-9.19,7.46-19.81,11.19-31.86,11.19c-8.1,0-15.56-1.63-22.38-4.89c-6.81-3.25-12.93-8.07-18.33-14.45
			c-5.14-6.07-9.12-13.1-11.95-21.07c-0.42-1.19-0.81-2.38-1.17-3.58c-2.06-6.85-3.08-13.84-3.08-21c0-8.11,1.15-15.78,3.46-22.99
			l0.45-1.34c2.6-7.6,6.44-14.44,11.51-20.51c5.53-6.67,11.8-11.81,18.78-15.4c6.97-3.6,14.19-5.4,21.63-5.4
			c9.42,0,18.22,2.43,26.39,7.31c8.17,4.87,15.12,11.73,20.85,20.57C625.72,96.94,628.01,101.87,629.66,107.24z M492.6,107.24
			c-2.01,5.17-3.01,12.38-3.01,21.65v22.34v40.72H464.3v-40.72v-43.99V68.3H488v14.27c3.82-5.54,8.01-9.61,12.55-12.19
			c4.55-2.59,9.69-3.88,15.42-3.88v26.87c-9.82,0.9-16.67,3.82-20.55,8.77C494.33,103.53,493.39,105.22,492.6,107.24z
			 M443.04,107.24v43.99v40.72h-25.09v-13.37c-3.69,5.62-7.93,9.79-12.7,12.53c-4.78,2.73-10.23,4.1-16.35,4.1
			c-13.64,0-24.11-4.76-31.42-14.28c-5.68-7.38-9.15-17.3-10.42-29.7c-0.37-3.55-0.55-7.33-0.55-11.32v-32.67V68.3h25.59v38.94
			v16.59c0,11.75,0.83,20.89,2.49,27.42c0.7,2.78,1.55,5.04,2.54,6.87c3.36,6.15,9.16,9.22,17.39,9.22
			c8.43,0,14.48-3.45,18.13-10.35c0.88-1.65,1.65-3.59,2.31-5.79c2.1-7.02,3.17-16.77,3.17-29.28v-14.68V68.3h24.9L443.04,107.24
			L443.04,107.24z M121.4,151.2c4.03-6.14,6.06-13.04,6.06-20.74c0-8.82-2.38-16.56-7.09-23.22c-0.64-0.94-1.32-1.83-2.05-2.69
			c-6.09-7.23-13.22-10.85-21.38-10.85c-8.57,0-15.88,3.43-21.94,10.29c-0.92,1.04-1.76,2.11-2.54,3.22
			c-4.37,6.2-6.55,13.51-6.55,21.9c0,8.51,2.04,15.88,6.09,22.11c0.91,1.39,1.93,2.74,3.04,4.03c6.1,7,13.52,10.5,22.28,10.5
			c7.97,0,14.99-3.52,21.05-10.56C119.48,153.91,120.49,152.57,121.4,151.2z M154.72,107.24v43.99v40.72h-24.41v-15.17
			c-3.03,6.15-7.29,10.68-12.79,13.61c-5.5,2.92-12.54,4.38-21.1,4.38c-16.07,0-29.49-6.23-40.26-18.72
			c-6.26-7.25-10.69-15.54-13.32-24.82c-1.89-6.67-2.84-13.9-2.84-21.67c0-7.81,1.09-15.26,3.27-22.34c0.25-0.82,0.51-1.6,0.78-2.39
			c2.7-7.8,6.55-14.65,11.55-20.58C61,77.73,67,72.92,73.59,69.81c6.59-3.11,14-4.66,22.23-4.66c7.9,0,14.71,1.5,20.4,4.49
			c5.7,3,10.29,7.53,13.78,13.6V68.3h24.71v38.94H154.72z M324.44,107.24l-30.51,43.99l-9.07,13.07h48.12v27.65h-78.65v-26.52
			l9.79-14.2l30.33-43.99l8.4-12.19h-44.47V68.3h71.64v30.91L324.44,107.24z M239.27,107.24l-30.52,43.99l-9.07,13.07h48.13v27.65
			h-78.66v-26.52l9.79-14.2l30.33-43.99l8.4-12.19H173.2V68.3h71.64v30.91L239.27,107.24z"/>
	</g>
</g>
</svg>
