<svg xmlns="http://www.w3.org/2000/svg" xmlns:xlink="http://www.w3.org/1999/xlink" viewBox="0 0 16.74 14.71"><defs><style>.cls-1{fill:#9583ff;}.cls-2{fill:#220b60;}.cls-3{fill:url(#linear-gradient);}.cls-4{fill:url(#linear-gradient-2);}.cls-5{fill:#efefef;}</style><linearGradient id="linear-gradient" x1="2.98" y1="1.27" x2="4.55" y2="1.27" gradientUnits="userSpaceOnUse"><stop offset="0" stop-color="#acaab6"/><stop offset="1" stop-color="#dedce8"/></linearGradient><linearGradient id="linear-gradient-2" x1="12.25" y1="1.27" x2="13.81" y2="1.27" xlink:href="#linear-gradient"/></defs><g id="Layer_2" data-name="Layer 2"><g id="Layer_1-2" data-name="Layer 1"><path class="cls-1" d="M0,4.14v.61H0V4.14Zm16.73,0v.61h0V4.14Z"/><rect class="cls-1" y="4.75" width="16.74" height="9.96"/><rect class="cls-2" y="1.18" width="16.74" height="2.96"/><polygon class="cls-3" points="2.98 1.19 2.98 2.55 4.55 2.55 4.55 1.19 4.55 0 2.98 0 2.98 1.19"/><polygon class="cls-4" points="13.48 0 12.51 0 12.25 0 12.25 1.19 12.25 2.55 12.51 2.55 13.48 2.55 13.81 2.55 13.81 1.19 13.81 0 13.48 0"/><path class="cls-5" d="M6.4,7.77H4.78V6.3H6.4ZM9.32,6.3H7.7V7.77H9.32Zm2.91,0H10.61V7.77h1.62Zm2.92,0H13.53V7.77h1.62ZM3.48,9H1.86v1.47H3.48ZM6.4,9H4.78v1.47H6.4ZM9.32,9H7.7v1.47H9.32Zm2.91,0H10.61v1.47h1.62Zm2.92,0H13.53v1.47h1.62ZM3.48,11.73H1.86V13.2H3.48Zm2.92,0H4.78V13.2H6.4Zm2.92,0H7.7V13.2H9.32Zm2.91,0H10.61V13.2h1.62Z"/></g></g></svg>