<svg xmlns="http://www.w3.org/2000/svg" xmlns:xlink="http://www.w3.org/1999/xlink" viewBox="0 0 20.8 16.89"><defs><style>.cls-1{fill:#6e42e8;}.cls-2{fill:#220b60;}.cls-3{fill:url(#linear-gradient);}</style><linearGradient id="linear-gradient" x1="14.45" y1="12.94" x2="20.8" y2="12.94" gradientUnits="userSpaceOnUse"><stop offset="0" stop-color="#acaab6"/><stop offset="1" stop-color="#dedce8"/></linearGradient></defs><g id="Layer_2" data-name="Layer 2"><g id="Layer_1-2" data-name="Layer 1"><rect class="cls-1" y="4.07" width="12.82" height="12.82" rx="0.66"/><path class="cls-2" d="M6.27,13.09l-.13,0L6,13l-.13,0,.06-.26.13,0,.12,0h.13Zm10.15,0H16v-.26h.39Zm-.93,0H15.1v-.26h.39Zm-.92,0h-.39v-.26h.39Zm-.92,0h-.39v-.26h.39Zm-.92,0h-.39v-.26h.39Zm-.92,0h-.39v-.26h.39Zm-.92,0H10.5v-.26h.39Zm-.92,0H9.58v-.26H10Zm-.92,0H8.66v-.26h.39Zm-.92,0h-.4v-.26h.4Zm-.92,0h-.4v-.26h.4ZM17,12.92l-.13-.22.11-.07.1-.07.1-.08.16.21-.11.08-.11.08Zm-11.64-.2-.09-.09-.1-.11-.09-.1.21-.17.08.1.08.09.1.09Zm12.35-.5-.25-.1L17.5,12a.49.49,0,0,0,0-.11l0-.13.26.08,0,.13s0,.09-.05.13ZM4.82,11.88l0-.13c0-.05,0-.1,0-.14v-.14H5v.13s0,.08,0,.12l0,.13Zm13.05-.6H17.6v-.4h.27ZM5.05,10.94H4.78v-.4h.27Zm12.82-.58H17.6V10h.27ZM5.05,10H4.78v-.4h.27Zm12.82-.58H17.6V9h.27ZM5.05,9.1H4.78V8.7h.27Zm12.82-.58H17.6v-.4h.27ZM5.05,8.18H4.78v-.4h.27ZM17.87,7.6H17.6V7.2h.27ZM5.05,7.26H4.78v-.4h.27Zm12.82-.58H17.6v-.4h.27ZM5.05,6.34H4.78v-.4h.27Zm12.82-.58H17.6v-.4h.27ZM5.05,5.42H4.78V5h.27Zm12.82-.58H17.6v-.4h.27ZM5.05,4.5H4.78V4.1h.27Zm12.82-.58H17.6v-.4h.27ZM5.05,3.58H4.78v-.4h.27ZM17.87,3H17.6V2.6h.27ZM5.05,2.66H4.78v-.4h.27Zm12.82-.58H17.6v-.4h.27ZM5.05,1.74H4.78V1.59c0-.05,0-.09,0-.13V1.33l.26,0v.39Zm12.51-.53,0-.12L17.46,1,17.39.86l.24-.12.06.12.06.13.05.12ZM5.22.93,5,.77,5.08.66,5.17.55l.08-.1.2.17-.08.1-.08.1ZM17.09.53,17,.46,16.87.4,16.75.34l.12-.23L17,.16l.12.07.11.07ZM5.83.37,5.75.12l.12,0L6,0l.13,0L6.2.27,6.07.3,6,.33ZM16.29.26H15.9V0h.39Zm-.92,0H15V0h.39Zm-.92,0h-.39V0h.39Zm-.92,0h-.39V0h.39Zm-.92,0h-.39V0h.39Zm-.92,0H11.3V0h.39Zm-.92,0h-.39V0h.39Zm-.92,0H9.46V0h.39Zm-.92,0H8.54V0h.39ZM8,.26H7.62V0H8Zm-.92,0h-.4V0h.4Z"/><polygon class="cls-3" points="19.86 12.03 19.86 12.03 14.46 9.77 16.72 15.17 16.72 15.17 16.72 15.17 17.77 14.12 19.76 16.11 20.8 15.07 18.81 13.08 19.86 12.03 19.86 12.03"/><rect class="cls-2" x="11.69" y="14.24" width="3.18" height="0.4" transform="translate(-6.32 13.62) rotate(-45)"/><rect class="cls-2" x="13.28" y="14.57" width="2.24" height="0.4" transform="translate(-6.23 14.51) rotate(-45)"/></g></g></svg>