<svg xmlns="http://www.w3.org/2000/svg" viewBox="0 0 17.3 15.34"><defs><style>.cls-1{fill:#220b60;}.cls-2{fill:#6e42e8;}.cls-3{fill:#fff;}.cls-4{fill:#efefef;}</style></defs><g id="Layer_2" data-name="Layer 2"><g id="Layer_1-2" data-name="Layer 1"><path class="cls-1" d="M9.7,2.23V5.59a2.1,2.1,0,0,1-2.1,2.1H3.22A1.21,1.21,0,0,1,2,6.48V1.21A1.21,1.21,0,0,1,3.22,0H7.05a.85.85,0,0,1,.61.2c.36.33,1.56,1.54,2,2Z"/><path class="cls-1" d="M17.3,10.33v3.8a1.21,1.21,0,0,1-1.21,1.21H12.26a.85.85,0,0,1-.61-.2c-.37-.34-1.64-1.62-2-2V9.75a2.1,2.1,0,0,1,1.82-2.08l.28,0h3.44l0,0,0,0L17,9.53A1.14,1.14,0,0,1,17.3,10.33Z"/><path class="cls-2" d="M17.3,1.21V5a1.14,1.14,0,0,1-.33.8L15.15,7.65H11.71l-.28,0A2.1,2.1,0,0,0,9.61,9.75v3.36c-.4.4-1.67,1.68-2,2a.85.85,0,0,1-.61.2H3.13a1.21,1.21,0,0,1-1.21-1.21v-3.8a1.14,1.14,0,0,1,.33-.8L4.07,7.69H7.6a2.1,2.1,0,0,0,2.1-2.1V2.23l0,0c.45-.46,1.63-1.65,2-2a.85.85,0,0,1,.61-.2h3.83A1.21,1.21,0,0,1,17.3,1.21Z"/><path class="cls-3" d="M9,3.88v7.89a.69.69,0,0,1-.69.69H.69A.68.68,0,0,1,0,12a.7.7,0,0,0,.38.11H8a.67.67,0,0,0,.68-.68V3.85a.67.67,0,0,0-.51-.66H8.3A.69.69,0,0,1,9,3.88Z"/><path class="cls-2" d="M8.72,3.85v7.58a.67.67,0,0,1-.68.68H.42A.7.7,0,0,1,0,12a.59.59,0,0,1,0-.23V3.88a.69.69,0,0,1,.69-.69H8.21A.67.67,0,0,1,8.72,3.85Z"/><polygon class="cls-4" points="3.73 9.27 3.73 8.04 5.69 8.04 5.69 7.23 3.73 7.23 3.73 6.03 5.82 6.03 5.82 5.22 2.78 5.22 2.78 6.03 2.78 6.03 2.78 7.23 2.78 7.23 2.78 8.04 2.78 8.04 2.78 9.27 2.78 9.27 2.78 10.08 5.94 10.08 5.94 9.27 3.73 9.27"/></g></g></svg>