<svg xmlns="http://www.w3.org/2000/svg" viewBox="0 0 21.52 22.12"><defs><style>.cls-1{fill:#6e42e8;}.cls-2{fill:#220b60;}</style></defs><g id="Layer_2" data-name="Layer 2"><g id="Layer_1-2" data-name="Layer 1"><rect class="cls-1" y="2.17" width="15.26" height="2.61"/><rect class="cls-2" x="3.69" y="5.95" width="6.36" height="2.61"/><rect class="cls-2" x="12.92" y="13.78" width="6.36" height="2.61"/><rect class="cls-1" x="8.84" y="17.32" width="7.5" height="2.61"/><rect class="cls-1" x="5.79" y="9.98" width="15.73" height="2.61"/><rect class="cls-2" x="10.86" width="1.5" height="22.12"/><rect class="cls-1" x="0.6" y="16.53" width="7.04" height="4.47"/><rect class="cls-2" x="2.97" y="17.32" width="3.72" height="0.6"/><rect class="cls-2" x="1.54" y="17.32" width="0.89" height="0.6"/><rect class="cls-2" x="1.54" y="19.8" width="0.89" height="0.6"/><rect class="cls-2" x="2.97" y="19.8" width="0.89" height="0.6"/><rect class="cls-2" x="4.4" y="19.8" width="0.89" height="0.6"/><rect class="cls-2" x="5.82" y="19.8" width="0.89" height="0.6"/><rect class="cls-2" x="2.97" y="18.6" width="2.31" height="0.6"/><rect class="cls-2" x="1.54" y="18.6" width="0.89" height="0.6"/><rect class="cls-2" x="5.82" y="18.6" width="0.89" height="0.6"/></g></g></svg>