<svg xmlns="http://www.w3.org/2000/svg" viewBox="0 0 20.95 10.35"><defs><style>.cls-1{fill:#220b60;}.cls-2{fill:#6e42e8;}</style></defs><g id="Layer_2" data-name="Layer 2"><g id="Layer_1-2" data-name="Layer 1"><path class="cls-1" d="M21,9.61c0,.24,0,.48,0,.72H17.29a5.83,5.83,0,0,0-1.66-4.89l2.62-2.51A9.6,9.6,0,0,1,21,9.61Z"/><path class="cls-1" d="M5.34,9.61c0,.24,0,.48,0,.72H1.76c0-.24,0-.48,0-.72A9.61,9.61,0,0,1,4.53,2.82l2.53,2.6A5.89,5.89,0,0,0,5.34,9.61Z"/><path class="cls-2" d="M18.25,2.93,15.63,5.44a6,6,0,0,0-8.57,0L4.53,2.82a9.62,9.62,0,0,1,13.72.11Z"/><polygon class="cls-2" points="0 4.32 3.26 1.06 3.77 4.92 0 4.32"/><polygon class="cls-1" points="15.26 10.35 7.74 10.35 11.6 5.3 15.26 10.35"/></g></g></svg>