<svg xmlns="http://www.w3.org/2000/svg" xmlns:xlink="http://www.w3.org/1999/xlink" viewBox="0 0 18.51 20.63"><defs><style>.cls-1{fill:#6e42e8;}.cls-2{fill:#220b60;}.cls-3{fill:url(#linear-gradient);}.cls-4{fill:#dad9dd;}.cls-5{fill:none;}</style><linearGradient id="linear-gradient" x1="7.01" y1="6.83" x2="11.5" y2="6.83" gradientUnits="userSpaceOnUse"><stop offset="0" stop-color="#0099a3"/><stop offset="0.35" stop-color="#029ca6"/><stop offset="0.59" stop-color="#09a5ae"/><stop offset="0.79" stop-color="#14b4bc"/><stop offset="0.98" stop-color="#23cad0"/><stop offset="1" stop-color="#26cdd3"/></linearGradient></defs><g id="Layer_2" data-name="Layer 2"><g id="Layer_1-2" data-name="Layer 1"><path class="cls-1" d="M18.06,19.41H.46a.46.46,0,0,1-.37-.74l3.37-4.53a.45.45,0,0,1,.37-.2H6.47A12.19,12.19,0,0,1,8,16.22l.19.37a1.17,1.17,0,0,0,1.89.26,1,1,0,0,0,.18-.26l.11-.22A12.59,12.59,0,0,1,12,13.94h2.68a.48.48,0,0,1,.37.2l3.36,4.53A.46.46,0,0,1,18.06,19.41Z"/><path class="cls-1" d="M15.91,6.65a6.63,6.63,0,0,1-2.51,5.2,14.67,14.67,0,0,0-3.89,4.69l-.11.22a.14.14,0,0,1-.15.08V9.07a2.24,2.24,0,1,0,0-4.48V0A6.65,6.65,0,0,1,15.91,6.65Z"/><path class="cls-2" d="M7,6.83A2.24,2.24,0,0,0,9.25,9.07v7.77a.14.14,0,0,1-.13-.08l-.2-.37a14.11,14.11,0,0,0-3.83-4.55A6.69,6.69,0,0,1,2.61,6.2,7,7,0,0,1,8.93,0h.32V4.59A2.24,2.24,0,0,0,7,6.83Z"/><path class="cls-3" d="M11.5,6.83A2.25,2.25,0,1,1,9.25,4.59,2.24,2.24,0,0,1,11.5,6.83Z"/><path class="cls-4" d="M11.5,6.83A2.25,2.25,0,1,1,9.25,4.59,2.24,2.24,0,0,1,11.5,6.83Z"/><line class="cls-5" x1="9.25" y1="20.63" x2="9.25" y2="16.84"/><line class="cls-5" x1="9.25" y1="9.07" x2="9.25" y2="4.59"/></g></g></svg>