<svg xmlns="http://www.w3.org/2000/svg" xmlns:xlink="http://www.w3.org/1999/xlink" viewBox="0 0 30.8 30.71"><defs><style>.cls-1{fill:#424242;opacity:0.22;}.cls-2{fill:url(#linear-gradient);}.cls-3{fill:url(#linear-gradient-2);}.cls-4{fill:#220b60;}.cls-5{fill:url(#linear-gradient-3);}.cls-6{fill:#fff;}.cls-7{fill:url(#linear-gradient-4);}.cls-8{fill:url(#linear-gradient-5);}</style><linearGradient id="linear-gradient" x1="23.76" y1="17.85" x2="24.6" y2="17.85" gradientUnits="userSpaceOnUse"><stop offset="0" stop-color="#acaab6"/><stop offset="1" stop-color="#dedce8"/></linearGradient><linearGradient id="linear-gradient-2" x1="25.22" y1="18.17" x2="26.07" y2="18.17" xlink:href="#linear-gradient"/><linearGradient id="linear-gradient-3" x1="1.22" y1="17.89" x2="22.01" y2="17.89" gradientUnits="userSpaceOnUse"><stop offset="0" stop-color="#8a68e8"/><stop offset="1" stop-color="#5939d1"/></linearGradient><linearGradient id="linear-gradient-4" x1="7.27" y1="25.6" x2="30.8" y2="25.6" xlink:href="#linear-gradient-3"/><linearGradient id="linear-gradient-5" x1="8.82" y1="2.54" x2="25.11" y2="2.54" xlink:href="#linear-gradient"/></defs><g id="Layer_2" data-name="Layer 2"><g id="Layer_1-2" data-name="Layer 1"><path class="cls-1" d="M29.1,20.49H27.31V19.22H25.53V16.55h-.85v2.67h-.61V15.91h-.85v3.31H19.43v1.27h-.85c0-.18-.07-.36-.1-.55h0a70.38,70.38,0,0,1-1.31-12h.71V5.08H15.65a2.7,2.7,0,0,0,.88-1.29,4.48,4.48,0,0,0,2.84,1A4.52,4.52,0,0,0,23.89.26H16.2c-2.6-.8-3.94.43-4.44,1.09a.92.92,0,0,0-.54-.18.9.9,0,0,0-.9.9A2.72,2.72,0,0,0,7.6,4.79v.29H2.9V7.89h.53C3.5,15.59,0,30.69,0,30.69H6.05v0H29.58V21A.49.49,0,0,0,29.1,20.49ZM9.41,4.79a.91.91,0,0,1,.91-.91.9.9,0,0,0,.9.91.92.92,0,0,0,.54-.18,3.41,3.41,0,0,0,.46.47H9.41Z"/><rect class="cls-2" x="23.76" y="15.91" width="0.85" height="3.87"/><rect class="cls-3" x="25.22" y="16.55" width="0.85" height="3.23"/><rect class="cls-4" x="20.65" y="19.22" width="7.88" height="2.29"/><path class="cls-5" d="M1.22,30.69s4.3-18.55,3.27-25A.49.49,0,0,1,5,5.09H18a.48.48,0,0,1,.49.55C17.55,13.58,22,30.69,22,30.69Z"/><path class="cls-6" d="M22,30.69s-1.25-5-2.31-10.75H7.52a.88.88,0,0,0-.9.87v9.88Z"/><path class="cls-7" d="M7.27,30.71V21a.49.49,0,0,1,.48-.49H30.32a.49.49,0,0,1,.48.49v9.73Z"/><path class="cls-8" d="M17.42.26c-2.6-.8-3.94.43-4.44,1.09a.92.92,0,0,0-.54-.18.9.9,0,0,0-.9.9A2.72,2.72,0,0,0,8.82,4.79v.29h1.81V4.79a.91.91,0,0,1,.91-.91.9.9,0,0,0,.9.91A.92.92,0,0,0,13,4.61a2.93,2.93,0,0,0,.46.47h3.43a2.77,2.77,0,0,0,.88-1.29,4.48,4.48,0,0,0,2.84,1A4.52,4.52,0,0,0,25.11.26Z"/><rect class="cls-4" x="4.12" y="5.08" width="14.96" height="2.81"/><rect class="cls-6" x="11.4" y="22.58" width="2.82" height="2.55"/><rect class="cls-6" x="17.71" y="22.58" width="2.82" height="2.55"/><rect class="cls-6" x="24.01" y="22.58" width="2.82" height="2.55"/><rect class="cls-6" x="11.4" y="26.54" width="2.82" height="2.55"/><rect class="cls-6" x="17.71" y="26.54" width="2.82" height="2.55"/><rect class="cls-6" x="24.01" y="26.54" width="2.82" height="2.55"/></g></g></svg>