<svg xmlns="http://www.w3.org/2000/svg" xmlns:xlink="http://www.w3.org/1999/xlink" viewBox="0 0 29.95 29.25"><defs><style>.cls-1{opacity:0.22;}.cls-2{fill:#424242;}.cls-3{fill:url(#linear-gradient);}.cls-4{fill:url(#linear-gradient-2);}.cls-5{fill:#220b60;}.cls-6{fill:#fff;}.cls-7{fill:url(#linear-gradient-3);}</style><linearGradient id="linear-gradient" x1="12.15" y1="20.98" x2="23.49" y2="20.98" gradientUnits="userSpaceOnUse"><stop offset="0" stop-color="#8a68e8"/><stop offset="1" stop-color="#5939d1"/></linearGradient><linearGradient id="linear-gradient-2" x1="0.8" y1="13.41" x2="12.15" y2="13.41" xlink:href="#linear-gradient"/><linearGradient id="linear-gradient-3" x1="0.8" y1="22.87" x2="15.93" y2="22.87" xlink:href="#linear-gradient"/></defs><g id="Layer_2" data-name="Layer 2"><g id="Layer_1-2" data-name="Layer 1"><g class="cls-1"><path class="cls-2" d="M11.35,29.25H22.69V17.9H19a2.39,2.39,0,0,0,.35-2,2.36,2.36,0,0,0-1.69-1.71,2.4,2.4,0,0,0-2.61,3.7h-3.7"/><path class="cls-2" d="M0,17.9V29.25H11.35v-3.7a2.41,2.41,0,1,0,0-3.95V17.9"/><path class="cls-2" d="M9.34,9.9a2.44,2.44,0,0,1,2,.35V6.55H0V17.9H3.7a2.42,2.42,0,0,0-.35,2A2.35,2.35,0,0,0,5,21.6a2.41,2.41,0,0,0,2.61-3.7h3.7V14.2a2.43,2.43,0,0,1-1.38.43,2.4,2.4,0,0,1-2.32-3A2.37,2.37,0,0,1,9.34,9.9Z"/><path class="cls-2" d="M29.15,3.08,18.05.7l-.78,3.62a2.43,2.43,0,0,0-1.89-.76,2.36,2.36,0,0,0-2,1.29A2.42,2.42,0,0,0,15,8.32a2.35,2.35,0,0,0,1.44-.14l-.78,3.62,3.62.78a2.42,2.42,0,0,1-.13-1.44,2.47,2.47,0,0,1,4.45-.83,2.58,2.58,0,0,1-.46,3.09l3.62.78Z"/></g><path class="cls-3" d="M12.15,28.54H23.49V17.2H19.8a2.41,2.41,0,0,0,.35-2,2.37,2.37,0,0,0-1.69-1.7,2.41,2.41,0,0,0-2.61,3.7h-3.7"/><path class="cls-4" d="M10.14,9.2a2.44,2.44,0,0,1,2,.35V5.85H.8V17.2H4.5a2.41,2.41,0,0,0-.35,2,2.37,2.37,0,0,0,1.69,1.7,2.41,2.41,0,0,0,2.61-3.7h3.7V13.5a2.41,2.41,0,0,1-3.7-2.62A2.37,2.37,0,0,1,10.14,9.2Z"/><path class="cls-5" d="M30,2.38,18.85,0l-.77,3.62a2.44,2.44,0,0,0-1.9-.77,2.41,2.41,0,1,0,1.07,4.63l-.78,3.62,3.62.77A2.39,2.39,0,0,1,20,10.44a2.47,2.47,0,0,1,4.45-.84A2.59,2.59,0,0,1,24,12.7l3.62.77Z"/><path class="cls-6" d="M13.06,17.2v3.32a2.53,2.53,0,0,0-.91.37V17.2Z"/><path class="cls-7" d="M15.85,23.51a2.39,2.39,0,0,1-1.54,1.64.44.44,0,0,1-.15.05l-.19,0-.28,0a2.33,2.33,0,0,1-1.54-.41v3.69H.8V17.2H12.15v3.69a2.46,2.46,0,0,1,1.37-.42h.17a.88.88,0,0,1,.27,0,1.21,1.21,0,0,1,.33.07A2.42,2.42,0,0,1,15.85,23.51Z"/><path class="cls-6" d="M16.71,23.51A2.36,2.36,0,0,1,15,25.2a2.55,2.55,0,0,1-1.06,0l.19,0a.44.44,0,0,0,.15-.05,2.39,2.39,0,0,0,1.54-1.64,2.42,2.42,0,0,0-1.56-2.92,1.21,1.21,0,0,0-.33-.07,1.54,1.54,0,0,1,.43-.05A2.41,2.41,0,0,1,16.71,23.51Z"/><path class="cls-6" d="M13,25.23v3.31h-.89V24.85A2.5,2.5,0,0,0,13,25.23Z"/><rect class="cls-6" x="0.76" y="16.39" width="11.39" height="0.81"/></g></g></svg>