<svg xmlns="http://www.w3.org/2000/svg" xmlns:xlink="http://www.w3.org/1999/xlink" viewBox="0 0 29.02 25.92"><defs><style>.cls-1{fill:#424242;opacity:0.22;}.cls-2{fill:url(#linear-gradient);}.cls-3{fill:url(#linear-gradient-2);}.cls-4{fill:#fff;}.cls-5{fill:#220b60;}</style><linearGradient id="linear-gradient" x1="0.9" y1="8.13" x2="29.02" y2="8.13" gradientUnits="userSpaceOnUse"><stop offset="0" stop-color="#8a68e8"/><stop offset="1" stop-color="#5939d1"/></linearGradient><linearGradient id="linear-gradient-2" x1="1.82" y1="17.89" x2="28.11" y2="17.89" xlink:href="#linear-gradient"/></defs><g id="Layer_2" data-name="Layer 2"><g id="Layer_1-2" data-name="Layer 1"><path class="cls-1" d="M21,4.78v-3A1.71,1.71,0,0,0,19.32.08H8.8A1.72,1.72,0,0,0,7.09,1.8v3H0v6.86H.91V24.32H3.09v1.6H6.52v-1.6H21.61v1.6H25v-1.6h2.17V11.64h.91V4.78ZM9.6,2.6h8.92V4.78H9.6Z"/><rect class="cls-2" x="0.9" y="4.7" width="28.12" height="6.86"/><rect class="cls-3" x="1.82" y="11.55" width="26.29" height="12.68"/><rect class="cls-4" x="1.82" y="11.55" width="26.29" height="0.63"/><rect class="cls-5" x="22.08" y="11.55" width="2.52" height="1.98"/><path class="cls-5" d="M8,1.71v3H10.5V2.52h8.92V4.71h2.52v-3A1.72,1.72,0,0,0,20.22,0H9.7A1.72,1.72,0,0,0,8,1.71Z"/><rect class="cls-5" x="22.51" y="24.23" width="3.43" height="1.6"/><rect class="cls-5" x="3.99" y="24.23" width="3.43" height="1.6" transform="translate(11.41 50.07) rotate(-180)"/><rect class="cls-5" x="5.73" y="11.55" width="2.52" height="1.98"/></g></g></svg>